<svg version="1.2" xmlns="http://www.w3.org/2000/svg" viewBox="0 0 1024 1024" width="1024" height="1024">
	<title>New Project</title>
	<defs>
		<radialGradient id="g1" cx="0" cy="0" r="1" gradientUnits="userSpaceOnUse" gradientTransform="matrix(-368.453,488.2,488.2,368.453,585.676,309.971)">
			<stop offset="0" stop-color="#fff8c7"/>
			<stop offset=".156" stop-color="#ffe436"/>
			<stop offset="1" stop-color="#fe761c"/>
		</radialGradient>
		<radialGradient id="g2" cx="0" cy="0" r="1" gradientUnits="userSpaceOnUse" gradientTransform="matrix(-77.048,105.914,-148.606,-120.512,638.118,372.904)">
			<stop offset="0" stop-color="#ffffff"/>
			<stop offset="1" stop-color="#ffffff" stop-opacity="0"/>
		</radialGradient>
		<radialGradient id="g3" cx="0" cy="0" r="1" gradientUnits="userSpaceOnUse" gradientTransform="matrix(-103.802,-97.512,19.667,-64.521,331.035,680.699)">
			<stop offset="0" stop-color="#ffffff"/>
			<stop offset="1" stop-color="#ffffff" stop-opacity="0"/>
		</radialGradient>
		<radialGradient id="g4" cx="0" cy="0" r="1" gradientUnits="userSpaceOnUse" gradientTransform="matrix(-25.812,103.246,-103.246,-25.812,519.104,19.743)">
			<stop offset="0" stop-color="#fff8c7"/>
			<stop offset=".156" stop-color="#ffe436"/>
			<stop offset="1" stop-color="#fe761c"/>
		</radialGradient>
		<radialGradient id="g5" cx="0" cy="0" r="1" gradientUnits="userSpaceOnUse" gradientTransform="matrix(54.756,91.26,-91.26,54.756,168.952,158.89)">
			<stop offset="0" stop-color="#fff8c7"/>
			<stop offset=".156" stop-color="#ffe436"/>
			<stop offset="1" stop-color="#fe761c"/>
		</radialGradient>
		<radialGradient id="g6" cx="0" cy="0" r="1" gradientUnits="userSpaceOnUse" gradientTransform="matrix(103.246,25.811,-25.811,103.246,19.743,504.884)">
			<stop offset="0" stop-color="#fff8c7"/>
			<stop offset=".156" stop-color="#ffe436"/>
			<stop offset="1" stop-color="#fe761c"/>
		</radialGradient>
		<radialGradient id="g7" cx="0" cy="0" r="1" gradientUnits="userSpaceOnUse" gradientTransform="matrix(91.261,-54.756,54.756,91.261,158.891,855.039)">
			<stop offset="0" stop-color="#fff8c7"/>
			<stop offset=".156" stop-color="#ffe436"/>
			<stop offset="1" stop-color="#fe761c"/>
		</radialGradient>
		<radialGradient id="g8" cx="0" cy="0" r="1" gradientUnits="userSpaceOnUse" gradientTransform="matrix(25.812,-103.249,103.249,25.812,504.882,1004.247)">
			<stop offset="0" stop-color="#fff8c7"/>
			<stop offset=".156" stop-color="#ffe436"/>
			<stop offset="1" stop-color="#fe761c"/>
		</radialGradient>
		<radialGradient id="g9" cx="0" cy="0" r="1" gradientUnits="userSpaceOnUse" gradientTransform="matrix(-54.757,-91.261,91.261,-54.757,855.052,865.096)">
			<stop offset="0" stop-color="#fff8c7"/>
			<stop offset=".156" stop-color="#ffe436"/>
			<stop offset="1" stop-color="#fe761c"/>
		</radialGradient>
		<radialGradient id="g10" cx="0" cy="0" r="1" gradientUnits="userSpaceOnUse" gradientTransform="matrix(-103.246,-25.811,25.811,-103.246,1004.257,519.094)">
			<stop offset="0" stop-color="#fff8c7"/>
			<stop offset=".156" stop-color="#ffe436"/>
			<stop offset="1" stop-color="#fe761c"/>
		</radialGradient>
		<radialGradient id="g11" cx="0" cy="0" r="1" gradientUnits="userSpaceOnUse" gradientTransform="matrix(-91.259,54.756,-54.756,-91.259,865.099,168.931)">
			<stop offset="0" stop-color="#fff8c7"/>
			<stop offset=".156" stop-color="#ffe436"/>
			<stop offset="1" stop-color="#fe761c"/>
		</radialGradient>
	</defs>
	<style>
		.s0 { fill: url(#g1) } 
		.s1 { mix-blend-mode: overlay;fill: url(#g2) } 
		.s2 { opacity: .4;mix-blend-mode: overlay;fill: url(#g3) } 
		.s3 { fill: url(#g4) } 
		.s4 { fill: url(#g5) } 
		.s5 { fill: url(#g6) } 
		.s6 { fill: url(#g7) } 
		.s7 { fill: url(#g8) } 
		.s8 { fill: url(#g9) } 
		.s9 { fill: url(#g10) } 
		.s10 { fill: url(#g11) } 
	</style>
	<g id="&lt;Group&gt;">
		<path id="&lt;Path&gt;" fill-rule="evenodd" class="s0" d="m512 834.2c-178.2 0-322.2-144.1-322.2-322.2 0-178.2 144-322.2 322.2-322.2 178.2 0 322.2 144 322.2 322.2 0 178.1-144 322.2-322.2 322.2z"/>
		<g id="&lt;Group&gt;">
			<path id="&lt;Path&gt;" fill-rule="evenodd" class="s1" d="m561.1 478.8c-82.1-66.6-114.1-167.9-71.6-226.4 42.6-58.5 143.6-51.9 225.7 14.6 82 66.6 114 168 71.5 226.4-42.6 58.5-143.6 51.9-225.6-14.6z"/>
			<path id="&lt;Path&gt;" fill-rule="evenodd" class="s2" d="m227.2 583.2c10.9-35.7 66.1-20.9 123.5 33 57.3 53.8 95 126.3 84.1 162-10.8 35.6-66.1 20.9-123.4-33-57.3-53.9-95-126.4-84.2-162z"/>
		</g>
		<path id="&lt;Path&gt;" fill-rule="evenodd" class="s3" d="m551.1 94.5c0 21.6-17.5 39.1-39.1 39.1-21.6 0-39.1-17.5-39.1-39.1v-55.4c0-21.6 17.5-39.1 39.1-39.1 21.6 0 39.1 17.5 39.1 39.1z"/>
		<path id="&lt;Path&gt;" fill-rule="evenodd" class="s4" d="m244.4 189.2c15.3 15.2 15.3 40 0 55.2-15.2 15.3-40 15.3-55.2 0l-39.2-39.2c-15.3-15.2-15.3-40 0-55.2 15.2-15.3 40-15.3 55.2 0z"/>
		<path id="&lt;Path&gt;" fill-rule="evenodd" class="s5" d="m94.5 472.9c21.6 0 39.1 17.5 39.1 39.1 0 21.6-17.5 39.1-39.1 39.1h-55.4c-21.6 0-39.1-17.5-39.1-39.1 0-21.6 17.5-39.1 39.1-39.1z"/>
		<path id="&lt;Path&gt;" fill-rule="evenodd" class="s6" d="m189.2 779.6c15.3-15.3 40-15.3 55.2 0 15.3 15.2 15.3 39.9 0 55.2l-39.2 39.2c-15.2 15.3-40 15.3-55.2 0-15.3-15.2-15.3-40 0-55.2z"/>
		<path id="&lt;Path&gt;" fill-rule="evenodd" class="s7" d="m472.9 929.5c0-21.6 17.5-39.1 39.1-39.1 21.6 0 39.1 17.5 39.1 39.1v55.4c0 21.6-17.5 39.1-39.1 39.1-21.6 0-39.1-17.5-39.1-39.1z"/>
		<path id="&lt;Path&gt;" fill-rule="evenodd" class="s8" d="m779.6 834.8c-15.3-15.3-15.3-40 0-55.2 15.2-15.3 39.9-15.3 55.2 0l39.2 39.1c15.3 15.3 15.3 40 0.1 55.3-15.3 15.3-40.1 15.3-55.3 0z"/>
		<path id="&lt;Path&gt;" fill-rule="evenodd" class="s9" d="m929.5 551.1c-21.6 0-39.1-17.5-39.1-39.1 0-21.6 17.5-39.1 39.1-39.1h55.4c21.6 0 39.1 17.5 39.1 39.1 0 21.6-17.5 39-39.1 39.1z"/>
		<path id="&lt;Path&gt;" fill-rule="evenodd" class="s10" d="m834.8 244.4c-15.3 15.3-40 15.3-55.2 0-15.3-15.3-15.3-40 0-55.2l39.1-39.2c15.3-15.3 40.1-15.3 55.3-0.1 15.3 15.3 15.3 40 0 55.3z"/>
	</g>
</svg>