<svg version="1.2" xmlns="http://www.w3.org/2000/svg" viewBox="-312 -303 1024 1024" width="1024" height="1024">
	<title>5544715</title>
	<defs>
		<clipPath clipPathUnits="userSpaceOnUse" id="cp1">
			<path d="m-69.75 322.09l0.91-4.21c10.28-47.76 57.34-78.14 105.1-67.86 47.76 10.29 78.15 57.34 67.86 105.11-2.58 12-7.77 23.27-14.43 32.71l-2.5 3.51z"/>
		</clipPath>
		<linearGradient id="g1" x2="1" gradientUnits="userSpaceOnUse" gradientTransform="matrix(-62.12,-27.416,31.013,-70.27,302.865,88.677)">
			<stop offset="0" stop-color="#ffffff"/>
			<stop offset="1" stop-color="#ff9222"/>
		</linearGradient>
		<linearGradient id="g2" x2="1" gradientUnits="userSpaceOnUse" gradientTransform="matrix(-34.031,-15.019,14.168,-32.104,93.973,381.823)">
			<stop offset="0" stop-color="#ffffff"/>
			<stop offset="1" stop-color="#ff9222"/>
		</linearGradient>
		<clipPath clipPathUnits="userSpaceOnUse" id="cp2">
			<path d="m44.41 637.87l-7.41 8.89c-6.66 7.99-18.56 9.07-26.56 2.4-6.55-5.46-8.45-14.46-5.24-21.93l4.56-10.63z"/>
		</clipPath>
		<linearGradient id="g3" x2="1" gradientUnits="userSpaceOnUse" gradientTransform="matrix(-7.309,-4.482,9.493,-15.481,44.41,637.872)">
			<stop offset="0" stop-color="#ffffff"/>
			<stop offset="1" stop-color="#ff9222"/>
		</linearGradient>
		<clipPath clipPathUnits="userSpaceOnUse" id="cp3">
			<path d="m265.79 322.09l0.91-4.21c10.28-47.76 57.34-78.14 105.1-67.86 47.76 10.29 78.15 57.34 67.86 105.11-2.58 12-7.77 23.27-14.44 32.71l-2.49 3.51z"/>
		</clipPath>
		<linearGradient id="g4" x2="1" gradientUnits="userSpaceOnUse" gradientTransform="matrix(-62.119,-27.416,31.013,-70.269,638.401,88.677)">
			<stop offset="0" stop-color="#ffffff"/>
			<stop offset="1" stop-color="#ff9222"/>
		</linearGradient>
		<linearGradient id="g5" x2="1" gradientUnits="userSpaceOnUse" gradientTransform="matrix(-34.031,-15.019,14.17,-32.107,429.509,381.823)">
			<stop offset="0" stop-color="#ffffff"/>
			<stop offset="1" stop-color="#ff9222"/>
		</linearGradient>
		<clipPath clipPathUnits="userSpaceOnUse" id="cp4">
			<path d="m379.92 637.87l-7.4 8.89c-6.67 7.99-18.56 9.07-26.56 2.4-6.56-5.46-8.45-14.46-5.25-21.93l4.57-10.63z"/>
		</clipPath>
		<linearGradient id="g6" x2="1" gradientUnits="userSpaceOnUse" gradientTransform="matrix(-7.31,-4.482,9.493,-15.484,379.923,637.872)">
			<stop offset="0" stop-color="#ffffff"/>
			<stop offset="1" stop-color="#ff9222"/>
		</linearGradient>
		<radialGradient id="g7" cx="0" cy="0" r="1" gradientUnits="userSpaceOnUse" gradientTransform="matrix(582.171,650.654,650.654,-582.171,-91.661,-190.976)">
			<stop offset="0" stop-color="#bad0d6"/>
			<stop offset=".198" stop-color="#9bbac2"/>
			<stop offset="1" stop-color="#5d8bb8"/>
		</radialGradient>
		<radialGradient id="g8" cx="0" cy="0" r="1" gradientUnits="userSpaceOnUse" gradientTransform="matrix(85.976,118.186,165.825,-134.475,-90.854,-69.672)">
			<stop offset="0" stop-color="#ffffff"/>
			<stop offset="1" stop-color="#ffffff" stop-opacity="0"/>
		</radialGradient>
		<radialGradient id="g9" cx="0" cy="0" r="1" gradientUnits="userSpaceOnUse" gradientTransform="matrix(47.253,64.956,91.139,-73.909,408.601,80.036)">
			<stop offset="0" stop-color="#ffffff"/>
			<stop offset="1" stop-color="#ffffff" stop-opacity="0"/>
		</radialGradient>
		<radialGradient id="g10" cx="0" cy="0" r="1" gradientUnits="userSpaceOnUse" gradientTransform="matrix(-41.541,-26.982,-82.374,107.801,595.012,286.362)">
			<stop offset="0" stop-color="#ffffff"/>
			<stop offset="1" stop-color="#ffffff" stop-opacity="0"/>
		</radialGradient>
		<radialGradient id="g11" cx="0" cy="0" r="1" gradientUnits="userSpaceOnUse" gradientTransform="matrix(78.293,-84.925,84.925,78.293,-140.403,436.057)">
			<stop offset="0" stop-color="#d4f6ff"/>
			<stop offset=".198" stop-color="#d9f7ff"/>
			<stop offset="1" stop-color="#89c0f5"/>
		</radialGradient>
		<radialGradient id="g12" cx="0" cy="0" r="1" gradientUnits="userSpaceOnUse" gradientTransform="matrix(-23.589,10.484,-13.488,-35.213,-134.306,428.524)">
			<stop offset="0" stop-color="#ffffff"/>
			<stop offset="1" stop-color="#ffffff" stop-opacity="0"/>
		</radialGradient>
		<radialGradient id="g13" cx="0" cy="0" r="1" gradientUnits="userSpaceOnUse" gradientTransform="matrix(78.293,-84.925,84.925,78.293,61.572,436.047)">
			<stop offset="0" stop-color="#d4f6ff"/>
			<stop offset=".198" stop-color="#d9f7ff"/>
			<stop offset="1" stop-color="#89c0f5"/>
		</radialGradient>
		<radialGradient id="g14" cx="0" cy="0" r="1" gradientUnits="userSpaceOnUse" gradientTransform="matrix(-23.583,10.482,-13.485,-35.204,67.675,428.524)">
			<stop offset="0" stop-color="#ffffff"/>
			<stop offset="1" stop-color="#ffffff" stop-opacity="0"/>
		</radialGradient>
		<radialGradient id="g15" cx="0" cy="0" r="1" gradientUnits="userSpaceOnUse" gradientTransform="matrix(78.292,-84.925,84.925,78.292,263.563,436.049)">
			<stop offset="0" stop-color="#d4f6ff"/>
			<stop offset=".198" stop-color="#d9f7ff"/>
			<stop offset="1" stop-color="#89c0f5"/>
		</radialGradient>
		<radialGradient id="g16" cx="0" cy="0" r="1" gradientUnits="userSpaceOnUse" gradientTransform="matrix(-23.583,10.482,-13.485,-35.204,269.667,428.524)">
			<stop offset="0" stop-color="#ffffff"/>
			<stop offset="1" stop-color="#ffffff" stop-opacity="0"/>
		</radialGradient>
		<radialGradient id="g17" cx="0" cy="0" r="1" gradientUnits="userSpaceOnUse" gradientTransform="matrix(78.292,-84.925,84.925,78.292,465.544,436.049)">
			<stop offset="0" stop-color="#d4f6ff"/>
			<stop offset=".198" stop-color="#d9f7ff"/>
			<stop offset="1" stop-color="#89c0f5"/>
		</radialGradient>
		<radialGradient id="g18" cx="0" cy="0" r="1" gradientUnits="userSpaceOnUse" gradientTransform="matrix(-23.583,10.482,-13.485,-35.204,471.648,428.524)">
			<stop offset="0" stop-color="#ffffff"/>
			<stop offset="1" stop-color="#ffffff" stop-opacity="0"/>
		</radialGradient>
	</defs>
	<style>
		.s0 { fill: url(#g1) } 
		.s1 { fill: url(#g2) } 
		.s2 { fill: url(#g3) } 
		.s3 { fill: url(#g4) } 
		.s4 { fill: url(#g5) } 
		.s5 { fill: url(#g6) } 
		.s6 { fill: url(#g7) } 
		.s7 { opacity: .5;mix-blend-mode: overlay;fill: url(#g8) } 
		.s8 { opacity: .3;mix-blend-mode: overlay;fill: url(#g9) } 
		.s9 { opacity: .2;mix-blend-mode: overlay;fill: url(#g10) } 
		.s10 { fill: url(#g11) } 
		.s11 { mix-blend-mode: overlay;fill: url(#g12) } 
		.s12 { fill: url(#g13) } 
		.s13 { mix-blend-mode: overlay;fill: url(#g14) } 
		.s14 { fill: url(#g15) } 
		.s15 { mix-blend-mode: overlay;fill: url(#g16) } 
		.s16 { fill: url(#g17) } 
		.s17 { mix-blend-mode: overlay;fill: url(#g18) } 
	</style>
	<g id="OBJECTS">
		<g id="&lt;Group&gt;">
			<g id="&lt;Group&gt;">
				<g id="&lt;Group&gt;">
					<g id="&lt;Group&gt;">
						<g id="&lt;Clip Group&gt;" clip-path="url(#cp1)">
							<path id="&lt;Mesh&gt;" fill-rule="evenodd" class="s0" d="m302.9 88.7q-62.2-27.4-62.2-27.4l-180.8 305.5q0 0 34.1 15zm-208.9 293.2q-34-15-34-15l-3.8 6.2q0 0 33.5 14.8zm-4.3 6q-33.4-14.8-33.4-14.8l-2.2 3.7q0 0 33.1 14.6zm151.1-326.6l-62.2-27.4-152.7 318 34.1 15zm-180.8 305.5l-34.1-15-3.1 6.5 33.5 14.8zm-3.8 6.3l-33.4-14.8-1.8 3.8 33.1 14.6zm122.4-339.2l-62.1-27.4-124.7 330.3 34.1 15zm-152.7 317.9l-34.1-15-2.5 6.8 33.4 14.8zm-3.1 6.5l-33.5-14.8-1.4 4 33.1 14.6zm93.7-351.9l-62.1-27.4-96.5 342.8 34 15zm-124.6 330.3l-34.1-15-1.9 7 33.4 14.8zm-2.6 6.8l-33.4-14.8-1.2 4.1 33.2 14.6zm65-364.5l-11.5-5.1-91.3 345 6.3 2.8zm-96.5 342.7l-6.3-2.7-1.9 7 6.2 2.8zm-2 7l-6.2-2.7-1.1 4.1 6.2 2.7zm87-354.8l-11.5-5.1-86.1 347.3 6.3 2.8zm-91.4 345l-6.3-2.8-1.7 7.2 6.1 2.7zm-1.8 7.1l-6.2-2.8-1 4.2 6.1 2.7zm81.7-357.2l-11.5-5-80.9 349.6 6.3 2.7zm-86.2 347.3l-6.3-2.7-1.6 7.1 6.2 2.8zm-1.8 7.1l-6.2-2.7-1 4.1 6.2 2.8zm76.4-359.6q0 0-11.5-5l-75.7 351.9q6.2 2.7 6.2 2.7zm-80.9 349.6q0 0-6.3-2.7l-1.5 7.2q6.1 2.7 6.1 2.7zm-1.6 7.2q0 0-6.2-2.7l-0.9 4.2q6.1 2.7 6.1 2.7z"/>
						</g>
						<path id="&lt;Mesh&gt;" fill-rule="evenodd" class="s1" d="m94 381.8q-34.1-15-34.1-15-3.7 6.3-3.7 6.3 0 0 33.5 14.7 0 0 4.3-6zm-4.3 6q-33.5-14.7-33.5-14.7l-2.1 3.6q0 0 33.1 14.6zm-2.5 3.5q-33.1-14.6-33.1-14.6l-1.6 2.6q0 0 32.9 14.6zm-1.8 2.5q-32.9-14.5-32.9-14.5l-3.7 6.2q0 0 32.3 14.3zm-4.3 6q-32.3-14.2-32.3-14.2l-3.7 6.2q0 0 31.7 14zm-4.2 6.1q-31.8-14-31.8-14.1l-3.7 6.3q0 0 31.2 13.8zm-4.3 6q-31.2-13.8-31.2-13.7l-3.7 6.2q0 0 30.6 13.5zm-4.3 6q-30.6-13.5-30.6-13.5l-3.7 6.3q0 0 30 13.2zm-4.3 6.1q-30-13.3-30-13.3l-3.7 6.3q0 0 29.4 13zm-4.3 6q-29.4-13-29.4-13l-3.7 6.3q0 0 28.9 12.7zm-4.3 6q-28.9-12.7-28.9-12.7c0 0-0.9 1.6-1.8 3.2-1 1.5-0.8 1.6-1 1.8q0 0 29 11.5zm-2.7 3.8q-29-11.5-29-11.5l-1.2 2.8q0 0 30.2 8.7zm0 0q-30.2-8.7-30.2-8.7l-1.2 2.8q0 0 31.4 5.9zm0 0q-31.4-5.9-31.4-5.9l-1.3 2.8q0 0 32.7 3.1zm0 0q-32.7-3.1-32.7-3.1l-1.2 2.8q0 0 33.9 0.3zm0 0q-33.9-0.3-33.9-0.3l-1.2 2.8q0 0 35.1-2.5zm0 0q-43.1 20.4-43.1 20.4 0 0.1 0 0.1 0 0 0.1 0 0 0 43-20.5 0 0 0 0zm0 0q-41.5 16.9-41.5 16.9l-1.6 3.5q0 0 43.1-20.4zm0 0q-40.2 14-40.2 14l-1.3 2.9q0 0 41.5-16.9zm0 0q-38.9 11.1-38.9 11.1l-1.3 2.9q0 0 40.2-14zm0 0q-37.6 8.2-37.6 8.2l-1.3 2.9q0 0 38.9-11.1zm0 0q-36.4 5.2-36.4 5.3l-1.2 2.9q0 0 37.6-8.2zm0 0q-35.1 2.5-35.1 2.5l-1.3 2.8q0-0.1 36.4-5.3zm0 0q-43 20.5-43 20.5l3.4-0.1q0 0 38.7-20.5zm-0.9 0q-38.7 20.5-38.7 20.5l4.5-0.1q0 0 33-20.5zm-1.2-0.1q-33 20.5-33 20.5h4.5q0 0 27.4-20.6zm-1.2-0.1q-27.3 20.6-27.3 20.6h4.5q0-0.1 21.6-20.7zm-1.1 0q-21.7 20.6-21.7 20.6l4.5-0.1q0 0 16-20.6zm-1.2-0.1q-16 20.6-16 20.6h4.6q-0.1 0 10.2-20.7zm-1.1-0.1q-10.3 20.7-10.3 20.7l4.5-0.1q0 0 4.6-20.7zm-1.7-0.1c-0.8-0.1 0 0-0.1 0 0.3 0 0.6 0 0.6 0q-4.6 20.8-4.6 20.8c0.3 0 3.6-0.2 6 0q0 0 0-20.7c0 0-0.8 0-1.9-0.1zm1.9 0.1q0 20.7 0 20.7l12.3 0.5q0 0 0-20.2zm12.2 0.9q0 20.3 0 20.3l12.3 0.5q0 0 0-19.9zm12.3 0.9q0 19.9 0 19.9l12.3 0.5q0 0 0-19.5zm12.3 0.9q0 19.5 0 19.5l13.2 0.6q0 0 0-19.1zm13.3 1q0 19.1 0 19.1l13.2 0.6q0 0 0-18.7zm13.3 1q0 18.6 0 18.6l2.8 0.2q0 0 0-18.6zm40.5 67.3c5.2-6.3 8.6-14.2 9.3-23 1.6-22.3-15.1-41.8-37.5-43.4l-9.4-0.7q0 0-0.1 0 0 18.6 0 18.6 0.1 0 0.1 0l3.2 0.1c13.4 0.6 23.8 11.9 23.2 25.3-0.2 5-1.9 9.6-4.7 13.4q0 0 0 0.1 0-0.1 15.8 9.7 0-0.1 0.1-0.1zm-0.1 0.1q-15.8-9.8-15.8-9.7l-5.9 7.8q0 0 15.4 9.5zm-6.3 7.5q-15.4-9.4-15.4-9.4l-7.5 10.2q0 0 14.7 9.1zm-8.2 9.8q-14.7-9-14.7-9l-7.5 10.2q0 0 14 8.6zm-8.2 9.8q-14-8.6-14-8.6l-7.5 10.3q0 0 13.3 8.2zm-8.2 9.8q-13.3-8.2-13.3-8.2l-7.6 10.2q0 0 12.7 7.8zm-8.2 9.8q-12.7-7.7-12.7-7.7l-7.5 10.2q0 0 12 7.4zm-8.2 9.8q-12-7.4-12-7.4l-7.5 10.3q0 0 11.3 6.9zm-8.2 9.9q-11.3-7-11.3-7l-7.6 10.2q0 0 10.7 6.6zm-8.2 9.8q-10.6-6.5-10.6-6.5l-7.6 10.2q0 0 10 6.2zm-8.1 9.8q-10.1-6.2-10.1-6.2l-7.5 10.3q0 0 9.4 5.7zm-8.2 9.8q-9.4-5.7-9.4-5.7l-7.5 10.2q0 0 8.7 5.4zm-8.2 9.8q-8.7-5.3-8.7-5.3l-7.6 10.2q0 0 8.1 4.9zm-8.2 9.8q-8-4.9-8-4.9l-7.6 10.3q0-0.1 7.4 4.5zm-8.2 9.8q-7.4-4.5-7.4-4.5l-0.7 1q0 0 7.3 4.5zm-0.8 0.9q-7.3-4.5-7.3-4.5 0 0-6.8 9.3 0 0 6.7 4.1 7.4-8.9 7.4-8.9zm15.5-271.1l-34-15q-3.1 6.5-3.1 6.5l33.4 14.8q0 0 3.7-6.3zm-3.7 6.3l-33.4-14.8-1.8 3.8 33.1 14.7zm-2.2 3.6l-33.1-14.6-1.3 2.7 32.9 14.5zm-1.6 2.7l-32.9-14.6-3.1 6.6 32.3 14.2zm-3.7 6.3l-32.3-14.2-3.1 6.5 31.7 14zm-3.7 6.2l-31.8-14-3.1 6.6 31.2 13.7zm-3.7 6.3l-31.2-13.7-3.1 6.5 30.5 13.5zm-3.7 6.3l-30.5-13.5-3.2 6.5 30 13.2zm-3.7 6.3l-30-13.2-3.1 6.5 29.4 13zm-3.7 6.2l-29.4-12.9-3.2 6.5 28.9 12.7zm-5.6 9.4c0.9-1.6 1.9-3.1 1.9-3.1l-28.9-12.7-2.9 6.1 29 11.6c0.1-0.2 0-0.3 0.9-1.9zm-0.9 1.9l-29-11.6-2.4 5.6 30.1 8.8zm-1.2 2.8l-30.2-8.8-2.4 5.6 31.4 6zm-1.3 2.7l-31.4-5.9-2.4 5.6 32.6 3.1zm-1.2 2.8l-32.7-3.1-2.4 5.6 33.8 0.3zm-1.2 2.8l-33.9-0.3-2.4 5.6 35.1-2.5zm-1.3 2.8l-35.1 2.5-2.4 5.5 36.3-5.2zm-1.2 2.8l-36.4 5.2-2.5 5.9 37.6-8.2zm-1.3 2.9l-37.6 8.2-2.6 5.8 38.9-11.1zm-1.3 2.9l-38.9 11.1-2.5 5.8 40.1-13.9zm-1.2 2.9l-40.2 13.9-2.6 5.9 41.5-16.9zm-1.3 2.9l-41.5 16.9-3.1 7 43-20.4zm-1.6 3.6q0.1 0 0.1 0l-43.1 20.4q0 0 0 0.1 0 0 0 0 0 0 0.1 0l43-20.5q0 0-0.1 0zm0.1 0l-43 20.5h7.7l38.7-20.5zm3.4-0.1l-38.7 20.5h10.2l33-20.5zm4.5-0.1l-33 20.6 10.2-0.1 27.4-20.5zm4.5-0.1l-27.4 20.6h10.2l21.7-20.6zm4.5-0.1l-21.7 20.6h10.2l16-20.6zm4.5-0.1l-16 20.7h10.2l10.3-20.7zm4.5-0.1l-10.3 20.7h10.2l4.6-20.7zm4.5-0.1l-4.6 20.7 10.6 0.1v-20.7c-2.4-0.2-5.7-0.1-6-0.1zm6 0.1v20.7l12.3 0.1v-20.3zm12.2 0.5v20.3l12.3 0.2v-19.9zm12.3 0.5v19.9l12.3 0.1v-19.5zm12.3 0.5v19.6l13.2 0.1v-19.1zm13.3 0.6v19.1l13.3 0.1v-18.6zm13.2 0.5v18.7l2.8 0.1v-18.6zm24.6 38.9c2.8-3.8 4.5-8.4 4.7-13.4 0.6-13.4-9.8-24.7-23.2-25.3l-3.2-0.1q0 0-0.1 0v18.6q0.1 0 0.1 0h0.3c3.7 0 6.7 3.1 6.7 6.8 0 1.4-0.5 2.6-1.1 3.6q0 0.1-0.1 0.1l15.9 9.8q0-0.1 0-0.1zm0 0.1l-15.9-9.8-5.3 8.2 15.4 9.4zm-5.9 7.9l-15.3-9.4-6.9 10.7 14.7 9zm-7.5 10.2l-14.7-9-6.8 10.6 14 8.6zm-7.6 10.3l-14-8.6-6.8 10.6 13.3 8.2zm-7.5 10.2l-13.4-8.1-6.8 10.6 12.6 7.8zm-7.5 10.2l-12.7-7.8-6.8 10.7 12 7.4zm-7.6 10.2l-12-7.4-6.9 10.7 11.4 6.9zm-7.5 10.3l-11.4-7-6.8 10.6 10.6 6.6zm-7.5 10.2l-10.7-6.5-6.9 10.6 10.1 6.2zm-7.6 10.2l-10-6.2-6.9 10.7 9.4 5.7zm-7.5 10.3l-9.4-5.8-6.8 10.7 8.7 5.3zm-7.6 10.2l-8.7-5.3-6.9 10.6 8.1 5zm-7.5 10.2l-8.1-4.9-6.9 10.6 7.4 4.6zm-7.5 10.2l-7.4-4.5-0.6 1 7.3 4.5zm-0.8 1l-7.3-4.5q0 0-6.2 9.6l6.7 4.1q6.8-9.2 6.8-9.2zm-11.1-281.6l-34.1-15q-2.5 6.7-2.5 6.7l33.4 14.8q0 0 3.2-6.5zm-3.2 6.5l-33.4-14.8-1.5 4 33.1 14.6zm-1.8 3.8l-33.1-14.6-1.1 2.8 32.9 14.5zm-1.3 2.7l-32.9-14.5-2.6 6.8 32.3 14.3zm-3.1 6.5l-32.3-14.2-2.6 6.7 31.7 14zm-3.1 6.6l-31.7-14-2.6 6.7 31.2 13.8zm-3.2 6.5l-31.1-13.7-2.6 6.8 30.6 13.4zm-3.1 6.6l-30.6-13.5-2.6 6.8 30 13.2zm-3.1 6.5l-30-13.2-2.5 6.8 29.4 12.9zm-3.2 6.6l-29.4-13-2.5 6.8 28.8 12.7zm-3.1 6.5l-28.9-12.7-2.5 6.8 28.5 12.1zm-2.9 6.2l-28.5-12.1-2.6 6.8 28.6 10.9zm-2.5 5.6l-28.6-11-2.5 6.8 28.7 9.8zm-2.5 5.6l-28.7-9.8-2.5 6.8 28.8 8.5zm-2.5 5.6l-28.8-8.5-2.6 6.8 28.9 7.3zm-2.4 5.6l-28.9-7.3-2.6 6.7 29 6.2zm-2.5 5.6l-28.9-6.2-2.6 6.8 29.1 5zm-2.5 5.6l-29.1-5-2.6 7.1 29.1 3.7zm-2.6 5.8l-29.1-3.7-2.7 7.1 29.3 2.4zm-2.6 5.8l-29.2-2.4-2.7 7 29.3 1.3zm-2.5 5.8l-29.4-1.2-2.6 7h29.4zm-2.6 5.8h-29.4l-3.3 8.6 29.6-1.5zm-3.2 7.2q0 0 0 0 0.1-0.1 0.1-0.1l-29.6 1.5q0 0.1 0 0.1l-0.4 1.1c-2.9 7.6 1 16.1 8.6 18.9 1.7 0.7 3.6 1 5.4 1q0.1 0 0.2 0l15.8-22.5q0 0-0.1 0zm0.1 0l-15.8 22.5 9.3-0.2 14.3-22.3zm7.7 0l-14.3 22.3 12.3-0.3 12.2-22zm10.2-0.1l-12.2 22.1 12.3-0.2 10.1-21.9zm10.2 0l-10.1 21.9 12.2-0.3 8-21.6zm10.2 0l-8 21.6 12.3-0.2 5.9-21.4zm10.2 0l-5.9 21.3 12.3-0.2 3.8-21.2zm10.2 0l-3.8 21.2 12.2-0.3 1.7-20.9zm10.2 0l-1.7 20.9 12.3-0.2v-20.7zm10.6 0v20.7c0 0 3.1 0 6.1-0.1 2.2 0 4.4 0 4.4 0l1.8-20.4zm12.3 0.1l-1.8 20.4 8.5 0.1 5.6-20.3zm12.2 0.1l-5.5 20.3 8.6 0.1 9.2-20.2zm12.3 0.1l-9.2 20.2h9.2l13.3-20.1zm13.2 0.2l-13.3 20.1h9.2l17.4-19.9zm13.2 0.1l-17.3 20h1.9l18.2-20zm8.8 10.5c0.7-1 1.1-2.2 1.1-3.6 0-3.7-3-6.8-6.7-6.8h-0.3q0 0-0.1 0l-18.2 19.9q0.1 0 0.1 0 0 0.1 0 0.1l24-9.5q0.1 0 0.1-0.1zm-0.1 0.1l-24 9.5-3.8 6.1 22.5-7.4zm-5.2 8.2l-22.6 7.4-4.8 7.9 20.5-4.6zm-6.9 10.6l-20.5 4.7-4.9 7.9 18.5-1.9zm-6.8 10.6l-18.5 1.9-4.9 7.9 16.5 0.8zm-6.9 10.7l-16.5-0.8-4.8 7.9 14.5 3.5zm-6.9 10.7l-14.5-3.5-4.9 7.9 12.5 6.2zm-6.8 10.7l-12.5-6.3c-0.1 0.2-1.1 1.6-2.7 4.4-1.5 2.8-3.1 5.5-3.1 5.5l11.4 7zm-6.9 10.6l-11.3-6.9-6.2 11 10.7 6.6zm-6.9 10.6l-10.7-6.5-6.2 11 10 6.2zm-6.8 10.6l-10.1-6.1-6.2 11 9.4 5.8zm-6.9 10.6l-9.4-5.7-6.2 11 8.7 5.4zm-6.8 10.6l-8.7-5.3-6.2 11 8 4.9zm-6.9 10.7l-8-5-6.2 11.1 7.4 4.5zm-6.9 10.7l-7.4-4.6-0.6 1.1 7.3 4.5zm-0.6 1l-7.3-4.5q0 0-5.6 10l6.7 4.1q6.2-9.6 6.2-9.6zm-37.9-292.1l-34.1-15q-1.9 7-1.9 7l33.4 14.8q0 0 2.6-6.8zm-2.6 6.8l-33.4-14.8-1.2 4.1 33.1 14.6zm-1.5 3.9l-33.1-14.6-0.8 3 32.9 14.5zm-1.1 2.8l-32.9-14.5-2 7.1 32.4 14.2zm-2.6 6.8l-32.3-14.3-2 7.1 31.7 14zm-2.5 6.7l-31.8-13.9-1.9 7 31.1 13.7zm-2.5 6.8l-31.2-13.7-2 7 30.6 13.5zm-2.6 6.8l-30.5-13.5-2 7 30 13.3zm-2.6 6.7l-30-13.2-2 7 29.5 13zm-2.6 6.8l-29.4-13-2 7.1 28.8 12.7zm-2.5 6.8l-28.9-12.7-1.9 7 28.2 12.5zm-2.5 6.8l-28.3-12.5-2 7 27.7 12.2zm-2.6 6.8l-27.6-12.2-2 7 27.1 12zm-2.6 6.8l-27.1-12-2 7 26.6 11.8zm-2.6 6.7l-26.5-11.7-2 7.1 26 11.4zm-2.6 6.8l-26-11.5-1.9 7.1 25.3 11.2zm-2.5 6.8l-25.4-11.2-2 7 24.8 10.9zm-2.5 6.8l-24.8-10.9-2.1 7.3 24.2 10.7zm-2.7 7.1l-24.2-10.7-2 7.3 23.6 10.4zm-2.7 7.1l-23.6-10.4-2.1 7.3 23 10.2zm-2.6 7l-23-10.1-2.1 7.3 22.4 9.9zm-2.6 7l-22.4-9.8-2.6 8.9 21.7 9.5zm10.4 66.5c-4.6 0.3-9.5-0.1-14.2-1.1-26.1-6.1-42.3-32.1-36.2-58.1l3.1-13.4q0-0.1 0-0.1 0 0-4-1.8 0 0.1 0 0.1l-3.5 15.9c-6 28.1 11.9 55.8 40 61.8 4.9 1.1 10 1.4 14.8 1q0 0 0.1 0 0-4.3 0-4.3-0.1 0-0.1 0zm0.1-36.8v23.7l9.3-0.5v-23.4zm9.3-0.2v23.4l12.3-0.6v-23zm12.3-0.3v23l12.3-0.6v-22.6zm12.3-0.3v22.6l12.3-0.6v-22.2zm12.2-0.2v22.2l12.3-0.6v-21.9zm12.3-0.2v21.8l12.3-0.6v-21.5zm12.3-0.2v21.4l12.3-0.6v-21.1zm12.3-0.2v21l12.2-0.6v-20.7zm18.5-0.3c-3.1 0-6.2 0.1-6.2 0.1v20.7c0 0 3.1-0.2 6.2-0.3 0.8 0 1.6 0 1.6 0l2.8-20.5c0 0-2.2 0-4.4 0zm4.4 0l-2.8 20.5 2.6 0.1 8.7-20.6zm8.5 0.1l-8.7 20.5 2.6 0.1 14.7-20.6zm8.5 0l-14.7 20.7 2.8 0.1 21.1-20.7zm9.2 0l-21.1 20.7 2.8 0.1 27.5-20.7zm9.2 0l-27.5 20.7h0.6l28.8-20.7zm2.1 0q-0.1 0-0.1 0l-28.9 20.8q0 0 0 0 0 0 0 0l28.9-20.7q0-0.1 0.1-0.1zm-0.1 0.1l-28.9 20.7-1.6 2.6 26.8-17.2zm-3.8 6.1l-26.7 17.2-2.1 3.4 24-12.7zm-4.9 7.9l-24 12.7-2 3.3 21.1-8.1zm-4.8 8l-21.2 8.1-2 3.3 18.3-3.5zm-4.8 7.9l-18.4 3.5-2.1 3.4 15.6 1zm-4.9 8l-15.5-1.1-2.1 3.4 12.8 5.6zm-7.5 12.3c1.6-2.9 2.5-4.2 2.6-4.4l-12.8-5.6c0 0-0.1 0.2-0.3 0.5-0.2 0.4-0.3 0.5-1.2 2.3-1.4 2.9-2.7 5.7-2.7 5.7l11.3 7c0 0 1.6-2.8 3.1-5.5zm-3.1 5.5l-11.3-7-5.6 11.5 10.7 6.6zm-6.2 11l-10.7-6.6-5.5 11.5 10 6.2zm-6.2 11l-10-6.2-5.6 11.5 9.4 5.8zm-6.2 11l-9.4-5.7-5.5 11.4 8.7 5.4zm-6.2 11l-8.7-5.3-5.6 11.4 8 5zm-6.2 11l-8-4.9-5.5 11.4 7.3 4.5zm-6.2 11.1l-7.3-4.5-0.6 1.1 7.3 4.5zm-0.6 1l-7.3-4.5q0 0-5 10.4l6.7 4.1q5.6-10 5.6-10zm-64.6-302.6l-6.3-2.8q-1.8 7.1-1.8 7.1l6.1 2.7q0 0 2-7zm-2 7l-6.1-2.7-1.1 4.1 6.1 2.7zm-1.2 4.1l-6.1-2.7-0.8 3 6.1 2.6zm-0.8 3l-6.1-2.7-1.9 7.1 6 2.6zm-2 7.1l-6-2.7-1.8 7.1 5.8 2.6zm-2 7l-5.8-2.6-1.9 7.1 5.8 2.6zm-2 7l-5.8-2.5-1.8 7 5.6 2.5zm-2 7.1l-5.6-2.5-1.9 7.1 5.5 2.4zm-2 7.1l-5.5-2.5-1.9 7.1 5.5 2.4zm-2 7l-5.4-2.4-1.9 7.1 5.3 2.4zm-2 7l-5.3-2.4-1.9 7.1 5.2 2.3zm-1.9 7.1l-5.3-2.3-1.8 7 5.1 2.3zm-2 7l-5.1-2.2-1.9 7.1 5 2.2zm-2 7l-5-2.2-1.8 7.1 4.9 2.2zm-2 7l-4.9-2.2-1.9 7.1 4.8 2.1zm-2 7.1l-4.8-2.2-1.9 7.1 4.7 2.1zm-2 7l-4.6-2-1.9 7.1 4.6 2zm-2 7l-4.6-2-1.9 7.4 4.4 1.9zm-2 7.4l-4.5-2-2 7.4 4.4 1.9zm-2.1 7.3l-4.3-1.9-2 7.4 4.3 1.8zm-2.1 7.4l-4.2-1.9-2 7.4 4.1 1.8zm-2 7.3l-4.2-1.8-2.3 9 4 1.8zm32.7 71.9c-4.3 0.3-9-0.1-13.5-1.2-23.9-5.9-38.5-30.1-32.6-54l2.8-11.2q0-0.1 0-0.2l-4-1.7q0 0 0 0.1l-3.1 13.4c-6 26.1 10.2 52 36.2 58.1 4.7 1 9.6 1.4 14.2 1.1q0.1 0 0.1 0v-4.4q0 0-0.1 0zm0.1-8.7v4.3l9.4-0.5v-4.3zm9.3-0.5v4.3l12.3-0.7v-4.2zm12.3-0.6v4.2l12.2-0.7v-4.2zm12.3-0.6v4.2l12.3-0.7v-4.1zm12.3-0.7v4.2l12.3-0.8v-4zm12.3-0.6v4l12.3-0.7v-3.9zm12.2-0.7v4l12.3-0.7v-3.9zm12.3-0.6v3.9l12.3-0.7v-3.9zm18.4-0.9c-3.1 0.1-6.1 0.3-6.1 0.3v3.8c0 0 3-0.1 6.1-0.3 1.2-0.1 1 0 1.1 0l0.6-3.8c0 0-0.9 0-1.7 0zm1.7 0l-0.6 3.8 1.5 0.1 1.6-3.8zm2.6 0.1l-1.6 3.8 1.5 0.1 2.7-3.8zm2.5 0.1l-2.7 3.8 1.6 0.1 3.9-3.8zm2.8 0.1l-3.9 3.8 1.6 0.1 5.1-3.8zm2.7 0.1l-5 3.8h0.3l5.3-3.8zm0.6 0q0 0 0 0l-5.3 3.9q0 0 0 0 0 0 0 0l5.3-3.8q0-0.1 0-0.1zm0 0.1l-5.3 3.8-1.2 1.9 4.9-3.1zm-1.6 2.6l-4.9 3.1-1.5 2.6 4.4-2.4zm-2.1 3.4l-4.4 2.3-1.6 2.6 3.9-1.5zm-2 3.3l-3.9 1.5-1.6 2.5 3.4-0.6zm-2 3.4l-3.4 0.6-1.6 2.5 2.9 0.2zm-2.1 3.4l-2.9-0.2-1.5 2.5 2.4 1zm-3.6 6.2c0.8-1.8 1-1.9 1.2-2.3 0.2-0.3 0.3-0.5 0.3-0.5l-2.4-1c0 0-0.1 0.1-0.2 0.4-0.2 0.2-0.2 0.2-1.1 2.1-1.3 2.9-2.7 5.8-2.7 5.8l2.1 1.2c0 0 1.4-2.8 2.8-5.7zm-2.8 5.7l-2.1-1.2-5.4 11.5 2 1.2zm-5.6 11.5l-2-1.3-5.4 11.6 1.9 1.1zm-5.6 11.5l-1.8-1.2-5.5 11.6 1.8 1zm-5.6 11.5l-1.7-1.1-5.4 11.6 1.6 0.9zm-5.5 11.5l-1.7-1-5.4 11.5 1.5 0.9zm-5.5 11.5l-1.5-0.9-5.4 11.5 1.3 0.9zm-5.5 11.4l-1.4-0.8-0.5 1.1 1.3 0.8zm-0.5 1.1l-1.3-0.8q0 0-4.9 10.4l1.2 0.8q5-10.4 5-10.4zm-63.6-300.9l-6.3-2.8q-1.7 7.1-1.7 7.1l6.1 2.8q0 0 1.9-7.1zm-1.9 7.1l-6.1-2.8-1.1 4.2 6.2 2.7zm-1.1 4.1l-6.2-2.7-0.7 3 6.1 2.7zm-0.8 2.9l-6.1-2.6-1.8 7.1 6 2.6zm-1.9 7.1l-5.9-2.6-1.8 7.1 5.9 2.6zm-1.9 7.1l-5.9-2.6-1.7 7.1 5.7 2.5zm-1.9 7.1l-5.7-2.5-1.8 7.1 5.7 2.5zm-1.9 7.1l-5.7-2.5-1.7 7.1 5.5 2.5zm-1.9 7.1l-5.5-2.5-1.8 7.1 5.5 2.5zm-1.9 7l-5.4-2.4-1.8 7.2 5.3 2.3zm-1.9 7.1l-5.3-2.3-1.8 7.1 5.3 2.3zm-1.9 7.1l-5.2-2.3-1.8 7.1 5.1 2.2zm-1.9 7.1l-5.1-2.2-1.7 7.1 5 2.2zm-1.9 7.1l-5-2.2-1.8 7.1 4.9 2.2zm-1.9 7.1l-4.9-2.2-1.7 7.1 4.8 2.1zm-1.9 7.1l-4.8-2.1-1.8 7.1 4.7 2.1zm-1.9 7.1l-4.7-2.1-1.7 7.2 4.6 2zm-1.9 7.1l-4.6-2.1-1.8 7.5 4.4 2zm-1.9 7.3l-4.5-1.9-1.8 7.4 4.3 1.9zm-1.9 7.4l-4.4-1.9-1.8 7.4 4.2 1.9zm-1.9 7.3l-4.3-1.8-1.8 7.4 4.1 1.8zm-1.9 7.4l-4.2-1.8-2.2 9 4 1.8zm36.9 69.4c-4.1 0.2-8.5-0.2-12.8-1.3-21.7-5.8-34.7-28.1-29-49.9l2.5-9.1q0-0.1 0-0.2l-4-1.7q0 0 0 0.1l-2.8 11.2c-5.9 23.9 8.6 48.1 32.6 54 4.4 1.1 9.1 1.5 13.5 1.3q0.1-0.1 0.1-0.1v-4.3q0 0-0.1 0zm0.1 0v4.3l9.3-0.5v-4.4zm9.4-0.5v4.3l12.2-0.7v-4.3zm12.3-0.7v4.3l12.3-0.8v-4.2zm12.3-0.7v4.2l12.3-0.8v-4.1zm12.3-0.7v4.1l12.2-0.8v-4zm12.3-0.7v4l12.3-0.7v-4zm12.3-0.7v4l12.3-0.8v-3.9zm12.3-0.7v3.9l12.3-0.8v-3.8zm18.4-1.1c-3.1 0.2-6.2 0.4-6.2 0.4v3.8c0 0 3.1-0.2 6.2-0.4 0.9 0 0.4 0.1 0.6 0.1l0.5-3.8c-0.2 0 0-0.1-1.1-0.1zm1.1 0.1l-0.5 3.8 0.4 0.1 1.6-3.8zm1.4 0.1l-1.6 3.8 0.4 0.1 2.7-3.8zm1.5 0.1l-2.7 3.8 0.4 0.1 3.9-3.8zm1.6 0.1l-3.9 3.8 0.4 0.2 5.1-3.9zm1.6 0.1l-5.1 3.9h0.1l5.3-3.8zm0.3 0q0 0 0 0l-5.3 3.8q0 0 0 0l5.3-3.8q0 0 0 0zm0 0l-5.3 3.8-0.8 1.3 4.9-3.1zm-1.2 1.9l-4.9 3.2-1 1.7 4.4-2.4zm-1.6 2.5l-4.4 2.4-1 1.7 3.9-1.5zm-1.6 2.5l-3.9 1.5-1 1.7 3.4-0.7zm-1.6 2.6l-3.4 0.6-1 1.7 2.9 0.2zm-1.6 2.5l-2.8-0.2-1.1 1.7 2.4 1zm-2.9 5.1c0.9-1.9 0.9-1.9 1.1-2.2 0.1-0.2 0.2-0.3 0.2-0.3l-2.3-1.1q0 0-0.2 0.3c-0.1 0.2 0 0-0.9 1.9-1.4 2.9-2.7 5.8-2.7 5.8l2.1 1.3c0 0 1.4-2.8 2.7-5.7zm-2.7 5.7l-2.1-1.3-5.3 11.6 2 1.3zm-5.4 11.5l-2-1.2-5.3 11.6 1.9 1.1zm-5.5 11.6l-1.8-1.2-5.3 11.6 1.7 1.1zm-5.4 11.5l-1.7-1-5.3 11.6 1.6 1zm-5.4 11.5l-1.7-1-5.3 11.6 1.5 0.9zm-5.4 11.5l-1.5-0.9-5.3 11.6 1.4 0.9zm-5.4 11.5l-1.4-0.8-0.5 1.1 1.3 0.8zm-0.5 1.1l-1.3-0.8q0 0-4.8 10.5l1.2 0.7q4.9-10.4 4.9-10.4zm-68.5-302.9l-6.3-2.7q-1.6 7.1-1.6 7.1l6.1 2.8q0 0 1.8-7.2zm-1.8 7.2l-6.1-2.8-1 4.2 6.1 2.7zm-1 4.1l-6.1-2.7-0.7 3.1 6 2.6zm-0.7 3l-6.1-2.7-1.6 7.2 5.9 2.7zm-1.7 7.1l-6-2.7-1.7 7.2 5.9 2.6zm-1.8 7.1l-5.8-2.5-1.7 7.1 5.8 2.6zm-1.8 7.1l-5.8-2.5-1.6 7.1 5.6 2.5zm-1.8 7.2l-5.6-2.5-1.7 7.2 5.6 2.4zm-1.8 7.1l-5.5-2.4-1.7 7.2 5.4 2.4zm-1.7 7.1l-5.5-2.4-1.6 7.2 5.3 2.3zm-1.8 7.2l-5.3-2.4-1.7 7.2 5.3 2.3zm-1.8 7.1l-5.2-2.3-1.7 7.2 5.1 2.2zm-1.7 7.2l-5.2-2.3-1.6 7.2 5 2.2zm-1.8 7.1l-5-2.2-1.6 7.2 4.9 2.2zm-1.8 7.1l-4.9-2.2-1.7 7.2 4.8 2.1zm-1.8 7.2l-4.8-2.2-1.6 7.2 4.7 2.1zm-1.8 7.1l-4.7-2.1-1.6 7.2 4.5 2zm-1.7 7.2l-4.6-2.1-1.7 7.5 4.4 2zm-1.8 7.4l-4.5-1.9-1.7 7.4 4.3 2zm-1.8 7.4l-4.4-1.9-1.7 7.4 4.3 1.9zm-1.9 7.4l-4.2-1.8-1.8 7.4 4.2 1.9zm-1.9 7.4l-4.1-1.8-2.1 9.1 4 1.7zm41 66.9c-3.8 0.2-7.9-0.2-11.8-1.3-19.6-5.6-31.1-25.9-25.5-45.5l2-7.4q0 0 0.1-0.1l-4-1.8q-0.1 0.1-0.1 0.2l-2.4 9.1c-5.8 21.8 7.2 44.1 29 49.9 4.2 1.1 8.6 1.5 12.7 1.3q0.1 0 0.2 0v-4.4q-0.1 0-0.2 0zm0.2 8.7v4.4l9.3-0.6v-4.3zm9.3-0.6v4.3l12.3-0.9v-4.2zm12.3-0.8v4.3l12.3-0.9v-4.2zm12.2-0.7v4.1l12.3-0.8v-4.1zm12.3-0.8v4.1l12.3-0.8v-4zm12.3-0.8v4l12.3-0.8v-4zm12.3-0.8v4l12.2-0.8v-3.9zm12.3-0.8v3.9l12.3-0.9v-3.8zm18.4-1.1c-3 0.2-6.1 0.4-6.1 0.4v3.8c0 0 3.1-0.2 6.1-0.4 0.8-0.1-0.1 0 0.1 0l0.5-3.8c-0.1 0 0.4-0.1-0.6 0zm0.6 0l-0.5 3.8-0.7 0.1 1.6-3.8zm0.4 0.1l-1.6 3.8-0.7 0.1 2.7-3.8zm0.3 0.2l-2.7 3.8-0.8 0.1 3.9-3.8zm0.4 0.1l-3.9 3.8-0.7 0.2 5-3.9zm0.4 0.2l-5 3.8h-0.2l5.3-3.8zm0.1 0l-5.3 3.8q0 0 0 0 0 0 0 0l5.3-3.8q0 0 0 0zm0 0l-5.3 3.8-0.4 0.7 4.9-3.2zm-0.8 1.3l-4.9 3.2-0.5 0.8 4.4-2.3zm-1 1.7l-4.5 2.3-0.5 0.9 3.9-1.5zm-0.4 0.2c-3.1 0.2-6.1 0.5-6.1 0.5q0-0.1 0 3.8c0 0 3-0.3 6.1-0.5 0.6 0-0.6 0.1-0.4 0q0.5-3.7 0.5-3.7c-0.2 0 0.7-0.1-0.1-0.1zm-1.7 3.1l-3.3 0.7-0.6 0.8 2.9 0.2zm-1 1.7l-2.9-0.2-0.5 0.9 2.4 1zm-2.2 3.9c0.9-2 0.9-1.8 1-2q0.1-0.2 0.1-0.2l-2.3-1.1q0 0-0.1 0.2c-0.1 0.1 0-0.3-0.8 1.8-1.3 2.9-2.6 5.8-2.6 5.8l2.1 1.3c0 0 1.3-2.9 2.6-5.8zm-2.6 5.8l-2.1-1.3-5.2 11.7 2 1.2zm-5.3 11.6l-2-1.2-5.2 11.7 1.9 1.1zm-5.3 11.6l-1.9-1.1-5.2 11.7 1.8 1zm-5.3 11.6l-1.8-1-5.1 11.7 1.6 0.9zm-5.3 11.6l-1.6-1-5.2 11.7 1.5 0.9zm-5.3 11.6l-1.5-0.9-5.2 11.7 1.4 0.9zm-5.3 11.6l-1.4-0.9-0.5 1.2 1.4 0.8zm-0.5 1.1l-1.4-0.8q0 0-4.7 10.5l1.3 0.8q4.8-10.5 4.8-10.5zm-73.5-304.8q0 0-6.3-2.8-1.5 7.2-1.5 7.2 6.1 2.8 6.1 2.8 0 0 1.7-7.2zm-1.7 7.2q0 0-6.1-2.8l-1 4.2q6.2 2.7 6.2 2.7zm-1 4.2q0 0-6.1-2.7l-0.7 3q6.1 2.7 6.1 2.7zm-0.7 3q0 0-6.1-2.7l-1.5 7.2q5.9 2.7 5.9 2.7zm-1.6 7.1q0 0-6-2.6l-1.5 7.2q5.8 2.6 5.8 2.6zm-1.6 7.2q0 0-5.9-2.6l-1.6 7.2q5.8 2.6 5.8 2.6zm-1.7 7.2q0 0-5.7-2.6l-1.6 7.2q5.7 2.5 5.7 2.5zm-1.7 7.2q0 0-5.6-2.5l-1.6 7.2q5.6 2.5 5.6 2.5zm-1.7 7.2q0 0-5.6-2.5l-1.5 7.3q5.4 2.4 5.4 2.4zm-1.6 7.1q0 0-5.5-2.4l-1.5 7.3q5.3 2.3 5.3 2.3zm-1.7 7.2q0 0-5.3-2.4l-1.5 7.3q5.2 2.3 5.2 2.3zm-1.7 7.1q0 0-5.2-2.3l-1.6 7.3q5.2 2.2 5.2 2.2zm-1.7 7.2q0 0-5.1-2.3l-1.6 7.3q5 2.2 5 2.2zm-1.6 7.2q0 0-5-2.3l-1.6 7.3q4.9 2.1 4.9 2.1zm-1.7 7.2q0 0-4.9-2.2l-1.5 7.3q4.8 2.1 4.8 2.1zm-1.7 7.2q0 0-4.8-2.2l-1.5 7.3q4.7 2 4.7 2zm-1.7 7.2q0 0-4.7-2.1l-1.5 7.3q4.5 2 4.5 2zm-1.6 7.2q0 0-4.6-2.1l-1.6 7.6q4.4 1.9 4.4 1.9zm-1.7 7.5q0 0-4.5-1.9l-1.6 7.5q4.4 1.9 4.4 1.9zm-1.8 7.5q0 0-4.3-1.9l-1.6 7.5q4.2 1.8 4.2 1.8zm-1.7 7.5q0 0-4.3-1.8l-1.6 7.5q4.2 1.8 4.2 1.8zm-1.8 7.5q0 0-4.1-1.8l-2 9.1q4 1.8 4 1.8zm45.2 45c-1.8 0-3.7-0.3-5.5-1-7.6-2.8-11.4-11.3-8.6-18.9l0.4-1.1q0.1 0 0.1-0.1l-21.7-9.5q0 0 0 0.1l-2.1 7.3c-5.5 19.6 5.9 40 25.5 45.5 3.9 1.1 8 1.6 11.9 1.4q0.1 0 0.1 0v-23.7q0 0-0.1 0zm0.1 36.8q0 0 0 4.4l9.3-0.7q0-4.4 0-4.4zm9.4-0.6q0 0 0 4.3l12.2-0.9q0-4.3 0-4.2zm12.3-0.9q0 0 0 4.3l12.3-1q0-4.1 0-4.1zm12.3-0.9q0 0 0 4.2l12.3-0.9q0-4.1 0-4.1zm12.3-0.9q0 0 0 4.1l12.3-0.9q0-4 0-4zm12.2-0.9q0 0 0 4.1l12.3-0.9q0-4 0-4zm12.3-0.8q0 0 0 3.9l12.3-0.9q0-3.9 0-3.9zm12.3-0.8q0 0 0 3.9l12.3-0.9q0-3.9 0-3.9zm17.8 0.2l-3.9 1.5-0.6 0.8 3.4-0.6zm0.8-1.4q0 0-0.5 3.8l-1.9 0.1q1.6-3.8 1.6-3.8zm-0.7 0.1q0 0-1.6 3.8l-1.8 0.2q2.7-3.8 2.7-3.8zm-0.7 0.1q0 0-2.8 3.8l-1.9 0.1q3.9-3.8 3.9-3.8zm-0.8 0.2q0 0-3.9 3.8l-2 0.1q5.1-3.8 5.1-3.8zm-0.8 0.1q0 0-5.1 3.9h-0.4q5.4-3.8 5.4-3.8zm-0.2 0q0 0 0 0 0 0-5.4 3.8 0 0 0 0 5.4-3.8 5.4-3.8 0 0 0 0zm0 0q0 0-5.4 3.8 5-3.2 5-3.2zm-0.4 0.7q0 0-5 3.2 4.5-2.4 4.5-2.4zm-0.6 0.9q0 0-4.4 2.3 3.9-1.5 3.9-1.5zm-0.5 0.9q0 0-3.9 1.4 3.4-0.6 3.4-0.6zm-0.5 0.8q0 0-3.4 0.7 2.9 0.2 2.9 0.2zm-0.6 0.8q0 0-2.8-0.2 2.3 1.1 2.3 1.1zm-1.4 2.7c0.9-2 0.8-1.7 0.8-1.8q0.1-0.1 0.1-0.1 0 0-2.3-1l-3.3 7.5q2.1 1.3 2.1 1.3c0 0 1.3-3 2.6-5.9zm-2.6 5.9q0 0-2.1-1.3l-5 11.7q1.9 1.2 1.9 1.2zm-5.1 11.7q0 0-2-1.2l-5.1 11.8q1.9 1.1 1.9 1.1zm-5.2 11.7q0 0-1.8-1.1l-5.1 11.7q1.7 1.1 1.7 1.1zm-5.1 11.7q0 0-1.8-1.1l-5 11.7q1.6 1 1.6 1zm-5.2 11.7q0 0-1.6-1l-5 11.8q1.4 0.9 1.4 0.9zm-5.1 11.7q0 0-1.5-0.9l-5.1 11.7q1.4 0.9 1.4 0.8zm-5.2 11.7q0 0-1.4-0.8l-0.4 1.1q1.3 0.9 1.3 0.9zm-0.5 1.1q0 0-1.3-0.8 0 0-4.6 10.6 1.2 0.7 1.2 0.7 4.7-10.5 4.7-10.5z"/>
						<g id="&lt;Clip Group&gt;" clip-path="url(#cp2)">
							<path id="&lt;Mesh&gt;" fill-rule="evenodd" class="s2" d="m44.4 637.9q-7.3-4.5-7.3-4.5l-6.8 9.2q0 0 6.7 4.2zm-7.4 8.8q-6.7-4.1-6.7-4.1l-44.4 60.4q0 0 2.8 1.7zm0.1-13.4l-7.3-4.5-6.2 9.6 6.7 4.2zm-6.8 9.2l-6.7-4.1-40.5 62.7 2.8 1.7zm-0.5-13.7l-7.3-4.5-5.6 10 6.7 4.1zm-6.2 9.6l-6.8-4.1-36.5 65.1 2.8 1.8zm-1.1-14.1l-7.4-4.5-5 10.3 6.8 4.1zm-5.7 10l-6.7-4.1-32.6 67.5 2.8 1.7zm-1.7-14.4l-1.4-0.9-4.9 10.5 1.2 0.7zm-5 10.4l-1.2-0.8-32 68 0.6 0.3zm3.6-11.2l-1.3-0.8-4.8 10.5 1.2 0.7zm-4.9 10.5l-1.2-0.8-31.2 68.4 0.5 0.3zm3.5-11.2l-1.3-0.8-4.7 10.5 1.2 0.8zm-4.7 10.5l-1.3-0.8-30.5 68.9 0.5 0.3zm3.4-11.3q0.1 0-1.3-0.9l-4.6 10.7q1.3 0.7 1.3 0.7zm-4.7 10.6q0 0-1.2-0.8l-29.8 69.3q0.5 0.4 0.5 0.4z"/>
						</g>
					</g>
				</g>
				<g id="&lt;Group&gt;">
					<g id="&lt;Group&gt;">
						<g id="&lt;Clip Group&gt;" clip-path="url(#cp3)">
							<path id="&lt;Mesh&gt;" fill-rule="evenodd" class="s3" d="m638.4 88.7q-62.1-27.4-62.1-27.4l-180.8 305.5q0 0 34 15zm-208.9 293.2q-34-15-34-15l-3.7 6.2q0 0 33.4 14.8zm-4.3 6q-33.4-14.8-33.4-14.8l-2.2 3.7q0 0 33.1 14.6zm151.1-326.6l-62.1-27.4-152.7 318 34 15zm-180.8 305.5l-34-15-3.2 6.5 33.5 14.8zm-3.7 6.3l-33.5-14.8-1.8 3.8 33.1 14.6zm122.4-339.2l-62.1-27.4-124.6 330.3 34 15zm-152.7 317.9l-34-15-2.6 6.8 33.5 14.8zm-3.2 6.5l-33.4-14.8-1.5 4 33.1 14.6zm93.7-351.9l-62.1-27.4-96.5 342.8 34 15zm-124.6 330.3l-34-15-2 7 33.4 14.8zm-2.5 6.8l-33.5-14.8-1.1 4.1 33.1 14.6zm65-364.5l-11.4-5.1-91.4 345 6.3 2.8zm-96.5 342.7l-6.3-2.7-1.9 7 6.2 2.8zm-2 7l-6.1-2.7-1.1 4.1 6.1 2.7zm87-354.8l-11.5-5.1-86.1 347.3 6.3 2.8zm-91.3 345l-6.3-2.8-1.8 7.2 6.2 2.7zm-1.9 7.1l-6.2-2.8-1 4.2 6.1 2.7zm81.8-357.2l-11.5-5-81 349.6 6.3 2.7zm-86.1 347.3l-6.3-2.7-1.7 7.1 6.2 2.8zm-1.8 7.1l-6.2-2.7-0.9 4.1 6.1 2.8zm76.4-359.6q0 0-11.4-5l-75.8 351.9q6.3 2.7 6.3 2.7zm-81 349.6q0 0-6.3-2.7l-1.5 7.2q6.2 2.7 6.2 2.7zm-1.7 7.2q0 0-6.2-2.7l-0.9 4.2q6.1 2.7 6.1 2.7z"/>
						</g>
						<path id="&lt;Mesh&gt;" fill-rule="evenodd" class="s4" d="m429.5 381.8q-34-15-34-15-3.7 6.3-3.7 6.3 0 0 33.4 14.7 0 0 4.3-6zm-4.3 6q-33.4-14.7-33.4-14.7l-2.2 3.6q0 0 33.1 14.6zm-2.5 3.5q-33.1-14.6-33.1-14.6l-1.5 2.6q0 0 32.8 14.6zm-1.8 2.5q-32.8-14.5-32.8-14.5l-3.7 6.3q0 0 32.3 14.2zm-4.3 6q-32.3-14.2-32.3-14.2l-3.7 6.2q0 0 31.7 14zm-4.3 6.1q-31.7-14-31.7-14l-3.7 6.2q0 0 31.1 13.8zm-4.3 6q-31.1-13.8-31.1-13.7l-3.7 6.2q0 0 30.5 13.5zm-4.3 6q-30.5-13.5-30.5-13.5l-3.8 6.3q0.1 0 30 13.2zm-4.2 6.1q-30-13.3-30-13.3l-3.8 6.3q0.1 0 29.5 13zm-4.3 6q-29.4-13-29.4-13l-3.8 6.3q0 0 28.9 12.7zm-4.3 6q-28.8-12.7-28.8-12.7c0 0-1 1.6-1.9 3.2-0.9 1.5-0.8 1.6-0.9 1.8q0 0 28.9 11.5zm-2.7 3.8q-28.9-11.5-28.9-11.5l-1.3 2.8q0 0 30.2 8.7zm0 0q-30.2-8.7-30.2-8.7l-1.2 2.8q0 0 31.4 5.9zm0 0q-31.4-5.9-31.4-5.9l-1.2 2.8q0 0 32.6 3.1zm0 0q-32.6-3.1-32.6-3.1l-1.3 2.8q0 0 33.9 0.3zm0 0q-33.9-0.3-33.9-0.3l-1.2 2.8q0 0 35.1-2.5zm0 0q-43 20.4-43 20.4 0 0.1 0 0.1 0 0 0 0 0 0 43-20.5 0 0 0 0zm0 0q-41.5 16.9-41.5 16.9l-1.5 3.5q0 0 43-20.4zm0 0q-40.2 14-40.2 14l-1.3 2.9q0 0 41.5-16.9zm0 0q-38.9 11.1-38.9 11.1l-1.3 2.9q0 0 40.2-14zm0 0q-37.6 8.2-37.6 8.2l-1.3 2.9q0 0 38.9-11.1zm0 0q-36.3 5.2-36.3 5.3l-1.3 2.9q0 0 37.6-8.2zm0 0q-35.1 2.5-35.1 2.5l-1.2 2.8q0-0.1 36.3-5.3zm0 0q-43 20.5-43 20.5l3.4-0.1q0 0 38.7-20.5zm-0.9 0q-38.7 20.5-38.7 20.5l4.5-0.1q0 0 33-20.5zm-1.1-0.1q-33 20.5-33 20.5h4.5q0 0 27.3-20.6zm-1.2-0.1q-27.3 20.6-27.3 20.6l4.5-0.1q0 0 21.6-20.6zm-1.1 0q-21.7 20.6-21.7 20.6l4.5-0.1q0 0 16-20.6zm-1.2-0.1q-16 20.6-16 20.6h4.6q0 0 10.2-20.7zm-1.1-0.1q-10.3 20.7-10.3 20.7l4.5-0.1q0 0 4.6-20.7zm-1.7-0.1c-0.8-0.1 0 0-0.1 0 0.3 0 0.6 0 0.6 0q-4.6 20.7-4.6 20.7c0.3 0.1 3.6-0.1 6 0.1q0 0 0-20.7c0 0-0.8 0-1.9-0.1zm1.9 0.1q0 20.7 0 20.7l12.2 0.5q0 0 0-20.3zm12.3 1q0 20.3 0 20.3l12.3 0.5q0 0 0-19.9zm12.3 0.9q0 19.9 0 19.9l12.3 0.5q0 0 0-19.5zm12.3 0.9q0 19.5 0 19.5l13.2 0.6q0 0 0-19.1zm13.3 1q0 19.1 0 19.1l13.2 0.6q0 0 0-18.7zm13.3 1q0 18.6 0 18.6l2.8 0.2q0 0 0-18.6zm40.5 67.3c5.2-6.3 8.6-14.2 9.3-23 1.6-22.3-15.1-41.8-37.5-43.4l-9.4-0.7q0 0-0.1 0 0 18.6 0 18.6 0.1 0 0.1 0l3.2 0.1c13.4 0.6 23.8 11.9 23.2 25.3-0.2 5-1.9 9.6-4.7 13.4q0 0-0.1 0.1 0-0.1 15.9 9.7 0-0.1 0.1-0.1zm-0.1 0.1q-15.9-9.8-15.9-9.7l-5.8 7.8q0 0 15.4 9.4zm-6.3 7.6q-15.4-9.4-15.4-9.4l-7.5 10.2q0 0 14.7 9zm-8.2 9.9q-14.7-9-14.7-9l-7.5 10.2q0 0 14 8.6zm-8.2 9.8q-14-8.6-14-8.6l-7.6 10.3q0 0 13.4 8.2zm-8.2 9.8q-13.3-8.2-13.3-8.2l-7.6 10.2q0 0 12.7 7.8zm-8.2 9.8q-12.7-7.7-12.7-7.7l-7.5 10.2q0 0 12 7.4zm-8.2 9.8q-12-7.4-12-7.4l-7.5 10.3q0 0 11.3 6.9zm-8.2 9.9q-11.3-7-11.3-7l-7.6 10.2q0 0 10.7 6.6zm-8.2 9.8q-10.7-6.5-10.7-6.5l-7.5 10.2q0 0 10 6.1zm-8.2 9.9q-10-6.2-10-6.2l-7.5 10.2q0 0 9.4 5.8zm-8.2 9.8q-9.4-5.7-9.4-5.7l-7.5 10.2q0 0 8.7 5.4zm-8.2 9.8q-8.7-5.3-8.7-5.3l-7.6 10.2q0 0 8.1 4.9zm-8.2 9.8q-8.1-4.9-8.1-4.9l-7.5 10.3q0-0.1 7.4 4.5zm-8.2 9.8q-7.4-4.5-7.4-4.5l-0.7 1q0 0 7.3 4.5zm-0.8 0.9q-7.3-4.5-7.3-4.5 0 0-6.8 9.3 0 0 6.7 4.1 7.4-8.9 7.4-8.9zm15.6-271.1l-34.1-15q-3.1 6.5-3.1 6.5l33.5 14.8q0 0 3.7-6.3zm-3.7 6.3l-33.5-14.8-1.8 3.8 33.1 14.7zm-2.2 3.6l-33.1-14.6-1.3 2.7 32.9 14.5zm-1.6 2.7l-32.8-14.6-3.2 6.6 32.3 14.2zm-3.7 6.3l-32.3-14.2-3.1 6.5 31.7 14zm-3.7 6.3l-31.7-14-3.2 6.5 31.2 13.7zm-3.7 6.3l-31.2-13.7-3.1 6.5 30.5 13.5zm-3.7 6.3l-30.5-13.5-3.2 6.5 30 13.2zm-3.7 6.3l-30-13.2-3.1 6.5 29.4 13zm-3.7 6.2l-29.4-12.9-3.2 6.5 28.9 12.7zm-5.6 9.4c0.9-1.6 1.9-3.1 1.9-3.1l-28.9-12.7-2.9 6.1 29 11.6c0.1-0.2 0-0.3 0.9-1.9zm-0.9 1.9l-29-11.6-2.4 5.6 30.1 8.8zm-1.2 2.8l-30.2-8.8-2.4 5.6 31.4 6zm-1.3 2.7l-31.4-5.9-2.4 5.6 32.6 3.1zm-1.2 2.8l-32.7-3.1-2.4 5.6 33.8 0.3zm-1.2 2.8l-33.9-0.3-2.4 5.6 35.1-2.5zm-1.3 2.8l-35.1 2.5-2.4 5.5 36.3-5.2zm-1.2 2.8l-36.4 5.2-2.5 5.9 37.6-8.2zm-1.3 2.9l-37.6 8.2-2.6 5.8 38.9-11.1zm-1.3 3l-38.9 11-2.5 5.8 40.1-13.9zm-1.2 2.9l-40.2 13.9-2.6 5.9 41.5-16.9zm-1.3 2.9l-41.5 16.9-3.1 7 43-20.4zm-1.5 3.6q0 0 0 0l-43.1 20.4q0 0 0 0.1 0 0 0 0 0 0 0.1 0l43-20.5q0 0 0 0zm0 0l-43 20.5h7.7l38.7-20.5zm3.4-0.1l-38.7 20.5h10.2l33-20.5zm4.5-0.1l-33 20.6 10.2-0.1 27.3-20.5zm4.6-0.1l-27.4 20.6h10.2l21.7-20.6zm4.5-0.1l-21.7 20.6h10.2l16-20.6zm4.5-0.1l-16 20.7h10.2l10.3-20.7zm4.5-0.1l-10.3 20.7h10.2l4.6-20.7zm4.5-0.1l-4.6 20.7 10.5 0.1v-20.7c-2.3-0.2-5.6-0.1-5.9-0.1zm5.9 0.1v20.7l12.3 0.1v-20.3zm12.3 0.5v20.3l12.3 0.2v-19.9zm12.3 0.5v19.9l12.3 0.1v-19.5zm12.2 0.5v19.6l13.3 0.1v-19.1zm13.2 0.6v19.1l13.3 0.1v-18.6zm13.3 0.5v18.7l2.8 0.1v-18.6zm24.6 38.9c2.8-3.8 4.5-8.4 4.7-13.4 0.6-13.4-9.8-24.7-23.2-25.3l-3.2-0.1q-0.1 0-0.1 0v18.6q0 0 0.1 0h0.2c3.8 0 6.8 3.1 6.7 6.8 0 1.4-0.4 2.6-1.1 3.6q0 0.1 0 0.1l15.8 9.8q0.1-0.1 0.1-0.1zm-0.1 0.1l-15.8-9.8-5.3 8.2 15.3 9.4zm-5.8 7.9l-15.3-9.4-6.9 10.7 14.7 9zm-7.5 10.2l-14.7-9-6.9 10.6 14 8.6zm-7.5 10.3l-14-8.6-6.9 10.6 13.4 8.2zm-7.6 10.2l-13.3-8.1-6.9 10.6 12.7 7.8zm-7.5 10.2l-12.7-7.8-6.9 10.7 12 7.4zm-7.5 10.2l-12-7.4-6.9 10.7 11.4 6.9zm-7.5 10.3l-11.4-7-6.9 10.6 10.7 6.6zm-7.5 10.2l-10.7-6.5-6.9 10.6 10.1 6.2zm-7.6 10.2l-10-6.2-6.9 10.7 9.4 5.7zm-7.5 10.3l-9.4-5.8-6.9 10.7 8.7 5.3zm-7.5 10.2l-8.7-5.3-6.9 10.6 8.1 5zm-7.6 10.2l-8-4.9-6.9 10.6 7.4 4.6zm-7.5 10.2l-7.4-4.5-0.7 1 7.3 4.5zm-0.7 1l-7.3-4.5q0 0-6.2 9.6l6.7 4.1q6.8-9.2 6.8-9.2zm-11.1-281.6l-34.1-15q-2.5 6.7-2.5 6.7l33.4 14.8q0 0 3.2-6.5zm-3.2 6.5l-33.4-14.8-1.5 4 33.1 14.6zm-1.8 3.8l-33.2-14.6-1 2.8 32.9 14.5zm-1.4 2.7l-32.8-14.5-2.6 6.8 32.3 14.3zm-3.1 6.5l-32.3-14.2-2.6 6.7 31.7 14zm-3.1 6.6l-31.7-14-2.6 6.7 31.2 13.8zm-3.2 6.5l-31.1-13.7-2.6 6.8 30.6 13.4zm-3.1 6.6l-30.6-13.5-2.6 6.8 30 13.2zm-3.1 6.5l-30-13.2-2.6 6.8 29.5 13zm-3.2 6.5l-29.4-13-2.6 6.8 28.9 12.7zm-3.2 6.5l-28.8-12.7-2.5 6.8 28.5 12.1zm-2.9 6.2l-28.5-12.1-2.6 6.8 28.6 10.9zm-2.5 5.6l-28.6-10.9-2.5 6.7 28.7 9.8zm-2.5 5.6l-28.7-9.8-2.5 6.8 28.7 8.5zm-2.4 5.6l-28.8-8.5-2.6 6.8 28.9 7.3zm-2.5 5.6l-28.8-7.3-2.6 6.7 29 6.2zm-2.5 5.6l-29-6.2-2.5 6.8 29 5zm-2.4 5.6l-29.1-5-2.7 7.1 29.2 3.7zm-2.6 5.8l-29.1-3.7-2.7 7.1 29.3 2.4zm-2.6 5.8l-29.3-2.4-2.6 7 29.3 1.3zm-2.5 5.8l-29.4-1.2-2.7 7h29.5zm-2.6 5.8h-29.4l-3.3 8.6 29.6-1.5zm-3.2 7.2q0 0 0 0 0.1-0.1 0.1-0.1l-29.6 1.5q0 0.1 0 0.1l-0.4 1.1c-2.9 7.6 0.9 16.1 8.5 18.9 1.8 0.7 3.7 1 5.5 1q0.1 0 0.1 0l15.9-22.5q0 0-0.1 0zm0.1 0l-15.9 22.5 9.4-0.2 14.3-22.3zm7.7 0l-14.3 22.3 12.3-0.3 12.2-22zm10.2-0.1l-12.2 22.1 12.2-0.2 10.1-21.9zm10.2 0l-10.1 21.9 12.3-0.3 8-21.6zm10.2 0l-8 21.6 12.3-0.2 5.9-21.4zm10.2 0l-5.9 21.3 12.2-0.2 3.8-21.2zm10.2 0l-3.8 21.2 12.3-0.3 1.7-20.9zm10.2 0l-1.7 20.9 12.3-0.2v-20.7zm10.5 0v20.7c0 0 3.1 0 6.2-0.1 2.2 0 4.4 0 4.4 0l1.7-20.4zm12.3 0.1l-1.7 20.4 8.5 0.1 5.5-20.3zm12.3 0.1l-5.5 20.3 8.5 0.1 9.3-20.2zm12.2 0.1l-9.2 20.2h9.2l13.3-20.1zm13.2 0.2l-13.3 20.1h9.2l17.4-19.9zm13.3 0.1l-17.4 20h2l18.2-20zm8.7 10.5c0.7-1 1.1-2.2 1.1-3.6 0.1-3.7-2.9-6.8-6.7-6.8h-0.2q-0.1 0-0.1 0l-18.2 19.9q0 0 0 0 0 0.1 0 0.1l24.1-9.5q0 0 0-0.1zm0 0.1l-24.1 9.5-3.7 6.1 22.5-7.4zm-5.3 8.2l-22.5 7.4-4.9 7.9 20.5-4.6zm-6.8 10.6l-20.6 4.7-4.8 7.9 18.5-1.9zm-6.9 10.6l-18.5 1.9-4.9 7.9 16.6 0.8zm-6.9 10.7l-16.5-0.8-4.9 7.9 14.5 3.5zm-6.8 10.7l-14.6-3.5-4.8 7.9 12.5 6.2zm-6.9 10.7l-12.5-6.3c-0.1 0.2-1 1.6-2.6 4.4-1.6 2.8-3.1 5.5-3.1 5.5l11.3 7zm-6.8 10.6l-11.4-6.9-6.2 11 10.7 6.6zm-6.9 10.6l-10.7-6.5-6.2 11 10.1 6.2zm-6.9 10.6l-10-6.1-6.2 11 9.3 5.8zm-6.8 10.6l-9.4-5.7-6.2 11 8.7 5.4zm-6.9 10.6l-8.7-5.4-6.2 11.1 8 4.9zm-6.8 10.7l-8.1-5-6.2 11.1 7.4 4.5zm-6.9 10.7l-7.3-4.6-0.6 1.1 7.3 4.5zm-0.7 1l-7.3-4.5q0 0-5.6 10l6.7 4.1q6.2-9.6 6.2-9.6zm-37.9-292.1l-34-15q-2 7-2 7l33.5 14.8q0 0 2.5-6.8zm-2.5 6.8l-33.5-14.8-1.1 4.1 33.1 14.6zm-1.5 3.9l-33.1-14.6-0.8 3 32.8 14.5zm-1 2.8l-32.9-14.5-2 7.1 32.3 14.2zm-2.5 6.8l-32.3-14.3-2 7.1 31.7 14zm-2.6 6.8l-31.7-14-2 7 31.2 13.7zm-2.6 6.8l-31.1-13.7-2 7 30.6 13.5zm-2.6 6.8l-30.6-13.5-1.9 7 29.9 13.3zm-2.5 6.8l-30-13.3-2 7.1 29.4 12.9zm-2.5 6.8l-29.4-13-2 7.1 28.8 12.7zm-2.5 6.8l-28.9-12.7-2 7 28.3 12.5zm-2.6 6.8l-28.2-12.5-2 7 27.7 12.2zm-2.6 6.8l-27.7-12.2-1.9 7 27.1 12zm-2.6 6.8l-27.1-12-2 7 26.5 11.8zm-2.5 6.7l-26.5-11.7-2 7.1 25.9 11.4zm-2.5 6.8l-26-11.4-2 7 25.4 11.2zm-2.6 6.8l-25.3-11.2-2 7 24.8 10.9zm-2.6 6.8l-24.8-10.9-2 7.3 24.2 10.7zm-2.7 7.1l-24.2-10.7-2.1 7.3 23.6 10.4zm-2.6 7.1l-23.6-10.4-2.1 7.3 23 10.2zm-2.7 7l-23-10.1-2 7.3 22.4 9.9zm-2.7 7.1l-22.4-9.9-2.5 8.9 21.7 9.5zm10.3 66.5c-4.5 0.3-9.5-0.1-14.2-1.1-26-6.1-42.2-32.1-36.2-58.1l3.1-13.4q0-0.1 0.1-0.1 0 0-4-1.8-0.1 0.1-0.1 0.1l-3.4 15.9c-6 28.1 11.8 55.8 39.9 61.8 4.9 1.1 10.1 1.4 14.8 1q0.1 0 0.2 0 0-4.3 0-4.3-0.1 0-0.2 0zm0.2-36.8v23.7l9.3-0.5v-23.4zm9.3-0.2v23.4l12.3-0.6v-23zm12.3-0.3v23l12.3-0.6v-22.6zm12.2-0.3v22.6l12.3-0.6v-22.2zm12.3-0.2v22.2l12.3-0.6v-21.9zm12.3-0.2v21.8l12.2-0.6v-21.5zm12.3-0.2v21.4l12.3-0.6v-21.1zm12.3-0.2v21l12.3-0.6v-20.7zm18.4-0.3c-3.1 0-6.2 0.1-6.2 0.1v20.7c0 0 3.1-0.2 6.2-0.3 0.8 0 1.6 0 1.6 0l2.8-20.5c0 0-2.2 0-4.4 0zm4.4 0l-2.8 20.5 2.6 0.1 8.7-20.6zm8.5 0.1l-8.7 20.5 2.6 0.1 14.7-20.6zm8.5 0l-14.7 20.7 2.8 0.1 21.1-20.7zm9.2 0l-21.1 20.7 2.8 0.1 27.5-20.7zm9.2 0l-27.5 20.7h0.6l28.8-20.7zm2.1 0q-0.1 0-0.1 0l-28.9 20.8q0 0 0 0 0 0 0 0l28.9-20.7q0.1-0.1 0.1-0.1zm-0.1 0.1l-28.9 20.7-1.6 2.6 26.8-17.2zm-3.8 6.1l-26.7 17.2-2.1 3.3 24-12.6zm-4.9 7.9l-23.9 12.7-2.1 3.3 21.2-8.1zm-4.9 8l-21.2 8.1-2 3.3 18.3-3.5zm-4.8 7.9l-18.4 3.5-2.1 3.4 15.6 1zm-4.8 8l-15.6-1.1-2.1 3.4 12.8 5.6zm-7.5 12.3c1.6-2.9 2.5-4.2 2.6-4.4l-12.8-5.6c0 0-0.1 0.2-0.3 0.5-0.2 0.4-0.3 0.5-1.2 2.3-1.4 2.9-2.7 5.7-2.7 5.7l11.3 7c0 0 1.6-2.8 3.1-5.5zm-3.1 5.5l-11.3-7-5.6 11.5 10.7 6.6zm-6.2 11l-10.7-6.6-5.5 11.5 10 6.2zm-6.2 11l-10-6.2-5.6 11.5 9.4 5.8zm-6.2 11l-9.4-5.7-5.5 11.4 8.7 5.3zm-6.2 11.1l-8.7-5.3-5.6 11.4 8.1 4.9zm-6.2 11.1l-8.1-4.9-5.5 11.4 7.3 4.5zm-6.2 11.1l-7.3-4.5-0.6 1.1 7.3 4.5zm-0.6 1l-7.3-4.5q0 0-5 10.4l6.7 4.1q5.6-10 5.6-10zm-64.6-302.6l-6.2-2.8q-1.9 7.1-1.9 7.1l6.2 2.7q0 0 1.9-7zm-1.9 7l-6.2-2.7-1.1 4.1 6.1 2.7zm-1.1 4.1l-6.2-2.7-0.7 3 6 2.6zm-0.8 3l-6.1-2.7-1.9 7.1 6 2.6zm-2 7.1l-5.9-2.7-1.9 7.1 5.8 2.6zm-1.9 7l-5.9-2.6-1.9 7.1 5.8 2.6zm-2 7l-5.8-2.5-1.8 7.1 5.6 2.4zm-2 7.1l-5.6-2.5-1.9 7.1 5.6 2.4zm-2 7.1l-5.6-2.5-1.8 7.1 5.4 2.4zm-2 7l-5.4-2.4-1.9 7.1 5.3 2.4zm-2 7l-5.3-2.4-1.9 7.1 5.3 2.3zm-2 7.1l-5.2-2.3-1.9 7 5.1 2.3zm-2 7l-5.1-2.2-1.9 7.1 5 2.2zm-1.9 7l-5-2.2-1.9 7.1 4.9 2.2zm-2 7l-4.9-2.2-1.9 7.1 4.8 2.1zm-2 7.1l-4.8-2.1-1.8 7 4.7 2.1zm-2 7l-4.7-2-1.9 7.1 4.6 2zm-2 7l-4.6-2-1.9 7.4 4.4 1.9zm-2 7.4l-4.5-2-1.9 7.4 4.3 1.9zm-2.1 7.3l-4.3-1.9-2 7.4 4.3 1.9zm-2.1 7.3l-4.2-1.9-2 7.4 4.2 1.8zm-2.1 7.3l-4.1-1.8-2.4 9 4 1.8zm32.8 71.9c-4.4 0.3-9.1-0.1-13.6-1.2-23.9-5.9-38.5-30.1-32.5-54l2.7-11.2q0.1-0.1 0.1-0.2l-4-1.7q0 0-0.1 0.1l-3.1 13.4c-6 26.1 10.2 52 36.2 58.1 4.7 1 9.7 1.4 14.3 1.1q0 0 0.1 0v-4.4q-0.1 0-0.1 0zm0.1-8.7v4.3l9.3-0.5v-4.3zm9.3-0.5v4.3l12.3-0.7v-4.2zm12.3-0.6v4.2l12.3-0.7v-4.2zm12.2-0.6v4.2l12.3-0.7v-4.1zm12.3-0.7v4.2l12.3-0.8v-4zm12.3-0.6v4l12.3-0.7v-3.9zm12.2-0.7v4l12.3-0.7v-3.9zm12.3-0.6v3.9l12.3-0.7v-3.9zm18.4-0.9c-3.1 0.1-6.1 0.3-6.1 0.3v3.8c0 0 3-0.1 6.1-0.3 1.2-0.1 1 0 1.1 0l0.5-3.8c0 0-0.8 0-1.6 0zm1.6 0l-0.5 3.8 1.5 0.1 1.6-3.8zm2.6 0.1l-1.6 3.8 1.4 0.1 2.8-3.8zm2.5 0.1l-2.7 3.8 1.6 0.1 3.9-3.8zm2.8 0.1l-3.9 3.8 1.6 0.1 5-3.8zm2.8 0.1l-5.1 3.8h0.4l5.3-3.8zm0.6 0q0 0 0 0l-5.3 3.9q0 0 0 0 0 0 0 0l5.3-3.8q0-0.1 0-0.1zm0 0.1l-5.3 3.8-1.2 1.9 4.9-3.1zm-1.6 2.5l-4.9 3.2-1.6 2.5 4.4-2.3zm-2 3.4l-4.4 2.3-1.6 2.6 3.9-1.5zm-2.1 3.3l-3.9 1.5-1.5 2.5 3.4-0.6zm-2.1 3.4l-3.4 0.6-1.5 2.5 2.9 0.2zm-2.1 3.4l-2.9-0.2-1.5 2.5 2.3 1zm-3.6 6.2c0.9-1.8 1-1.9 1.2-2.3 0.2-0.3 0.4-0.5 0.4-0.5l-2.4-1c0 0-0.1 0.1-0.2 0.4-0.2 0.2-0.2 0.2-1.1 2.1-1.4 2.9-2.7 5.8-2.7 5.8l2.1 1.2c0 0 1.4-2.8 2.7-5.7zm-2.7 5.7l-2.1-1.2-5.4 11.5 1.9 1.2zm-5.5 11.4l-2-1.2-5.4 11.6 1.8 1.1zm-5.5 11.5l-1.9-1.2-5.4 11.6 1.8 1zm-5.6 11.5l-1.7-1.1-5.4 11.6 1.6 0.9zm-5.6 11.5l-1.6-1-5.4 11.5 1.5 0.9zm-5.6 11.5l-1.5-0.9-5.4 11.5 1.4 0.9zm-5.6 11.4l-1.3-0.8-0.5 1.1 1.3 0.8zm-0.5 1.1l-1.4-0.8q0 0-4.9 10.4l1.3 0.8q5-10.4 5-10.4zm-63.6-300.9l-6.3-2.8q-1.7 7.1-1.7 7.1l6.1 2.8q0 0 1.9-7.1zm-1.9 7.1l-6.1-2.8-1.1 4.2 6.1 2.7zm-1 4.1l-6.2-2.7-0.7 3 6.1 2.7zm-0.8 2.9l-6.1-2.6-1.8 7.1 6 2.6zm-1.9 7.1l-5.9-2.6-1.8 7.1 5.9 2.6zm-1.9 7.1l-5.9-2.6-1.7 7.1 5.7 2.5zm-1.9 7.1l-5.7-2.5-1.8 7.1 5.7 2.5zm-1.9 7.1l-5.7-2.5-1.7 7.1 5.5 2.5zm-1.9 7.1l-5.5-2.5-1.8 7.2 5.5 2.4zm-1.9 7l-5.5-2.4-1.7 7.2 5.3 2.3zm-1.9 7.1l-5.3-2.3-1.8 7.1 5.3 2.3zm-1.9 7.1l-5.2-2.3-1.8 7.1 5.1 2.2zm-1.9 7.1l-5.1-2.2-1.8 7.1 5 2.2zm-1.8 7.1l-5-2.2-1.8 7.1 4.9 2.2zm-1.9 7.1l-4.9-2.2-1.7 7.1 4.8 2.2zm-1.9 7l-4.8-2.1-1.8 7.2 4.7 2zm-1.9 7.1l-4.7-2.1-1.7 7.2 4.6 2zm-1.9 7.1l-4.6-2-1.8 7.4 4.4 2zm-1.9 7.3l-4.5-1.9-1.8 7.4 4.3 1.9zm-1.9 7.4l-4.4-1.9-1.8 7.4 4.2 1.9zm-1.9 7.3l-4.3-1.8-1.8 7.4 4.1 1.8zm-1.9 7.4l-4.2-1.8-2.2 9 4 1.8zm36.9 69.4c-4.1 0.2-8.6-0.2-12.8-1.3-21.7-5.8-34.7-28.1-29-49.9l2.5-9.1q0-0.1 0-0.2l-4-1.7q0 0 0 0.1l-2.8 11.2c-5.9 23.9 8.6 48.1 32.5 54 4.5 1.1 9.2 1.5 13.6 1.3q0-0.1 0.1-0.1v-4.3q-0.1 0-0.1 0zm0.1 0v4.3l9.3-0.5v-4.4zm9.3-0.5v4.3l12.3-0.7v-4.3zm12.3-0.7v4.3l12.3-0.8v-4.2zm12.3-0.7v4.2l12.3-0.8v-4.1zm12.2-0.7v4.1l12.3-0.8v-4zm12.3-0.7v4l12.3-0.7v-4zm12.3-0.7v4l12.2-0.8v-3.9zm12.3-0.7v3.9l12.3-0.8v-3.8zm18.4-1.1c-3 0.2-6.1 0.4-6.1 0.4v3.8c0 0 3.1-0.2 6.1-0.4 1 0 0.5 0.1 0.7 0.1l0.5-3.8c-0.2 0 0-0.1-1.2-0.1zm1.2 0.1l-0.5 3.8 0.3 0.1 1.6-3.8zm1.5 0.1l-1.6 3.8 0.4 0.1 2.7-3.8zm1.4 0.1l-2.7 3.8 0.4 0.1 3.9-3.8zm1.6 0.1l-3.9 3.8 0.4 0.2 5.1-3.9zm1.6 0.1l-5.1 3.9h0.1l5.3-3.8zm0.4 0q0 0 0 0l-5.4 3.8q0 0 0 0l5.4-3.8q0 0 0 0zm0 0l-5.4 3.8-0.8 1.3 5-3.1zm-1.2 1.9l-5 3.2-1 1.7 4.4-2.4zm-1.5 2.5l-4.5 2.4-1 1.7 3.9-1.5zm-1.5 2.5l-3.9 1.5-1.1 1.7 3.4-0.7zm-1.5 2.6l-3.4 0.6-1.1 1.7 2.9 0.2zm-1.5 2.5l-2.9-0.2-1 1.7 2.3 1zm-2.8 5.1c0.8-2 0.9-1.9 1-2.2 0.2-0.2 0.3-0.3 0.3-0.3l-2.4-1.1q0 0-0.1 0.3c-0.2 0.2-0.1 0-1 1.9-1.3 2.9-2.6 5.8-2.6 5.8l2.1 1.3c0 0 1.3-2.9 2.7-5.7zm-2.7 5.7l-2.1-1.3-5.3 11.6 1.9 1.3zm-5.4 11.5l-2-1.2-5.3 11.6 1.9 1.1zm-5.4 11.5l-1.9-1.1-5.3 11.6 1.7 1.1zm-5.4 11.5l-1.7-1-5.3 11.6 1.6 1zm-5.4 11.5l-1.6-1-5.3 11.6 1.5 0.9zm-5.5 11.5l-1.4-0.9-5.3 11.6 1.3 0.9zm-5.4 11.5l-1.4-0.8-0.5 1.1 1.4 0.8zm-0.5 1.1l-1.4-0.8q0 0-4.8 10.5l1.3 0.7q4.9-10.4 4.9-10.4zm-68.6-302.9l-6.2-2.7q-1.7 7.1-1.7 7.1l6.2 2.8q0 0 1.7-7.2zm-1.7 7.2l-6.2-2.8-1 4.2 6.2 2.7zm-1.1 4.1l-6.1-2.7-0.7 3.1 6.1 2.6zm-0.8 3l-6-2.7-1.7 7.2 6 2.7zm-1.8 7.1l-6-2.7-1.6 7.2 5.8 2.6zm-1.7 7.2l-5.9-2.6-1.6 7.1 5.7 2.6zm-1.8 7.1l-5.7-2.5-1.7 7.2 5.7 2.4zm-1.8 7.2l-5.7-2.5-1.6 7.2 5.5 2.4zm-1.7 7.1l-5.6-2.4-1.6 7.2 5.4 2.4zm-1.8 7.1l-5.4-2.4-1.7 7.2 5.4 2.3zm-1.8 7.2l-5.3-2.4-1.7 7.2 5.2 2.3zm-1.7 7.1l-5.3-2.3-1.6 7.2 5.1 2.2zm-1.8 7.2l-5.1-2.3-1.7 7.2 5 2.2zm-1.7 7.1l-5-2.2-1.7 7.2 4.9 2.2zm-1.8 7.1l-4.9-2.2-1.6 7.2 4.8 2.1zm-1.8 7.2l-4.8-2.2-1.7 7.2 4.7 2.1zm-1.7 7.1l-4.7-2-1.7 7.1 4.6 2.1zm-1.8 7.1l-4.6-2-1.7 7.4 4.5 2zm-1.9 7.4l-4.4-1.9-1.8 7.4 4.4 2zm-1.8 7.4l-4.4-1.9-1.7 7.4 4.2 1.9zm-1.8 7.5l-4.3-1.9-1.7 7.5 4.1 1.8zm-1.8 7.4l-4.2-1.8-2.1 9.1 4 1.7zm41.1 66.9c-3.9 0.2-8-0.2-11.9-1.3-19.6-5.6-31-25.9-25.5-45.5l2.1-7.4q0 0 0-0.1l-4-1.8q0 0.1 0 0.2l-2.4 9.1c-5.8 21.8 7.2 44.1 28.9 49.9 4.3 1.1 8.7 1.5 12.8 1.3q0.1 0 0.1 0v-4.4q0 0-0.1 0zm0.1 8.7v4.4l9.3-0.6v-4.3zm9.4-0.6v4.3l12.2-0.9v-4.2zm12.3-0.8v4.3l12.3-0.9v-4.2zm12.3-0.7v4.1l12.3-0.8v-4.1zm12.3-0.8v4.1l12.2-0.8v-4zm12.3-0.8v4l12.3-0.8v-4zm12.3-0.8v4l12.3-0.8v-3.9zm12.2-0.8v3.9l12.3-0.9v-3.8zm18.4-1.1c-3 0.2-6.1 0.4-6.1 0.4v3.8c0 0 3.1-0.2 6.1-0.4 0.8-0.1-0.1 0 0.2 0l0.5-3.8c-0.2 0 0.3-0.1-0.7 0zm0.7 0l-0.5 3.8-0.8 0.1 1.6-3.8zm0.4 0.1l-1.6 3.8-0.7 0.1 2.7-3.8zm0.3 0.2l-2.7 3.8-0.8 0.1 3.9-3.8zm0.4 0.1l-3.9 3.8-0.7 0.2 5-3.9zm0.4 0.2l-5.1 3.8h-0.1l5.3-3.8zm0.1 0l-5.3 3.8q0 0 0 0 0 0 0 0 0 0 0 0l5.3-3.8q0 0 0 0zm0 0l-5.3 3.8-0.4 0.7 4.9-3.2zm-0.8 1.3l-4.9 3.2-0.6 0.8 4.5-2.3zm-1.1 1.7l-4.4 2.3-0.5 0.9 3.9-1.5zm-0.4 0.2c-3.1 0.2-6.2 0.5-6.2 0.5q0-0.1 0 3.8c0 0 3.1-0.3 6.2-0.5 0.6 0-0.6 0.1-0.4 0q0.5-3.7 0.5-3.7c-0.2 0 0.7-0.1-0.1-0.1zm-1.7 3.1l-3.4 0.7-0.5 0.8 2.9 0.2zm-1 1.7l-2.9-0.2-0.5 0.9 2.3 1zm-2.1 3.9c0.9-2 0.8-1.8 0.9-2q0.2-0.2 0.2-0.2l-2.4-1.1q0 0 0 0.2c-0.1 0.1 0-0.3-0.9 1.8-1.2 2.9-2.5 5.8-2.5 5.8l2.1 1.3c0 0 1.3-2.9 2.6-5.8zm-2.6 5.8l-2.1-1.3-5.2 11.7 2 1.2zm-5.3 11.6l-2-1.2-5.2 11.7 1.9 1.1zm-5.3 11.6l-1.9-1.1-5.2 11.7 1.8 1zm-5.3 11.6l-1.8-1-5.1 11.6 1.6 1zm-5.3 11.6l-1.6-1-5.2 11.7 1.5 0.9zm-5.3 11.6l-1.5-0.9-5.2 11.7 1.4 0.9zm-5.3 11.6l-1.4-0.9-0.5 1.2 1.4 0.8zm-0.6 1.1l-1.3-0.8q0 0-4.7 10.5l1.3 0.8q4.7-10.5 4.7-10.5zm-73.4-304.8q0 0-6.3-2.8-1.5 7.2-1.5 7.2 6.1 2.8 6.1 2.8 0 0 1.7-7.2zm-1.7 7.2q0 0-6.1-2.8l-0.9 4.2q6.1 2.7 6.1 2.7zm-1 4.2q0 0-6.1-2.7l-0.7 3q6.1 2.7 6.1 2.7zm-0.7 3q0 0-6.1-2.7l-1.5 7.2q6 2.7 6 2.7zm-1.7 7.1q0 0-6-2.6l-1.5 7.2q5.8 2.6 5.8 2.6zm-1.6 7.2q0 0-5.9-2.6l-1.5 7.3q5.7 2.5 5.7 2.5zm-1.6 7.2q-0.1 0-5.8-2.6l-1.6 7.2q5.7 2.5 5.7 2.5zm-1.7 7.2q0 0-5.6-2.5l-1.6 7.3q5.6 2.4 5.6 2.4zm-1.7 7.2q0 0-5.5-2.5l-1.6 7.3q5.4 2.4 5.4 2.4zm-1.6 7.1q0 0-5.5-2.4l-1.5 7.3q5.3 2.3 5.3 2.3zm-1.6 7.2q0 0-5.4-2.4l-1.5 7.3q5.2 2.3 5.2 2.3zm-1.7 7.1q0 0-5.2-2.3l-1.5 7.3q5.1 2.2 5.1 2.2zm-1.7 7.2q0 0-5.1-2.2l-1.6 7.2q5 2.2 5 2.2zm-1.6 7.2q0 0-5-2.3l-1.6 7.3q4.9 2.1 4.9 2.1zm-1.6 7.2q0 0-4.9-2.2l-1.6 7.3q4.8 2.1 4.8 2.1zm-1.7 7.2q0 0-4.8-2.1l-1.5 7.2q4.7 2 4.7 2zm-1.7 7.2q0 0-4.7-2l-1.5 7.2q4.5 2 4.5 2zm-1.6 7.2q0 0-4.6-2l-1.6 7.5q4.4 2 4.5 2zm-1.8 7.4q0 0-4.4-1.9l-1.7 7.5q4.4 1.9 4.4 1.9zm-1.7 7.5q0 0-4.4-1.9l-1.6 7.5q4.2 1.9 4.2 1.9zm-1.7 7.4q0 0-4.3-1.8l-1.6 7.5q4.2 1.8 4.2 1.8zm-1.8 7.5q0 0-4.1-1.8l-2 9.1q4 1.8 4 1.8zm45.2 45c-1.8 0-3.7-0.3-5.5-1-7.6-2.8-11.4-11.3-8.5-18.9l0.4-1.1q0 0 0-0.1l-21.7-9.5q0 0 0 0.1l-2.1 7.3c-5.5 19.6 5.9 40 25.5 45.5 3.9 1.1 8.1 1.6 11.9 1.4q0.1 0 0.1 0v-23.7q0 0-0.1 0zm0.1 36.8q0 0 0 4.4l9.4-0.7q0-4.4 0-4.4zm9.3-0.6q0 0 0 4.3l12.3-0.9q0-4.3 0-4.2zm12.2-0.9q0 0 0 4.3l12.3-1q0-4.1 0-4.1zm12.3-0.9q0 0 0 4.2l12.3-0.9q0-4.1 0-4.1zm12.3-0.9q0 0 0 4.1l12.3-0.9q0-4 0-4zm12.2-0.9q0 0 0 4.1l12.3-0.9q0-4 0-4zm12.3-0.8q0 0 0 3.9l12.3-0.9q0-3.9 0-3.9zm12.3-0.8q0 0 0 3.9l12.2-0.9q0-3.9 0-3.9zm17.8 0.2l-3.9 1.5-0.5 0.8 3.4-0.6zm0.7-1.4q0 0-0.5 3.8l-1.8 0.1q1.6-3.8 1.6-3.8zm-0.7 0.1q0 0-1.6 3.8l-1.9 0.2q2.7-3.8 2.7-3.8zm-0.7 0.1q0 0-2.7 3.8l-2 0.1q3.9-3.8 3.9-3.8zm-0.8 0.2q0 0-3.9 3.8l-1.9 0.1q5-3.8 5-3.8zm-0.7 0.1q0 0-5.1 3.9h-0.4q5.3-3.8 5.3-3.8zm-0.2 0q0 0 0 0 0 0 0 0 0 0-5.3 3.8 0 0 0 0 5.3-3.8 5.3-3.8 0 0 0 0zm0 0q0 0-5.3 3.8 4.9-3.2 4.9-3.2zm-0.4 0.7q0 0-4.9 3.2 4.4-2.4 4.4-2.4zm-0.5 0.9q0 0-4.4 2.3 3.9-1.5 3.9-1.5zm-0.6 0.9q0 0-3.9 1.5 3.4-0.7 3.4-0.7zm-0.5 0.8q0 0-3.4 0.7 2.9 0.2 2.9 0.2zm-0.5 0.8q0 0-2.9-0.2 2.4 1.1 2.4 1.1zm-1.4 2.7c0.8-2 0.7-1.7 0.8-1.8q0-0.1 0.1-0.1 0 0-2.4-1l-3.2 7.5q2.1 1.3 2.1 1.3c0 0 1.3-3 2.6-5.9zm-2.6 5.9q0 0-2.1-1.3l-5.1 11.7q2 1.2 2 1.2zm-5.2 11.7q0 0-2-1.2l-5 11.8q1.8 1.1 1.8 1.1zm-5.1 11.7q0 0-1.9-1.1l-5.1 11.7q1.8 1.1 1.8 1.1zm-5.2 11.6q0 0-1.7-1l-5.1 11.7q1.6 1 1.6 1zm-5.1 11.7q0 0-1.7-1l-5 11.8q1.5 0.9 1.5 0.9zm-5.2 11.7q0 0-1.5-0.9l-5 11.7q1.3 0.9 1.3 0.9zm-5.2 11.6q0 0-1.3-0.8l-0.5 1.1q1.3 0.9 1.3 0.9zm-0.5 1.1q0 0-1.3-0.8 0 0-4.6 10.6 1.3 0.8 1.3 0.8 4.6-10.6 4.6-10.6z"/>
						<g id="&lt;Clip Group&gt;" clip-path="url(#cp4)">
							<path id="&lt;Mesh&gt;" fill-rule="evenodd" class="s5" d="m379.9 637.9q-7.3-4.5-7.3-4.5l-6.8 9.2q0 0 6.7 4.2zm-7.4 8.8q-6.7-4.1-6.7-4.1l-44.4 60.4q0 0 2.8 1.7zm0.1-13.4l-7.3-4.5-6.2 9.6 6.7 4.2zm-6.8 9.2l-6.7-4.1-40.5 62.7 2.8 1.7zm-0.5-13.7l-7.3-4.5-5.6 10 6.7 4.1zm-6.2 9.6l-6.7-4.1-36.6 65.1 2.8 1.8zm-1.1-14.1l-7.3-4.5-5.1 10.3 6.8 4.1zm-5.6 10l-6.8-4.1-32.6 67.5 2.8 1.7zm-1.7-14.4l-1.4-0.9-4.9 10.5 1.3 0.7zm-5.1 10.4l-1.2-0.8-31.9 68 0.5 0.3zm3.6-11.2l-1.3-0.8-4.8 10.5 1.2 0.7zm-4.9 10.5l-1.2-0.8-31.2 68.4 0.5 0.3zm3.5-11.2l-1.3-0.8-4.7 10.5 1.2 0.8zm-4.7 10.5l-1.3-0.8-30.5 68.9 0.5 0.3zm3.5-11.3q0 0-1.4-0.9l-4.6 10.7q1.3 0.7 1.3 0.7zm-4.7 10.6q0 0-1.2-0.8l-29.8 69.3q0.5 0.4 0.5 0.4z"/>
						</g>
					</g>
				</g>
				<g id="&lt;Group&gt;">
					<path id="&lt;Path&gt;" fill-rule="evenodd" class="s6" d="m40.2-287.5c165.6 0 304.4 114.6 341.7 268.7 30.1-14.5 63.7-23 99.4-23 126.3 0 228.8 102.5 228.8 228.8 0 126.4-102.5 228.8-228.8 228.8h-441.1c-194.3 0-351.7-157.5-351.7-351.7 0-194.2 157.4-351.6 351.7-351.6z"/>
					<path id="&lt;Path&gt;" fill-rule="evenodd" class="s7" d="m-4.9 48.5c91.6-74.3 127.4-187.4 79.9-252.6-47.5-65.3-160.3-58-251.9 16.2-91.5 74.3-127.2 187.5-79.8 252.7 47.5 65.3 160.3 58 251.8-16.3z"/>
					<path id="&lt;Path&gt;" fill-rule="evenodd" class="s8" d="m455.9 145c50.3-40.9 69.9-103 43.8-138.9-26.1-35.8-88-31.8-138.4 9-50.3 40.8-69.9 103-43.8 138.8 26.1 35.9 88 31.9 138.4-8.9z"/>
					<path id="&lt;Path&gt;" fill-rule="evenodd" class="s9" d="m567.5 233.9c55.4-56 112.5-77.8 127.8-48.9 15.1 28.9-17.5 97.8-72.8 153.8-55.3 56-112.5 77.9-127.7 48.9-15.2-29 17.3-97.8 72.7-153.8z"/>
				</g>
			</g>
			<g id="&lt;Group&gt;">
				<g id="&lt;Group&gt;">
					<path id="&lt;Path&gt;" fill-rule="evenodd" class="s10" d="m-76.1 447c-13.3 23-42.7 30.8-65.6 17.5-23-13.2-30.8-42.6-17.6-65.5 13.3-23 95.3-69 95.3-69 0 0 1.1 94-12.1 117z"/>
					<path id="&lt;Path&gt;" fill-rule="evenodd" class="s11" d="m-157.9 439c-7.4-19.4-2.9-39.9 10.1-45.7 13-5.8 29.6 5.3 37.1 24.7 7.4 19.5 2.9 40-10.1 45.7-13.1 5.8-29.6-5.2-37.1-24.7z"/>
				</g>
				<g id="&lt;Group&gt;">
					<path id="&lt;Path&gt;" fill-rule="evenodd" class="s12" d="m125.8 447c-13.2 23-42.6 30.8-65.5 17.5-23-13.2-30.9-42.6-17.6-65.5 13.3-23 95.2-69 95.2-69 0 0 1.2 94-12.1 117z"/>
					<path id="&lt;Path&gt;" fill-rule="evenodd" class="s13" d="m44.1 439c-7.4-19.4-2.9-39.9 10.1-45.7 13-5.8 29.6 5.3 37.1 24.7 7.4 19.5 2.9 40-10.1 45.7-13.1 5.8-29.7-5.2-37.1-24.7z"/>
				</g>
				<g id="&lt;Group&gt;">
					<path id="&lt;Path&gt;" fill-rule="evenodd" class="s14" d="m327.8 447c-13.2 23-42.6 30.8-65.5 17.5-23-13.2-30.9-42.6-17.6-65.5 13.2-23 95.2-69 95.2-69 0 0 1.2 94-12.1 117z"/>
					<path id="&lt;Path&gt;" fill-rule="evenodd" class="s15" d="m246.1 439c-7.5-19.4-3-39.9 10.1-45.7 13-5.8 29.6 5.3 37.1 24.7 7.4 19.5 2.9 40-10.2 45.7-13 5.8-29.6-5.2-37-24.7z"/>
				</g>
				<g id="&lt;Group&gt;">
					<path id="&lt;Path&gt;" fill-rule="evenodd" class="s16" d="m529.8 447c-13.2 23-42.6 30.8-65.6 17.5-22.9-13.2-30.8-42.6-17.6-65.5 13.3-23 95.3-69 95.3-69 0 0 1.2 94-12.1 117z"/>
					<path id="&lt;Path&gt;" fill-rule="evenodd" class="s17" d="m448.1 439c-7.5-19.4-3-39.9 10.1-45.7 13-5.8 29.6 5.3 37 24.7 7.5 19.5 3 40-10.1 45.7-13 5.8-29.6-5.2-37-24.7z"/>
				</g>
			</g>
		</g>
	</g>
</svg>