<svg version="1.2" xmlns="http://www.w3.org/2000/svg" viewBox="-312 -303 1024 1024" width="1024" height="1024">
	<title>5544715</title>
	<defs>
		<clipPath clipPathUnits="userSpaceOnUse" id="cp1">
			<path d="m-70.81 324.95l0.91-4.3c10.26-48.73 57.21-79.72 104.87-69.23 47.65 10.5 77.97 58.5 67.71 107.23-2.58 12.26-7.76 23.75-14.41 33.38l-2.48 3.58z"/>
		</clipPath>
		<linearGradient id="g1" x2="1" gradientUnits="userSpaceOnUse" gradientTransform="matrix(-61.982,-27.971,30.945,-71.691,300.983,86.81)">
			<stop offset="0" stop-color="#ffffff"/>
			<stop offset="1" stop-color="#ff9222"/>
		</linearGradient>
		<linearGradient id="g2" x2="1" gradientUnits="userSpaceOnUse" gradientTransform="matrix(-33.956,-15.323,14.137,-32.754,92.551,385.891)">
			<stop offset="0" stop-color="#ffffff"/>
			<stop offset="1" stop-color="#ff9222"/>
		</linearGradient>
		<clipPath clipPathUnits="userSpaceOnUse" id="cp2">
			<path d="m43.1 647.12l-7.39 9.07c-6.65 8.15-18.52 9.26-26.51 2.45-6.54-5.57-8.43-14.75-5.23-22.37l4.56-10.85z"/>
		</clipPath>
		<linearGradient id="g3" x2="1" gradientUnits="userSpaceOnUse" gradientTransform="matrix(-7.294,-4.573,9.472,-15.798,43.098,647.124)">
			<stop offset="0" stop-color="#ffffff"/>
			<stop offset="1" stop-color="#ff9222"/>
		</linearGradient>
		<clipPath clipPathUnits="userSpaceOnUse" id="cp3">
			<path d="m263.99 324.95l0.9-4.3c10.26-48.73 57.22-79.72 104.87-69.23 47.66 10.5 77.98 58.5 67.72 107.23-2.58 12.26-7.76 23.75-14.41 33.38l-2.49 3.58z"/>
		</clipPath>
		<linearGradient id="g4" x2="1" gradientUnits="userSpaceOnUse" gradientTransform="matrix(-61.982,-27.971,30.945,-71.691,635.78,86.81)">
			<stop offset="0" stop-color="#ffffff"/>
			<stop offset="1" stop-color="#ff9222"/>
		</linearGradient>
		<linearGradient id="g5" x2="1" gradientUnits="userSpaceOnUse" gradientTransform="matrix(-33.955,-15.323,14.139,-32.756,427.348,385.891)">
			<stop offset="0" stop-color="#ffffff"/>
			<stop offset="1" stop-color="#ff9222"/>
		</linearGradient>
		<clipPath clipPathUnits="userSpaceOnUse" id="cp4">
			<path d="m377.87 647.12l-7.39 9.07c-6.65 8.15-18.52 9.26-26.5 2.45-6.54-5.57-8.43-14.75-5.24-22.37l4.56-10.85z"/>
		</clipPath>
		<linearGradient id="g6" x2="1" gradientUnits="userSpaceOnUse" gradientTransform="matrix(-7.293,-4.573,9.472,-15.795,377.872,647.124)">
			<stop offset="0" stop-color="#ffffff"/>
			<stop offset="1" stop-color="#ff9222"/>
		</linearGradient>
		<radialGradient id="g7" cx="0" cy="0" r="1" gradientUnits="userSpaceOnUse" gradientTransform="matrix(580.89,663.829,649.222,-593.959,-92.673,-198.506)">
			<stop offset="0" stop-color="#bad0d6"/>
			<stop offset=".198" stop-color="#9bbac2"/>
			<stop offset="1" stop-color="#5d8bb8"/>
		</radialGradient>
		<radialGradient id="g8" cx="0" cy="0" r="1" gradientUnits="userSpaceOnUse" gradientTransform="matrix(85.787,120.579,165.46,-137.198,-91.869,-74.747)">
			<stop offset="0" stop-color="#ffffff"/>
			<stop offset="1" stop-color="#ffffff" stop-opacity="0"/>
		</radialGradient>
		<radialGradient id="g9" cx="0" cy="0" r="1" gradientUnits="userSpaceOnUse" gradientTransform="matrix(47.149,66.272,90.939,-75.406,406.486,77.993)">
			<stop offset="0" stop-color="#ffffff"/>
			<stop offset="1" stop-color="#ffffff" stop-opacity="0"/>
		</radialGradient>
		<radialGradient id="g10" cx="0" cy="0" r="1" gradientUnits="userSpaceOnUse" gradientTransform="matrix(-41.449,-27.528,-82.193,109.984,592.488,288.496)">
			<stop offset="0" stop-color="#ffffff"/>
			<stop offset="1" stop-color="#ffffff" stop-opacity="0"/>
		</radialGradient>
	</defs>
	<style>
		.s0 { fill: url(#g1) } 
		.s1 { fill: url(#g2) } 
		.s2 { fill: url(#g3) } 
		.s3 { fill: url(#g4) } 
		.s4 { fill: url(#g5) } 
		.s5 { fill: url(#g6) } 
		.s6 { fill: url(#g7) } 
		.s7 { opacity: .5;mix-blend-mode: overlay;fill: url(#g8) } 
		.s8 { opacity: .3;mix-blend-mode: overlay;fill: url(#g9) } 
		.s9 { opacity: .2;mix-blend-mode: overlay;fill: url(#g10) } 
	</style>
	<g id="OBJECTS">
		<g id="&lt;Group&gt;">
			<g id="&lt;Group&gt;">
				<g id="&lt;Group&gt;">
					<g id="&lt;Clip Group&gt;" clip-path="url(#cp1)">
						<path id="&lt;Mesh&gt;" fill-rule="evenodd" class="s0" d="m301 86.8q-62-28-62-28l-180.4 311.8q0 0 34 15.3zm-208.5 299.1q-33.9-15.4-33.9-15.4l-3.7 6.4q0 0.1 33.3 15.1zm-4.2 6.2q-33.4-15.1-33.4-15.1l-2.2 3.7q0 0 33.1 14.9zm150.7-333.2l-62-27.9-152.4 324.3 34 15.4zm-180.4 311.7l-34-15.3-3.1 6.6 33.4 15.1zm-3.7 6.4l-33.4-15.1-1.8 3.9 33 14.9zm122.2-346.1l-62-27.9-124.4 337 34 15.3zm-152.4 324.4l-33.9-15.4-2.6 7 33.4 15zm-3.1 6.7l-33.4-15.1-1.5 4.1 33 14.9zm93.6-359l-62-28-96.3 349.7 33.9 15.3zm-124.3 337l-34-15.3-2 7.2 33.4 15zm-2.5 6.9l-33.4-15-1.2 4.1 33.1 15zm64.9-371.9l-11.5-5.2-91.1 352 6.3 2.8zm-96.3 349.7l-6.3-2.8-1.9 7.2 6.2 2.8zm-2 7.2l-6.1-2.8-1.1 4.2 6.1 2.7zm86.8-362l-11.4-5.2-86 354.4 6.3 2.8zm-91.1 352l-6.3-2.8-1.8 7.3 6.2 2.8zm-1.9 7.2l-6.2-2.8-1 4.2 6.1 2.8zm81.6-364.4l-11.5-5.2-80.8 356.7 6.3 2.8zm-85.9 354.4l-6.3-2.9-1.7 7.4 6.2 2.7zm-1.8 7.3l-6.1-2.8-1 4.3 6.1 2.7zm76.3-366.7q0 0-11.5-5.2l-75.6 359q6.3 2.8 6.3 2.8zm-80.8 356.7q0 0-6.2-2.8l-1.6 7.3q6.2 2.8 6.2 2.8zm-1.7 7.4q0 0-6.2-2.8l-0.9 4.3q6.2 2.7 6.1 2.7z"/>
					</g>
					<path id="&lt;Mesh&gt;" fill-rule="evenodd" class="s1" d="m92.6 385.9q-34-15.3-34-15.3-3.7 6.4-3.7 6.4 0 0 33.4 15 0 0 4.3-6.1zm-4.3 6.1q-33.4-15-33.4-15l-2.2 3.7q0 0 33.1 14.9zm-2.5 3.6q-33-14.9-33-14.9l-1.6 2.6q0 0 32.8 14.9zm-1.8 2.5q-32.8-14.8-32.8-14.8l-3.7 6.4q0 0 32.2 14.6zm-4.2 6.1q-32.3-14.6-32.3-14.6l-3.7 6.4q0 0 31.7 14.3zm-4.3 6.2q-31.7-14.3-31.6-14.3l-3.8 6.4q0 0 31.1 14zm-4.3 6.2q-31-14.1-31-14.1l-3.7 6.4q0 0 30.5 13.8zm-4.3 6.1q-30.5-13.7-30.5-13.7l-3.7 6.4q0 0 29.9 13.5zm-4.3 6.1q-29.9-13.5-29.9-13.5l-3.7 6.4q0 0 29.3 13.3zm-4.2 6.1q-29.4-13.2-29.4-13.2l-3.7 6.4q0 0 28.8 12.9zm-4.3 6.2q-28.8-13-28.8-13c0 0-0.9 1.6-1.8 3.2-1 1.6-0.8 1.7-1 1.9q0 0 28.9 11.7zm-2.7 3.9q-28.8-11.8-28.8-11.8l-1.3 2.9q0 0 30.1 8.9zm0 0q-30.1-8.9-30.1-8.9l-1.2 2.8q0 0 31.3 6.1zm0 0q-31.3-6.1-31.3-6.1l-1.2 2.9q0 0 32.5 3.2zm0 0q-32.5-3.2-32.5-3.2l-1.3 2.8q0 0 33.8 0.4zm0 0q-33.8-0.4-33.8-0.4l-1.2 2.9q0 0 35-2.5zm0 0q-42.9 20.8-42.9 20.8 0 0.1 0 0.1 0 0 0 0 0 0 42.9-20.9 0 0 0 0zm0 0q-41.4 17.2-41.4 17.2l-1.5 3.6q0 0 42.9-20.8zm0 0q-40.1 14.3-40.1 14.3l-1.3 2.9q0 0 41.4-17.2zm0 0q-38.8 11.3-38.8 11.3l-1.3 3q0 0 40.1-14.3zm0 0q-37.5 8.3-37.5 8.3l-1.3 3q0 0 38.8-11.3zm0 0q-36.2 5.3-36.2 5.3l-1.3 3q0 0 37.5-8.3zm0 0q-35 2.5-35 2.5l-1.2 2.8q0 0 36.2-5.3zm0 0q-42.9 20.9-42.9 20.9l3.4-0.1q0 0 38.6-20.9zm-0.9 0q-38.6 20.9-38.6 20.9l4.5-0.1q0 0 33-20.9zm-1.2-0.1q-32.9 20.9-32.9 20.9h4.5q0 0 27.2-21zm-1.1-0.1q-27.3 21-27.3 21h4.5q0-0.1 21.6-21.1zm-1.2-0.1q-21.6 21.1-21.6 21.1l4.5-0.1q0 0 16-21zm-1.2-0.1q-15.9 21-15.9 21h4.5q-0.1 0 10.2-21.1zm-1.1-0.1q-10.3 21.1-10.3 21.1l4.5-0.1q0 0 4.6-21.1zm-1.8-0.1c-0.7-0.1 0.1 0 0 0 0.3 0 0.6 0 0.6 0q-4.6 21.1-4.6 21.1c0.3 0.1 3.6-0.1 6 0.1q0 0 0-21.1c0 0-0.8 0-2-0.1zm2 0.1q0 21.1 0 21.1l12.2 0.5q0 0 0-20.7zm12.3 1q0 20.7 0 20.7l12.2 0.5q0 0 0-20.3zm12.3 0.9q0 20.3 0 20.3l12.2 0.6q0 0 0-19.9zm12.3 0.9q0 19.9 0 19.9l13.2 0.6q0 0 0-19.5zm13.3 1q0 19.5 0 19.5l13.2 0.6q0 0 0-19.1zm13.2 1q0 19.1 0 19.1l2.8 0.1q0 0 0-19zm40.4 68.7c5.2-6.4 8.6-14.5 9.3-23.4 1.6-22.8-15.1-42.6-37.4-44.3l-9.4-0.7q0 0-0.1-0.1 0 19 0 19 0.1 0 0.1 0l3.2 0.2c13.4 0.6 23.7 12.1 23.2 25.8-0.3 5.1-2 9.8-4.7 13.6q-0.1 0-0.1 0.1 0 0 15.8 9.9 0 0 0.1-0.1zm-0.1 0.1q-15.8-9.9-15.8-9.9l-5.8 8q0 0 15.3 9.6zm-6.3 7.8q-15.3-9.6-15.3-9.6l-7.5 10.4q0 0 14.6 9.2zm-8.2 10q-14.6-9.2-14.6-9.2l-7.5 10.5q0 0 14 8.7zm-8.2 10.1q-14-8.8-14-8.8l-7.5 10.4q0 0 13.3 8.4zm-8.2 10q-13.3-8.3-13.3-8.3l-7.5 10.4q0 0 12.7 7.9zm-8.2 10.1q-12.7-8-12.7-8l-7.5 10.5q0 0 12 7.5zm-8.2 10q-12-7.5-12-7.5l-7.5 10.5q0 0 11.4 7.1zm-8.2 10q-11.3-7.1-11.3-7.1l-7.6 10.4q0 0 10.7 6.7zm-8.2 10.1q-10.6-6.7-10.6-6.7l-7.6 10.4q0.1 0 10.1 6.3zm-8.2 10q-10-6.3-10-6.3l-7.5 10.5q0 0 9.3 5.8zm-8.2 10.1q-9.3-5.9-9.3-5.9l-7.5 10.4q0 0 8.7 5.5zm-8.2 10q-8.7-5.4-8.7-5.4l-7.5 10.4q0 0 8 5zm-8.2 10.1q-8-5.1-8-5.1l-7.5 10.5q0 0 7.3 4.6zm-8.1 10q-7.4-4.6-7.4-4.6l-0.7 1q0 0 7.3 4.6zm-0.8 1q-7.3-4.6-7.3-4.6 0 0-6.8 9.4 0 0 6.7 4.2 7.4-9 7.4-9zm15.5-276.6l-34-15.3q-3.1 6.6-3.1 6.6l33.4 15.1q0 0 3.7-6.4zm-3.7 6.4l-33.4-15.1-1.8 3.9 33 14.9zm-2.1 3.7l-33.1-14.9-1.3 2.8 32.8 14.8zm-1.5 2.7l-32.8-14.8-3.1 6.7 32.2 14.5zm-3.7 6.4l-32.3-14.5-3.1 6.6 31.7 14.3zm-3.7 6.4l-31.7-14.3-3.1 6.7 31.1 14zm-3.7 6.4l-31.1-14-3.1 6.7 30.5 13.7zm-3.7 6.4l-30.5-13.8-3.2 6.7 30 13.5zm-3.8 6.4l-29.9-13.5-3.1 6.7 29.3 13.2zm-3.7 6.4l-29.3-13.2-3.1 6.6 28.7 13zm-5.5 9.6c0.9-1.6 1.8-3.2 1.8-3.2l-28.7-13-2.9 6.3 28.8 11.8c0.2-0.2 0-0.3 1-1.9zm-1 1.9l-28.8-11.8-2.5 5.7 30.1 8.9zm-1.2 2.9l-30.1-8.9-2.5 5.7 31.4 6zm-1.3 2.9l-31.3-6.1-2.5 5.7 32.6 3.2zm-1.2 2.9l-32.6-3.2-2.5 5.7 33.8 0.3zm-1.2 2.9l-33.8-0.4-2.5 5.7 35.1-2.5zm-1.3 2.9l-35 2.5-2.4 5.7 36.2-5.3zm-1.2 2.8l-36.3 5.3-2.5 6 37.5-8.3zm-1.3 2.9l-37.5 8.4-2.6 5.9 38.8-11.3zm-1.2 3l-38.9 11.3-2.5 5.9 40.1-14.3zm-1.3 3l-40.1 14.3-2.6 5.9 41.4-17.2zm-1.3 3l-41.4 17.2-3.1 7.2 43-20.8zm-1.6 3.6q0 0 0 0l-42.9 20.8q0 0.1-0.1 0.1 0 0 0 0 0.1 0 0.1 0l42.9-20.9q0 0 0 0zm0 0l-42.9 20.9h7.7l38.6-20.9zm3.5 0l-38.6 20.9 10.1-0.1 33-20.9zm4.5-0.1l-33 21h10.2l27.3-21zm4.4-0.1l-27.2 21h10.1l21.6-21zm4.5-0.1l-21.6 21.1 10.2-0.1 15.9-21zm4.5-0.1l-15.9 21.1h10.2l10.2-21.1zm4.5-0.1l-10.2 21.1h10.1l4.6-21.1zm4.5-0.1l-4.6 21.2h10.6v-21.1c-2.4-0.2-5.6-0.1-6-0.1zm6 0.1v21.1l12.2 0.1v-20.7zm12.3 0.6v20.7l12.3 0.1v-20.3zm12.2 0.5v20.4l12.3 0.1v-19.9zm12.2 0.5v19.9l13.3 0.2v-19.5zm13.2 0.6v19.5l13.2 0.1v-19zm13.2 0.5v19.1h2.8v-18.9zm24.6 39.7c2.8-3.9 4.5-8.5 4.7-13.6 0.6-13.7-9.8-25.3-23.2-25.8l-3.2-0.2q0 0-0.1 0v19q0.1 0 0.1 0h0.3c3.7 0 6.7 3.2 6.7 7-0.1 1.3-0.5 2.6-1.1 3.6q-0.1 0.1-0.1 0.2l15.8 9.9q0.1-0.1 0.1-0.1zm-0.1 0.1l-15.8-9.9-5.3 8.3 15.3 9.6zm-5.8 8.1l-15.3-9.6-6.8 10.8 14.6 9.2zm-7.5 10.4l-14.6-9.1-6.9 10.8 14 8.8zm-7.5 10.4l-14-8.7-6.8 10.8 13.3 8.4zm-7.6 10.4l-13.3-8.3-6.8 10.8 12.6 8zm-7.5 10.4l-12.6-7.9-6.9 10.8 12 7.5zm-7.5 10.5l-12-7.5-6.9 10.8 11.4 7.1zm-7.5 10.5l-11.4-7.1-6.8 10.8 10.6 6.7zm-7.5 10.5l-10.6-6.7-6.9 10.8 10 6.3zm-7.5 10.4l-10-6.2-6.9 10.8 9.4 5.9zm-7.5 10.4l-9.4-5.8-6.8 10.8 8.7 5.5zm-7.6 10.4l-8.6-5.4-6.9 10.8 8 5.1zm-7.5 10.4l-8-5-6.9 10.8 7.4 4.7zm-7.5 10.4l-7.4-4.6-0.6 1 7.3 4.6zm-0.8 1l-7.3-4.6q0 0-6.2 9.8l6.7 4.2q6.8-9.4 6.8-9.4zm-11.1-287.3l-34-15.3q-2.5 6.9-2.5 6.9l33.3 15.1q0 0 3.2-6.7zm-3.2 6.7l-33.3-15.1-1.5 4 33 14.9zm-1.8 3.9l-33-14.9-1.1 2.9 32.8 14.8zm-1.3 2.8l-32.8-14.8-2.6 6.9 32.3 14.6zm-3.2 6.6l-32.2-14.5-2.6 6.9 31.7 14.3zm-3.1 6.6l-31.7-14.3-2.5 7 31 14zm-3.1 6.6l-31.1-14-2.5 6.9 30.5 13.8zm-3.1 6.7l-30.5-13.8-2.6 6.9 29.9 13.5zm-3.1 6.7l-29.9-13.5-2.6 6.9 29.4 13.2zm-3.2 6.7l-29.3-13.2-2.6 6.9 28.8 13zm-3.1 6.6l-28.8-13-2.5 7 28.4 12.3zm-2.9 6.3l-28.4-12.3-2.6 6.9 28.6 11.1zm-2.5 5.7l-28.5-11.1-2.6 6.9 28.6 9.9zm-2.4 5.7l-28.6-9.9-2.6 6.9 28.7 8.7zm-2.4 5.7l-28.8-8.7-2.5 6.9 28.8 7.5zm-2.5 5.8l-28.8-7.6-2.5 7 28.9 6.3zm-2.5 5.7l-28.9-6.3-2.5 6.9 29 5.1zm-2.5 5.7l-29-5.1-2.7 7.2 29.1 3.8zm-2.5 5.9l-29.1-3.8-2.7 7.3 29.2 2.5zm-2.6 5.9l-29.2-2.5-2.6 7.2 29.3 1.3zm-2.6 5.9l-29.3-1.3-2.6 7.2h29.3zm-2.5 6h-29.4l-3.2 8.7 29.5-1.5zm-3.2 7.3q0 0 0 0 0 0 0-0.1l-29.4 1.6q-0.1 0-0.1 0.1l-0.4 1.1c-2.8 7.7 1 16.4 8.6 19.3 1.8 0.7 3.6 1 5.4 1q0.1 0 0.2 0l15.8-23q0 0-0.1 0zm0.1 0l-15.8 23 9.3-0.2 14.2-22.8zm7.7 0l-14.2 22.8 12.2-0.3 12.2-22.5zm10.2 0l-12.2 22.5 12.2-0.2 10.1-22.3zm10.2-0.1l-10.1 22.3 12.3-0.2 8-22.1zm10.1 0l-8 22.1 12.3-0.3 5.9-21.8zm10.1 0l-5.8 21.8 12.2-0.2 3.8-21.6zm10.2 0l-3.8 21.6 12.2-0.3 1.7-21.4zm10.2 0l-1.7 21.4 12.3-0.3v-21.1zm10.5 0.1v21.1c0 0 3.1-0.1 6.1-0.2 2.2 0 4.4 0 4.4 0l1.8-20.8zm12.2 0.2l-1.7 20.8h8.5l5.5-20.7zm12.2 0.1l-5.4 20.8h8.5l9.2-20.6zm12.3 0.1l-9.3 20.7h9.2l13.3-20.5zm13.2 0.1l-13.3 20.5 9.2 0.1 17.3-20.4zm13.3 0.2l-17.4 20.3 2 0.1 18.2-20.4zm8.7 10.7c0.7-1.1 1.1-2.3 1.1-3.7 0-3.8-3-6.9-6.7-7h-0.2q-0.1 0-0.1 0l-18.2 20.4q0 0 0.1 0-0.1 0-0.1 0.1l24-9.7q0.1 0 0.1-0.1zm-0.1 0.1l-24 9.7-3.7 6.2 22.5-7.5zm-5.3 8.3l-22.5 7.6-4.8 8 20.4-4.7zm-6.8 10.9l-20.5 4.7-4.9 8.1 18.5-2zm-6.8 10.9l-18.5 1.9-4.9 8.1 16.5 0.8zm-6.8 10.9l-16.5-0.8-4.9 8 14.5 3.6zm-6.8 10.9l-14.5-3.6-4.9 8.1 12.5 6.4zm-6.8 10.8l-12.5-6.4c-0.1 0.2-1 1.6-2.6 4.5-1.6 2.9-3.1 5.7-3.1 5.7l11.3 7.1zm-6.9 10.8l-11.3-7.1-6.2 11.3 10.7 6.7zm-6.9 10.8l-10.6-6.6-6.2 11.2 10 6.3zm-6.9 10.9l-10-6.3-6.2 11.3 9.4 5.8zm-6.9 10.9l-9.3-5.9-6.2 11.3 8.7 5.4zm-6.9 10.9l-8.7-5.4-6.2 11.2 8.1 5.1zm-6.9 10.8l-8-5-6.2 11.2 7.4 4.7zm-6.9 10.8l-7.4-4.6-0.6 1.1 7.3 4.6zm-0.6 1l-7.3-4.6q0 0-5.6 10.2l6.7 4.2q6.2-9.8 6.2-9.8zm-37.8-298l-34-15.3q-2 7.1-2 7.1l33.4 15.1q0 0 2.6-6.9zm-2.6 6.9l-33.4-15.1-1.1 4.2 33 14.9zm-1.5 4l-33-14.9-0.8 3 32.8 14.8zm-1.1 2.9l-32.8-14.8-2 7.2 32.3 14.6zm-2.6 6.9l-32.2-14.6-2 7.2 31.6 14.3zm-2.5 6.9l-31.7-14.3-1.9 7.2 31 14zm-2.5 7l-31.1-14.1-2 7.2 30.5 13.8zm-2.5 6.9l-30.5-13.8-2 7.2 29.9 13.5zm-2.5 6.9l-30-13.5-1.9 7.2 29.3 13.2zm-2.5 7l-29.4-13.3-2 7.2 28.8 13zm-2.5 6.9l-28.8-13-2 7.2 28.2 12.7zm-2.5 7l-28.2-12.8-2 7.2 27.6 12.5zm-2.5 6.9l-27.7-12.5-1.9 7.2 27 12.2zm-2.5 6.9l-27.1-12.2-2 7.2 26.5 12zm-2.6 6.9l-26.4-12-2 7.2 25.9 11.7zm-2.6 6.9l-25.9-11.7-1.9 7.2 25.3 11.4zm-2.6 6.9l-25.3-11.4-2 7.2 24.8 11.2zm-2.6 6.9l-24.7-11.2-2.1 7.5 24.2 10.9zm-2.7 7.2l-24.1-10.9-2.1 7.5 23.6 10.6zm-2.7 7.2l-23.6-10.6-2 7.5 22.9 10.3zm-2.6 7.2l-23-10.3-2 7.4 22.3 10.1zm-2.6 7.2l-22.4-10-2.5 9.1 21.6 9.7zm10.4 67.8c-4.6 0.3-9.5 0-14.2-1.2-26-6.1-42.2-32.6-36.1-59.2l3.1-13.7q0 0 0-0.1 0 0-4-1.8 0 0.1 0 0.1l-3.4 16.2c-6.1 28.7 11.8 56.9 39.8 63.1 4.9 1.1 10 1.4 14.8 1.1q0 0 0.1 0 0-4.5 0-4.5-0.1 0-0.1 0zm0.1-37.5v24.1l9.3-0.5v-23.8zm9.3-0.2v23.8l12.3-0.6v-23.5zm12.2-0.2v23.4l12.3-0.6v-23.1zm12.2-0.2v23.1l12.3-0.7v-22.7zm12.2-0.2v22.7l12.3-0.7v-22.3zm12.3-0.2v22.3l12.2-0.7v-21.9zm12.3-0.2v21.9l12.2-0.7v-21.5zm12.3-0.2v21.5l12.2-0.7v-21.1zm18.4-0.3c-3 0-6.1 0.1-6.1 0.1v21.1c0 0 3.1-0.2 6.1-0.3 0.8 0 1.7 0 1.7 0l2.7-20.9c0 0-2.2 0-4.4 0zm4.4 0l-2.7 20.9 2.5 0.1 8.7-21zm8.5 0.1l-8.7 20.9 2.6 0.1 14.6-21zm8.6 0l-14.7 21.1 2.8 0.1 21-21.1zm9.2 0l-21 21.1 2.7 0.1 27.5-21.1zm9.2 0l-27.5 21.1 0.6 0.1 28.8-21.2zm2.1 0q-0.1 0-0.1 0l-28.9 21.2q0.1 0 0.1 0 0 0 0 0l28.8-21.1q0-0.1 0.1-0.1zm-0.1 0.1l-28.8 21.1-1.6 2.7 26.7-17.6zm-3.8 6.2l-26.7 17.6-2 3.4 23.9-12.9zm-4.9 8.1l-23.9 12.9-2 3.4 21.1-8.2zm-4.9 8.1l-21.1 8.2-2.1 3.4 18.4-3.6zm-4.9 8.1l-18.3 3.6-2.1 3.5 15.6 1zm-4.9 8.1l-15.5-1.1-2.1 3.5 12.8 5.7zm-7.5 12.5c1.6-2.9 2.5-4.3 2.6-4.5l-12.7-5.7c0 0-0.2 0.3-0.3 0.6-0.2 0.3-0.4 0.4-1.2 2.3-1.4 2.9-2.8 5.9-2.8 5.9l11.3 7.1c0 0 1.6-2.9 3.1-5.7zm-3.1 5.7l-11.3-7.1-5.5 11.6 10.6 6.7zm-6.2 11.3l-10.6-6.7-5.6 11.7 10 6.3zm-6.1 11.3l-10-6.3-5.6 11.7 9.4 5.8zm-6.2 11.3l-9.4-5.9-5.5 11.7 8.7 5.5zm-6.2 11.3l-8.7-5.5-5.5 11.7 8 5zm-6.2 11.3l-8-5-5.6 11.6 7.4 4.7zm-6.2 11.2l-7.3-4.6-0.6 1.1 7.3 4.6zm-0.6 1.1l-7.3-4.6q0 0-5 10.6l6.7 4.2q5.6-10.2 5.6-10.2zm-64.5-308.8l-6.2-2.8q-1.9 7.2-1.9 7.2l6.2 2.8q0 0 1.9-7.2zm-1.9 7.2l-6.2-2.8-1.1 4.2 6.1 2.8zm-1.1 4.1l-6.1-2.7-0.8 3 6 2.8zm-0.8 3l-6-2.8-1.9 7.3 5.9 2.6zm-1.9 7.2l-6-2.7-1.9 7.3 5.9 2.6zm-2 7.2l-5.8-2.7-1.9 7.3 5.7 2.6zm-2 7.1l-5.7-2.6-1.9 7.3 5.7 2.5zm-2 7.2l-5.6-2.5-1.9 7.2 5.5 2.5zm-2 7.2l-5.5-2.5-1.9 7.2 5.5 2.4zm-2 7.2l-5.4-2.4-1.9 7.2 5.3 2.4zm-2 7.2l-5.3-2.4-1.9 7.2 5.3 2.4zm-2 7.1l-5.2-2.3-1.9 7.2 5.1 2.3zm-2 7.2l-5.1-2.3-1.9 7.2 5 2.3zm-1.9 7.1l-5-2.2-1.9 7.2 4.9 2.2zm-2 7.2l-4.9-2.2-1.9 7.2 4.8 2.2zm-1.9 7.2l-4.8-2.2-1.9 7.2 4.7 2.1zm-2 7.2l-4.7-2.1-1.8 7.2 4.5 2.1zm-1.9 7.2l-4.6-2.1-2 7.5 4.5 2.1zm-2.1 7.4l-4.4-2-2 7.6 4.4 1.9zm-2.1 7.5l-4.3-2-2 7.6 4.3 1.9zm-2.1 7.4l-4.2-1.9-2 7.6 4.1 1.8zm-2 7.5l-4.2-1.9-2.3 9.2 4 1.8zm32.7 73.4c-4.4 0.3-9.1-0.1-13.5-1.2-23.9-6.1-38.4-30.8-32.5-55.2l2.7-11.4q0.1-0.1 0.1-0.1l-4-1.8q0 0.1 0 0.1l-3.2 13.7c-6 26.6 10.2 53.1 36.2 59.2 4.7 1.1 9.6 1.5 14.2 1.2q0 0 0.1 0v-4.5q-0.1 0-0.1 0zm0.1-8.9v4.5l9.3-0.6v-4.4zm9.3-0.5v4.4l12.2-0.7v-4.3zm12.3-0.7v4.4l12.3-0.8v-4.2zm12.2-0.6v4.2l12.3-0.7v-4.2zm12.2-0.6v4.2l12.3-0.8v-4.1zm12.2-0.6v4.1l12.3-0.7v-4.1zm12.3-0.6v4l12.2-0.7v-4zm12.3-0.6v4l12.2-0.7v-3.9zm18.4-1c-3 0.2-6.1 0.3-6.1 0.3v3.9c0 0 3.1-0.1 6.1-0.3 1.2-0.1 1 0 1.1 0l0.6-3.9c0 0-0.9 0-1.7 0zm1.7 0l-0.6 3.9 1.5 0.1 1.6-3.9zm2.6 0.1l-1.6 3.9 1.4 0.1 2.7-3.9zm2.6 0.1l-2.7 3.9 1.6 0.1 3.9-3.9zm2.8 0.1l-3.9 3.9 1.6 0.1 5-3.9zm2.8 0.1l-5.1 3.9 0.4 0.1 5.3-4zm0.6 0.1q0 0 0 0l-5.4 3.9q0.1 0 0.1 0 0 0-0.1 0l5.4-3.9q0 0 0 0zm0 0l-5.4 3.9-1.1 2 4.9-3.2zm-1.6 2.6l-4.9 3.2-1.6 2.6 4.4-2.4zm-2 3.5l-4.4 2.3-1.6 2.6 3.9-1.5zm-2 3.4l-4 1.6-1.5 2.5 3.4-0.6zm-2.1 3.4l-3.4 0.7-1.5 2.5 2.9 0.2zm-2.1 3.5l-2.9-0.2-1.5 2.5 2.3 1.1zm-3.5 6.3c0.8-1.9 1-2 1.2-2.3 0.2-0.4 0.3-0.6 0.3-0.6l-2.4-1c0 0-0.1 0.1-0.2 0.4-0.2 0.2-0.2 0.2-1.1 2.1-1.3 3-2.7 5.9-2.7 5.9l2.1 1.3c0 0 1.4-2.9 2.8-5.8zm-2.8 5.8l-2.1-1.3-5.4 11.8 2 1.2zm-5.6 11.7l-1.9-1.2-5.4 11.7 1.8 1.2zm-5.5 11.7l-1.9-1.2-5.4 11.8 1.7 1.1zm-5.5 11.7l-1.7-1.1-5.4 11.8 1.6 1zm-5.5 11.6l-1.6-1-5.5 11.8 1.5 0.9zm-5.5 11.7l-1.5-0.9-5.4 11.8 1.4 0.8zm-5.6 11.7l-1.3-0.9-0.5 1.2 1.3 0.8zm-0.5 1.1l-1.4-0.8q0 0-4.9 10.6l1.3 0.8q5-10.6 5-10.6zm-63.5-307l-6.3-2.8q-1.7 7.3-1.7 7.3l6.1 2.7q0 0 1.9-7.2zm-1.9 7.2l-6.1-2.7-1 4.2 6.1 2.7zm-1.1 4.2l-6.1-2.7-0.8 3 6.1 2.8zm-0.8 3l-6.1-2.7-1.7 7.2 5.9 2.7zm-1.8 7.2l-6-2.7-1.8 7.3 5.9 2.7zm-1.9 7.2l-5.8-2.7-1.8 7.3 5.7 2.6zm-1.8 7.2l-5.8-2.5-1.7 7.2 5.6 2.6zm-1.9 7.2l-5.6-2.5-1.8 7.2 5.6 2.5zm-1.9 7.3l-5.5-2.5-1.8 7.2 5.4 2.5zm-1.9 7.2l-5.4-2.4-1.7 7.2 5.3 2.4zm-1.9 7.3l-5.3-2.4-1.8 7.2 5.2 2.4zm-1.8 7.2l-5.2-2.3-1.8 7.2 5.1 2.3zm-1.9 7.3l-5.1-2.3-1.7 7.2 5 2.3zm-1.9 7.2l-5-2.2-1.8 7.2 4.9 2.2zm-1.9 7.3l-4.9-2.2-1.7 7.2 4.8 2.2zm-1.9 7.2l-4.8-2.1-1.8 7.2 4.7 2.2zm-1.8 7.2l-4.7-2.1-1.8 7.2 4.6 2.1zm-1.9 7.2l-4.6-2-1.8 7.6 4.5 2zm-2 7.5l-4.4-2-1.9 7.6 4.4 1.9zm-2 7.6l-4.3-2-1.9 7.6 4.3 1.9zm-2 7.5l-4.2-1.9-1.9 7.6 4.2 1.8zm-2 7.6l-4.1-1.9-2.2 9.2 3.9 1.8zm36.9 70.8c-4.1 0.3-8.5-0.1-12.7-1.3-21.8-5.9-34.7-28.6-29-50.8l2.4-9.4q0.1-0.1 0.1-0.1l-4-1.8q0 0 0 0.1l-2.8 11.4c-5.9 24.4 8.6 49.1 32.5 55.1 4.4 1.2 9.1 1.6 13.5 1.3q0 0 0.1 0v-4.5q-0.1 0-0.1 0zm0.1 0v4.5l9.3-0.6v-4.4zm9.3-0.6v4.5l12.3-0.8v-4.4zm12.2-0.7v4.4l12.3-0.8v-4.3zm12.2-0.7v4.2l12.3-0.7v-4.2zm12.2-0.7v4.2l12.3-0.8v-4.2zm12.3-0.7v4.1l12.2-0.8v-4zm12.3-0.7v4l12.2-0.8v-3.9zm12.3-0.7v3.9l12.2-0.8v-3.9zm18.4-1c-3 0.2-6.1 0.3-6.1 0.3v3.9c0 0 3.1-0.2 6.1-0.4 1 0 0.5 0.1 0.6 0.1l0.6-3.9c-0.2 0 0-0.1-1.2 0zm1.2 0l-0.6 3.9 0.4 0.1 1.6-3.9zm1.5 0.1l-1.6 3.9 0.4 0.1 2.7-3.9zm1.4 0.1l-2.7 3.9 0.4 0.1 3.9-3.9zm1.6 0.2l-3.9 3.8 0.4 0.2 5.1-3.9zm1.6 0.1l-5.1 3.9h0.1l5.3-3.9zm0.4 0q0 0-0.1 0l-5.3 3.9q0 0.1 0 0.1l5.3-3.9q0.1 0 0.1-0.1zm-0.1 0.1l-5.3 3.9-0.8 1.3 5-3.3zm-1.2 2l-5 3.3-1 1.7 4.4-2.4zm-1.5 2.6l-4.4 2.4-1.1 1.7 3.9-1.5zm-1.5 2.5l-3.9 1.6-1.1 1.7 3.4-0.7zm-1.5 2.6l-3.4 0.6-1 1.8 2.8 0.2zm-1.5 2.5l-2.9-0.2-1 1.8 2.4 1zm-2.9 5.2c0.9-2 0.9-2 1.1-2.2 0.1-0.2 0.2-0.4 0.2-0.4l-2.4-1.1q0 0-0.1 0.3c-0.1 0.2-0.1 0-1 2-1.3 3-2.6 5.9-2.6 5.9l2.1 1.3c0 0 1.3-2.9 2.7-5.8zm-2.7 5.8l-2.1-1.3-5.3 11.9 2 1.2zm-5.4 11.8l-2-1.3-5.3 11.9 1.9 1.1zm-5.4 11.8l-1.9-1.2-5.3 11.9 1.8 1.1zm-5.5 11.7l-1.7-1-5.3 11.8 1.6 1zm-5.4 11.8l-1.6-1.1-5.3 11.9 1.5 0.9zm-5.4 11.8l-1.5-0.9-5.3 11.8 1.4 0.8zm-5.4 11.8l-1.4-0.8-0.5 1.1 1.4 0.8zm-0.6 1.2l-1.3-0.9q0 0-4.8 10.7l1.3 0.8q4.8-10.6 4.8-10.6zm-68.3-309l-6.3-2.9q-1.7 7.4-1.7 7.4l6.2 2.7q0 0 1.8-7.2zm-1.8 7.2l-6.2-2.7-0.9 4.2 6.1 2.8zm-1 4.2l-6.2-2.8-0.6 3.1 6 2.7zm-0.7 3.1l-6.1-2.8-1.6 7.4 5.9 2.6zm-1.8 7.3l-5.9-2.7-1.7 7.4 5.9 2.6zm-1.8 7.3l-5.8-2.7-1.7 7.4 5.8 2.5zm-1.8 7.3l-5.8-2.6-1.6 7.4 5.6 2.5zm-1.7 7.3l-5.7-2.6-1.6 7.4 5.5 2.4zm-1.8 7.3l-5.5-2.5-1.7 7.3 5.5 2.5zm-1.8 7.3l-5.4-2.5-1.7 7.4 5.3 2.3zm-1.7 7.3l-5.3-2.4-1.7 7.4 5.2 2.3zm-1.8 7.3l-5.2-2.4-1.6 7.3 5.1 2.3zm-1.8 7.3l-5.1-2.3-1.7 7.3 5 2.3zm-1.7 7.3l-5-2.3-1.7 7.3 4.9 2.2zm-1.8 7.3l-4.8-2.2-1.7 7.3 4.8 2.2zm-1.8 7.3l-4.8-2.2-1.6 7.3 4.7 2.1zm-1.8 7.3l-4.7-2.1-1.6 7.3 4.5 2.1zm-1.7 7.3l-4.6-2.1-1.7 7.6 4.4 2zm-1.8 7.6l-4.5-2-1.7 7.6 4.4 2zm-1.9 7.6l-4.3-2-1.8 7.7 4.3 1.9zm-1.9 7.5l-4.2-1.9-1.7 7.7 4.1 1.8zm-1.8 7.6l-4.2-1.9-2.1 9.3 4 1.8zm41 68.2c-3.9 0.2-8-0.2-11.9-1.3-19.5-5.7-30.9-26.4-25.4-46.4l2-7.6q0.1 0 0.1-0.1l-4-1.8q0 0.1-0.1 0.2l-2.4 9.3c-5.7 22.2 7.2 45 29 50.9 4.2 1.1 8.6 1.5 12.7 1.3q0 0 0.1 0v-4.5q-0.1 0-0.1 0zm0.1 9v4.4l9.3-0.6v-4.4zm9.3-0.6v4.4l12.3-0.9v-4.3zm12.2-0.8v4.3l12.3-0.9v-4.2zm12.2-0.8v4.3l12.3-0.9v-4.2zm12.2-0.8v4.2l12.3-0.8v-4.2zm12.3-0.7v4.1l12.2-0.9v-4zm12.3-0.8v4l12.2-0.8v-4zm12.3-0.8v4l12.2-0.9v-3.9zm18.4-1.2c-3 0.2-6.1 0.4-6.1 0.4v3.9c0 0 3.1-0.2 6.1-0.4 0.8 0-0.1 0 0.1 0l0.5-3.8c-0.1 0 0.4-0.1-0.6-0.1zm0.6 0.1l-0.5 3.8-0.7 0.2 1.6-3.9zm0.4 0.1l-1.6 3.9-0.7 0.1 2.7-3.9zm0.3 0.1l-2.7 3.9-0.8 0.2 3.9-3.9zm0.4 0.1l-3.9 3.9-0.7 0.1 5-3.9zm0.4 0.1l-5 3.9-0.2 0.1 5.3-3.9zm0.1 0l-5.3 3.9q0 0 0 0 0 0 0 0l5.3-3.9q0 0 0 0zm0 0l-5.3 3.9-0.4 0.7 4.9-3.3zm-0.8 1.4l-4.9 3.2-0.5 0.9 4.4-2.4zm-1 1.7l-4.5 2.4-0.5 0.8 3.9-1.5zm-0.4 0.3c-3.1 0.2-6.1 0.4-6.1 0.4q0 0 0 3.9c0 0 3-0.2 6.1-0.5 0.6 0-0.6 0.1-0.4 0.1q0.5-3.9 0.5-3.9c-0.2 0 0.7-0.1-0.1 0zm-1.6 3.1l-3.4 0.7-0.5 0.9 2.8 0.2zm-1 1.7l-2.9-0.2-0.5 0.8 2.4 1.1zm-2.2 4c0.9-2 0.9-1.9 1-2q0.1-0.3 0.1-0.3l-2.3-1q0 0-0.1 0.1c-0.1 0.1 0.1-0.2-0.8 1.8-1.3 3-2.6 6-2.6 6l2.1 1.3c0 0 1.3-3 2.6-5.9zm-2.6 5.9l-2.1-1.3-5.2 11.9 2 1.2zm-5.3 11.9l-2-1.3-5.1 12 1.8 1.1zm-5.3 11.9l-1.8-1.2-5.2 11.9 1.8 1.1zm-5.3 11.8l-1.8-1-5.1 11.9 1.6 1zm-5.3 11.8l-1.6-1-5.2 11.9 1.5 1zm-5.3 11.8l-1.5-0.9-5.1 11.9 1.3 0.8zm-5.3 11.9l-1.3-0.9-0.5 1.2 1.3 0.8zm-0.5 1.2l-1.3-0.9q0 0-4.7 10.8l1.3 0.8q4.7-10.7 4.7-10.7zm-73.3-311q0 0-6.2-2.9-1.6 7.4-1.6 7.4 6.2 2.8 6.2 2.8 0 0 1.6-7.3zm-1.6 7.3q0 0-6.2-2.8l-0.9 4.3q6.1 2.7 6.1 2.7zm-1 4.3q0 0-6.1-2.8l-0.6 3.1q6 2.8 6 2.8zm-0.7 3q0 0-6-2.7l-1.6 7.4q6 2.7 6 2.7zm-1.7 7.3q0 0-5.9-2.7l-1.6 7.4q5.9 2.6 5.9 2.6zm-1.7 7.3q0 0-5.8-2.6l-1.6 7.4q5.8 2.6 5.8 2.6zm-1.7 7.3q0 0-5.7-2.6l-1.6 7.4q5.6 2.5 5.6 2.5zm-1.6 7.3q0 0-5.7-2.5l-1.5 7.3q5.5 2.5 5.5 2.5zm-1.6 7.4q0 0-5.6-2.5l-1.5 7.3q5.4 2.5 5.4 2.5zm-1.7 7.3q0 0-5.4-2.4l-1.5 7.3q5.3 2.4 5.3 2.4zm-1.7 7.4q0 0-5.3-2.4l-1.5 7.3q5.2 2.4 5.2 2.4zm-1.7 7.3q0 0-5.2-2.3l-1.5 7.3q5.1 2.3 5.1 2.3zm-1.7 7.3q0 0-5.1-2.3l-1.6 7.4q5 2.3 5 2.3zm-1.6 7.3q0 0-5-2.3l-1.6 7.4q4.9 2.2 4.9 2.2zm-1.6 7.3q0 0-4.9-2.2l-1.6 7.4q4.8 2.2 4.8 2.2zm-1.7 7.3q0 0-4.7-2.2l-1.6 7.4q4.7 2.1 4.7 2.1zm-1.7 7.3q0 0-4.6-2.1l-1.6 7.4q4.6 2.1 4.6 2.1zm-1.7 7.3q0 0-4.6-2.1l-1.6 7.7q4.5 2 4.5 2zm-1.7 7.6q0 0-4.5-2l-1.6 7.7q4.3 2 4.3 2zm-1.7 7.6q0 0-4.3-2l-1.7 7.7q4.3 1.9 4.3 1.9zm-1.7 7.6q0 0-4.3-1.9l-1.6 7.7q4.1 1.9 4.1 1.9zm-1.7 7.6q0 0-4.1-1.9l-2 9.4q4 1.8 4 1.8zm45.1 45.9c-1.8 0-3.7-0.3-5.5-1-7.6-2.9-11.4-11.5-8.5-19.3l0.4-1.1q0 0 0-0.1l-21.6-9.7q0 0-0.1 0.1l-2 7.5c-5.5 20 5.9 40.8 25.4 46.4 3.9 1.1 8 1.5 11.9 1.4q0 0 0.1-0.1v-24.1q-0.1 0-0.1 0zm0.1 37.5q0 0 0 4.5l9.3-0.7q0-4.4 0-4.4zm9.3-0.7q0 0 0 4.4l12.3-0.9q0-4.3 0-4.3zm12.2-0.9q0 0 0 4.3l12.3-0.9q0-4.3 0-4.3zm12.2-0.8q0 0 0 4.2l12.3-0.9q0-4.2 0-4.2zm12.2-0.8q0 0 0 4.1l12.3-0.9q0-4.1 0-4.1zm12.3-0.9q0 0 0 4.2l12.2-1q0-4 0-4zm12.3-0.9q0 0 0 4.1l12.2-1q0-3.9 0-3.9zm12.3-0.9q0 0 0 4l12.2-1q0-3.8 0-3.8zm17.8 0.1l-3.9 1.5-0.5 0.9 3.4-0.7zm0.7-1.4q0 0-0.5 3.9l-1.8 0.1q1.6-3.9 1.6-3.9zm-0.7 0.2q0 0-1.7 3.8l-1.8 0.2q2.7-3.9 2.7-3.9zm-0.7 0.1q0 0-2.7 3.9l-2 0.1q3.9-3.9 3.9-3.9zm-0.8 0.2q0 0-3.9 3.9l-1.9 0.1q5.1-3.9 5.1-3.9zm-0.8 0.2q0 0-5.1 3.9h-0.4q5.3-3.9 5.3-3.9zm-0.2 0q0 0 0 0 0 0-5.3 3.9 0 0 0 0 5.3-3.9 5.3-3.9 0 0 0 0zm0 0q0 0-5.3 3.9 4.9-3.2 4.9-3.2zm-0.4 0.7q0 0-4.9 3.2 4.4-2.4 4.4-2.4zm-0.5 0.9q0 0-4.4 2.3 3.9-1.5 3.9-1.5zm-0.5 0.9q0 0-3.9 1.5 3.4-0.7 3.4-0.7zm-0.6 0.9q0.1 0-3.3 0.7 2.8 0.2 2.8 0.2zm-0.5 0.8q0 0-2.9-0.2 2.4 1.1 2.4 1.1zm-1.4 2.8c0.9-2.1 0.8-1.7 0.8-1.8q0.1-0.2 0.1-0.2 0 0-2.4-1l-3.2 7.6q2.1 1.4 2.1 1.4c0 0 1.3-3 2.6-6zm-2.6 6q0 0-2.1-1.4l-5 12q1.9 1.3 1.9 1.3zm-5.1 11.9q0 0-2-1.2l-5 12q1.8 1.1 1.8 1.1zm-5.2 11.9q0 0-1.8-1.1l-5 12q1.7 1 1.7 1zm-5.2 12q0 0-1.7-1.1l-5 12q1.5 1 1.5 1zm-5.1 11.9q0 0-1.6-1l-5.1 12q1.5 0.9 1.5 0.9zm-5.1 11.9q0 0-1.5-0.9l-5.1 12q1.4 0.8 1.4 0.8zm-5.2 12q0 0-1.3-0.9l-0.5 1.2q1.3 0.8 1.3 0.8zm-0.5 1.2q0 0-1.3-0.9 0 0-4.6 10.9 1.3 0.7 1.3 0.7 4.6-10.7 4.6-10.7z"/>
					<g id="&lt;Clip Group&gt;" clip-path="url(#cp2)">
						<path id="&lt;Mesh&gt;" fill-rule="evenodd" class="s2" d="m43.1 647.1q-7.3-4.5-7.3-4.5l-6.8 9.4q0 0 6.7 4.2zm-7.4 9.1q-6.7-4.3-6.7-4.2l-44.3 61.5q0 0 2.8 1.8zm0.1-13.7l-7.3-4.6-6.2 9.8 6.7 4.3zm-6.8 9.4l-6.7-4.2-40.4 64 2.8 1.7zm-0.5-14l-7.3-4.5-5.6 10.1 6.7 4.2zm-6.2 9.8l-6.7-4.2-36.5 66.5 2.8 1.7zm-1.1-14.3l-7.3-4.6-5 10.5 6.7 4.2zm-5.6 10.2l-6.7-4.2-32.6 68.9 2.8 1.8zm-1.7-14.8l-1.3-0.8-4.9 10.6 1.2 0.8zm-5 10.5l-1.2-0.7-31.9 69.3 0.5 0.3zm3.7-11.4l-1.4-0.8-4.7 10.7 1.2 0.8zm-4.9 10.6l-1.2-0.8-31.2 69.8 0.5 0.3zm3.6-11.4l-1.4-0.9-4.6 10.8 1.2 0.8zm-4.8 10.7l-1.2-0.8-30.5 70.2 0.6 0.4zm3.4-11.6q0 0-1.4-0.8l-4.5 10.8q1.2 0.8 1.2 0.8zm-4.7 10.8q0.1 0-1.2-0.8l-29.7 70.7q0.5 0.3 0.5 0.3z"/>
					</g>
				</g>
			</g>
			<g id="&lt;Group&gt;">
				<g id="&lt;Group&gt;">
					<g id="&lt;Clip Group&gt;" clip-path="url(#cp3)">
						<path id="&lt;Mesh&gt;" fill-rule="evenodd" class="s3" d="m635.8 86.8q-62-28-62-28l-180.4 311.8q0 0 33.9 15.3zm-208.4 299.1q-33.9-15.4-33.9-15.4l-3.7 6.4q0 0.1 33.3 15.1zm-4.2 6.2q-33.4-15.1-33.4-15.1l-2.2 3.7q0 0 33.1 14.9zm150.7-333.2l-62-27.9-152.4 324.3 34 15.4zm-180.4 311.7l-34-15.3-3.1 6.6 33.4 15.1zm-3.7 6.4l-33.4-15.1-1.8 3.9 33 14.9zm122.2-346.1l-62-27.9-124.4 337 34 15.3zm-152.4 324.4l-33.9-15.4-2.6 7 33.4 15zm-3.1 6.7l-33.4-15.1-1.5 4.1 33 14.9zm93.6-359l-62-28-96.3 349.7 33.9 15.3zm-124.3 337l-34-15.3-2 7.2 33.4 15zm-2.5 6.9l-33.4-15-1.2 4.1 33.1 15zm64.9-371.9l-11.5-5.2-91.1 352 6.3 2.8zm-96.3 349.7l-6.3-2.8-1.9 7.2 6.2 2.8zm-2 7.2l-6.1-2.8-1.1 4.2 6.1 2.7zm86.8-362l-11.4-5.2-86 354.4 6.3 2.8zm-91.1 352l-6.3-2.8-1.8 7.3 6.2 2.8zm-1.9 7.2l-6.2-2.8-1 4.2 6.1 2.8zm81.6-364.4l-11.5-5.2-80.8 356.7 6.3 2.8zm-85.9 354.4l-6.3-2.9-1.7 7.4 6.2 2.7zm-1.8 7.3l-6.1-2.8-1 4.3 6.1 2.7zm76.3-366.7q0 0-11.5-5.2l-75.6 359q6.3 2.8 6.3 2.8zm-80.8 356.7q0 0-6.2-2.8l-1.6 7.3q6.2 2.8 6.2 2.8zm-1.7 7.4q0 0-6.2-2.8l-0.9 4.3q6.1 2.7 6.1 2.7z"/>
					</g>
					<path id="&lt;Mesh&gt;" fill-rule="evenodd" class="s4" d="m427.3 385.9q-33.9-15.3-33.9-15.3-3.7 6.4-3.7 6.4 0 0 33.4 15 0 0 4.2-6.1zm-4.2 6.1q-33.4-15-33.4-15l-2.2 3.7q0 0 33.1 14.9zm-2.5 3.6q-33-14.9-33-14.9l-1.6 2.6q0 0 32.8 14.9zm-1.8 2.5q-32.8-14.8-32.8-14.8l-3.7 6.4q0 0 32.2 14.6zm-4.2 6.1q-32.3-14.6-32.3-14.5l-3.7 6.4q0 0 31.7 14.2zm-4.3 6.2q-31.7-14.3-31.7-14.3l-3.7 6.4q0 0 31.1 14zm-4.3 6.2q-31-14.1-31-14.1l-3.8 6.4q0 0 30.6 13.8zm-4.3 6.1q-30.5-13.7-30.5-13.7l-3.7 6.4q0 0 29.9 13.5zm-4.3 6.1q-29.9-13.5-29.9-13.5l-3.7 6.4q0 0 29.3 13.3zm-4.2 6.1q-29.4-13.2-29.4-13.2l-3.7 6.4q0 0 28.8 12.9zm-4.3 6.2q-28.8-13-28.8-13c0 0-0.9 1.6-1.8 3.2-1 1.6-0.8 1.7-1 1.9q0 0 28.9 11.7zm-2.7 3.9q-28.9-11.8-28.8-11.8l-1.3 2.9q0 0 30.1 8.9zm0 0q-30.1-8.9-30.1-8.9l-1.2 2.8q0 0 31.3 6.1zm0 0q-31.3-6.1-31.3-6.1l-1.2 2.9q0 0 32.5 3.2zm0 0q-32.5-3.2-32.5-3.2l-1.3 2.8q0 0 33.8 0.4zm0 0q-33.8-0.4-33.8-0.4l-1.2 2.9q0 0 35-2.5zm0 0q-42.9 20.8-42.9 20.8 0 0.1 0 0.1 0 0 0 0 0 0 42.9-20.9 0 0 0 0zm0 0q-41.4 17.2-41.4 17.2l-1.5 3.6q0 0 42.9-20.8zm0 0q-40.1 14.3-40.1 14.3l-1.3 2.9q0 0 41.4-17.2zm0 0q-38.8 11.3-38.8 11.3l-1.3 3q0 0 40.1-14.3zm0 0q-37.5 8.3-37.5 8.3l-1.3 3q0 0 38.8-11.3zm0 0q-36.2 5.3-36.2 5.3l-1.3 3q0 0 37.5-8.3zm0 0q-35 2.5-35 2.5l-1.2 2.8q0 0 36.2-5.3zm0 0q-42.9 20.9-42.9 20.9l3.4-0.1q0 0 38.6-20.9zm-0.9 0q-38.6 20.9-38.6 20.9l4.5-0.1q0 0 33-20.9zm-1.2-0.1q-33 20.9-32.9 20.9h4.4q0 0 27.3-21zm-1.2-0.1q-27.2 21-27.2 21l4.5-0.1q0 0 21.6-21zm-1.2-0.1q-21.6 21.1-21.6 21.1l4.5-0.1q0 0 15.9-21.1zm-1.1-0.1q-16 21.1-16 21.1h4.5q0 0 10.3-21.1zm-1.2-0.1q-10.3 21.1-10.3 21.1l4.5-0.1q0 0 4.6-21.1zm-1.7-0.1c-0.7-0.1 0 0 0 0 0.3 0 0.6 0 0.6 0q-4.6 21.1-4.6 21.1c0.3 0.1 3.5-0.1 5.9 0.1q0 0 0-21.1c0 0-0.8-0.1-1.9-0.1zm1.9 0.1q0 21.1 0 21.1l12.3 0.5q0 0 0-20.7zm12.2 1q0 20.7 0 20.7l12.3 0.5q0 0 0-20.3zm12.2 0.9q0 20.3 0 20.3l12.3 0.6q0 0 0-19.9zm12.2 0.9q0 19.9 0 19.9l13.3 0.6q0 0 0-19.5zm13.2 1q0 19.5 0 19.5l13.2 0.6q0 0 0-19.1zm13.2 1q0 19.1 0 19.1l2.9 0.1q0 0 0-19zm40.3 68.7c5.3-6.4 8.6-14.5 9.3-23.4 1.7-22.8-15.1-42.6-37.3-44.3l-9.4-0.7q-0.1 0-0.1-0.1 0 19 0 19 0 0 0.1 0l3.1 0.2c13.4 0.6 23.8 12.1 23.2 25.8-0.2 5.1-1.9 9.8-4.7 13.6q0 0-0.1 0.1 0 0 15.9 9.9 0 0 0-0.1zm0 0.1q-15.9-9.9-15.9-9.9l-5.7 8q0 0 15.3 9.6zm-6.3 7.7q-15.3-9.6-15.3-9.6l-7.6 10.5q0 0 14.7 9.2zm-8.2 10q-14.6-9.2-14.6-9.2l-7.5 10.5q0 0 13.9 8.7zm-8.1 10.1q-14-8.8-14-8.8l-7.5 10.4q0 0 13.3 8.4zm-8.2 10q-13.3-8.3-13.3-8.3l-7.5 10.4q0 0 12.6 7.9zm-8.1 10.1q-12.7-8-12.7-8l-7.5 10.5q0 0 12 7.5zm-8.2 10q-12-7.5-12-7.5l-7.5 10.5q0-0.1 11.3 7.1zm-8.2 10q-11.3-7.1-11.3-7.1l-7.5 10.4q0 0 10.7 6.7zm-8.2 10.1q-10.7-6.8-10.7-6.8l-7.5 10.5q0 0 10 6.3zm-8.2 10q-10-6.3-10-6.3l-7.5 10.5q0 0 9.4 5.8zm-8.2 10q-9.4-5.8-9.4-5.8l-7.5 10.4q0 0 8.7 5.5zm-8.2 10q-8.7-5.4-8.7-5.4l-7.5 10.4q0 0 8.1 5zm-8.2 10.1q-8-5.1-8-5.1l-7.6 10.5q0 0 7.4 4.6zm-8.2 10q-7.3-4.6-7.3-4.6l-0.8 1q0 0 7.3 4.6zm-0.8 1q-7.3-4.6-7.3-4.6 0 0-6.7 9.4 0 0 6.7 4.2 7.3-9 7.3-9zm15.6-276.6l-34-15.3q-3.1 6.6-3.1 6.6l33.4 15.1q0 0 3.7-6.4zm-3.7 6.4l-33.4-15.1-1.8 3.9 33 14.9zm-2.1 3.7l-33.1-14.9-1.3 2.8 32.8 14.8zm-1.5 2.7l-32.8-14.8-3.2 6.7 32.2 14.5zm-3.7 6.4l-32.2-14.5-3.1 6.6 31.6 14.3zm-3.7 6.4l-31.6-14.3-3.1 6.7 31 14zm-3.7 6.4l-31-14-3.2 6.7 30.5 13.7zm-3.7 6.4l-30.5-13.8-3.1 6.7 29.9 13.5zm-3.7 6.4l-29.9-13.5-3.1 6.7 29.3 13.2zm-3.7 6.4l-29.3-13.2-3.2 6.6 28.8 13zm-5.6 9.6c1-1.6 1.9-3.2 1.9-3.2l-28.8-13-2.9 6.3 28.9 11.8c0.2-0.2 0-0.3 0.9-1.9zm-0.9 1.9l-28.9-11.8-2.4 5.7 30.1 8.9zm-1.2 2.9l-30.1-8.9-2.5 5.7 31.3 6zm-1.2 2.9l-31.3-6.1-2.5 5.7 32.6 3.2zm-1.3 2.9l-32.5-3.2-2.5 5.7 33.8 0.3zm-1.2 2.9l-33.8-0.4-2.5 5.7 35-2.5zm-1.2 2.9l-35 2.5-2.5 5.7 36.3-5.3zm-1.3 2.8l-36.2 5.3-2.6 6 37.6-8.3zm-1.3 2.9l-37.6 8.4-2.5 5.9 38.8-11.3zm-1.3 3l-38.8 11.3-2.6 5.9 40.1-14.2zm-1.2 2.9l-40.1 14.3-2.6 5.9 41.4-17.2zm-1.3 3l-41.4 17.2-3.1 7.2 42.9-20.8zm-1.5 3.6q0 0 0 0l-43 20.8q0 0.1 0 0.1 0 0 0.1 0l42.9-20.9q0 0 0 0zm0 0l-42.9 20.9h7.7l38.6-20.9zm3.4 0l-38.6 20.9 10.2-0.1 32.9-20.9zm4.5-0.1l-32.9 21h10.1l27.3-21zm4.5-0.1l-27.3 21h10.2l21.6-21zm4.5-0.1l-21.6 21.1 10.2-0.1 15.9-21zm4.5-0.1l-16 21.1h10.2l10.3-21.1zm4.5-0.1l-10.3 21.1h10.2l4.6-21.1zm4.5-0.1l-4.6 21.2h10.5v-21.1c-2.4-0.2-5.6-0.1-5.9-0.1zm5.9 0.1v21.1l12.3 0.1v-20.7zm12.2 0.6v20.7l12.3 0.1v-20.3zm12.2 0.5v20.4l12.3 0.1v-19.9zm12.2 0.5v19.9l13.3 0.2v-19.5zm13.2 0.6v19.5l13.2 0.1v-19zm13.2 0.5v19.1h2.8v-18.9zm24.6 39.7c2.8-3.9 4.5-8.5 4.7-13.6 0.6-13.7-9.8-25.3-23.2-25.8l-3.1-0.2q-0.1 0-0.2 0v19q0.1 0 0.2 0h0.2c3.7 0 6.7 3.2 6.7 7 0 1.3-0.4 2.6-1.1 3.6q0 0.1-0.1 0.2l15.8 9.9q0.1-0.1 0.1-0.1zm-0.1 0.1l-15.8-9.9-5.2 8.3 15.3 9.6zm-5.8 8l-15.3-9.6-6.9 10.9 14.7 9.2zm-7.6 10.4l-14.6-9.1-6.8 10.8 13.9 8.8zm-7.5 10.4l-14-8.7-6.8 10.8 13.3 8.4zm-7.5 10.4l-13.3-8.3-6.9 10.8 12.7 8zm-7.6 10.4l-12.6-7.9-6.9 10.8 12 7.5zm-7.5 10.5l-12-7.5-6.8 10.8 11.3 7.1zm-7.5 10.5l-11.3-7.1-6.9 10.8 10.7 6.7zm-7.5 10.5l-10.7-6.7-6.9 10.8 10 6.3zm-7.5 10.4l-10-6.2-6.8 10.8 9.3 5.9zm-7.5 10.4l-9.3-5.8-6.9 10.8 8.7 5.5zm-7.5 10.4l-8.7-5.4-6.9 10.8 8 5.1zm-7.5 10.4l-8-5-6.8 10.8 7.3 4.7zm-7.5 10.4l-7.4-4.6-0.6 1 7.3 4.6zm-0.7 1l-7.3-4.6q0 0-6.2 9.8l6.7 4.2q6.8-9.4 6.8-9.4zm-11.2-287.3l-33.9-15.3q-2.6 6.9-2.6 6.9l33.4 15.1q0 0 3.1-6.7zm-3.1 6.7l-33.4-15.1-1.5 4 33.1 14.9zm-1.8 3.9l-33.1-14.9-1.1 2.9 32.8 14.8zm-1.3 2.8l-32.8-14.8-2.5 6.9 32.2 14.6zm-3.1 6.6l-32.3-14.5-2.5 6.9 31.6 14.3zm-3.1 6.6l-31.6-14.2-2.6 6.9 31.1 14zm-3.1 6.6l-31.1-14-2.6 6.9 30.5 13.8zm-3.1 6.7l-30.5-13.8-2.5 6.9 29.9 13.5zm-3.1 6.7l-30-13.5-2.5 6.9 29.3 13.2zm-3.1 6.7l-29.4-13.2-2.5 6.9 28.8 13zm-3.2 6.6l-28.7-13-2.6 7 28.5 12.3zm-2.9 6.3l-28.5-12.3-2.5 6.9 28.5 11.1zm-2.4 5.7l-28.6-11.1-2.5 6.9 28.6 9.9zm-2.5 5.7l-28.6-9.9-2.5 6.9 28.7 8.7zm-2.5 5.7l-28.7-8.7-2.6 7 28.8 7.4zm-2.4 5.8l-28.8-7.5-2.6 6.9 28.9 6.3zm-2.4 5.7l-28.9-6.3-2.6 6.9 29 5.1zm-2.5 5.7l-29-5.1-2.6 7.2 29.1 3.8zm-2.6 5.9l-29.1-3.8-2.6 7.3 29.2 2.5zm-2.6 5.9l-29.2-2.5-2.7 7.2 29.3 1.3zm-2.5 5.9l-29.3-1.3-2.7 7.3 29.4-0.1zm-2.6 6h-29.3l-3.3 8.7 29.5-1.5zm-3.1 7.3q0 0 0-0.1l-29.5 1.6q0 0 0 0.1l-0.4 1.1c-2.9 7.7 0.9 16.4 8.5 19.3 1.8 0.7 3.7 1 5.5 1q0.1 0 0.1 0l15.9-23q-0.1 0-0.1 0zm0.1 0l-15.9 23 9.3-0.2 14.3-22.8zm7.7 0l-14.3 22.8 12.3-0.3 12.1-22.5zm10.2 0l-12.2 22.5 12.3-0.2 10.1-22.3zm10.1-0.1l-10 22.3 12.2-0.2 8-22.1zm10.2 0l-8 22.1 12.2-0.3 5.9-21.8zm10.2 0l-5.9 21.8 12.2-0.2 3.8-21.6zm10.2 0l-3.8 21.6 12.2-0.3 1.7-21.4zm10.2 0l-1.7 21.4 12.3-0.3v-21.1zm10.5 0.1v21.1c0 0 3.1-0.1 6.1-0.2 2.2 0 4.4 0 4.4 0l1.8-20.8zm12.2 0.2l-1.7 20.8h8.5l5.5-20.7zm12.2 0.1l-5.4 20.8h8.5l9.2-20.6zm12.3 0.1l-9.3 20.7h9.2l13.3-20.5zm13.2 0.1l-13.3 20.5 9.2 0.1 17.3-20.4zm13.3 0.2l-17.4 20.3 2 0.1 18.2-20.4zm8.7 10.7c0.7-1 1.1-2.3 1.1-3.7 0-3.8-3-6.9-6.7-7h-0.2q-0.1 0-0.1 0l-18.2 20.4q0 0 0.1 0-0.1 0-0.1 0.1l24.1-9.7q0 0 0-0.1zm0 0.1l-24.1 9.7-3.7 6.2 22.5-7.5zm-5.3 8.3l-22.5 7.5-4.8 8.1 20.4-4.7zm-6.8 10.9l-20.5 4.7-4.8 8.1 18.4-2zm-6.8 10.9l-18.5 1.9-4.9 8.1 16.5 0.8zm-6.8 10.9l-16.5-0.8-4.9 8 14.5 3.6zm-6.8 10.9l-14.5-3.6-4.9 8.1 12.5 6.4zm-6.8 10.8l-12.5-6.4c-0.1 0.2-1 1.6-2.6 4.5-1.6 2.9-3.1 5.7-3.1 5.7l11.3 7.1zm-6.8 10.8l-11.4-7.1-6.2 11.3 10.7 6.7zm-6.9 10.8l-10.6-6.6-6.2 11.2 10 6.3zm-6.9 10.9l-10-6.3-6.2 11.3 9.4 5.8zm-6.9 10.9l-9.3-5.9-6.2 11.3 8.7 5.4zm-6.9 10.9l-8.7-5.5-6.2 11.3 8.1 5.1zm-6.9 10.8l-8-5-6.2 11.2 7.4 4.7zm-6.9 10.8l-7.4-4.6-0.6 1.1 7.3 4.6zm-0.6 1l-7.3-4.6q0 0-5.6 10.2l6.7 4.2q6.2-9.8 6.2-9.8zm-37.8-298l-34-15.3q-1.9 7.1-1.9 7.1l33.3 15.1q0 0 2.6-6.9zm-2.6 6.9l-33.3-15.1-1.2 4.2 33.1 14.9zm-1.5 4l-33.1-14.9-0.8 3 32.8 14.8zm-1.1 2.9l-32.8-14.8-2 7.2 32.3 14.6zm-2.6 6.9l-32.2-14.6-2 7.2 31.7 14.3zm-2.6 6.9l-31.6-14.3-2 7.2 31.1 14zm-2.6 7l-31.1-14.1-1.9 7.2 30.5 13.8zm-2.6 6.9l-30.5-13.8-2 7.2 30 13.5zm-2.6 6.9l-29.9-13.5-2 7.2 29.3 13.3zm-2.5 6.9l-29.4-13.3-1.9 7.2 28.7 13zm-2.5 6.9l-28.8-13-2 7.2 28.2 12.7zm-2.5 7l-28.2-12.8-2 7.2 27.6 12.5zm-2.5 6.9l-27.6-12.5-2 7.2 27 12.2zm-2.5 6.9l-27.1-12.2-1.9 7.2 26.4 12zm-2.5 6.9l-26.5-12-2 7.2 25.9 11.7zm-2.5 6.9l-25.9-11.7-2 7.2 25.3 11.4zm-2.5 6.9l-25.4-11.4-1.9 7.2 24.7 11.2zm-2.5 6.9l-24.8-11.2-2.1 7.5 24.2 10.9zm-2.7 7.2l-24.1-10.9-2.1 7.5 23.6 10.6zm-2.7 7.2l-23.5-10.6-2.1 7.5 23 10.3zm-2.7 7.2l-22.9-10.3-2.1 7.4 22.3 10.1zm-2.6 7.3l-22.4-10.1-2.5 9.1 21.6 9.7zm10.4 67.8c-4.6 0.3-9.5 0-14.2-1.2-26-6.1-42.1-32.6-36.1-59.2l3.1-13.7q0 0 0-0.1 0 0-4-1.8 0 0.1 0 0.1l-3.4 16.2c-6.1 28.7 11.8 56.9 39.8 63.1 4.9 1.1 10 1.4 14.8 1.1q0.1 0 0.1 0 0-4.5 0-4.5 0 0-0.1 0zm0.1-37.5v24.1l9.3-0.5v-23.8zm9.3-0.2v23.8l12.3-0.6v-23.5zm12.2-0.2v23.4l12.3-0.6v-23.1zm12.2-0.2v23.1l12.3-0.7v-22.7zm12.2-0.2v22.7l12.3-0.7v-22.3zm12.3-0.2v22.3l12.2-0.7v-21.9zm12.3-0.2v21.9l12.2-0.7v-21.5zm12.3-0.2v21.5l12.2-0.7v-21.1zm18.4-0.3c-3.1 0-6.1 0.1-6.1 0.1v21.1c0 0 3-0.2 6.1-0.3 0.8 0 1.7 0 1.7 0l2.7-20.9c0 0-2.2 0-4.4 0zm4.4 0l-2.7 20.9 2.5 0.1 8.7-21zm8.5 0.1l-8.7 20.9 2.6 0.1 14.6-21zm8.5 0l-14.6 21.1 2.8 0.1 21-21.1zm9.2 0l-21.1 21.1 2.8 0.1 27.5-21.1zm9.1 0l-27.4 21.1 0.6 0.1 28.8-21.2zm2 0q0 0-0.1 0l-28.8 21.2q0 0 0 0 0 0 0 0l28.9-21.1q0-0.1 0-0.1zm0 0.1l-28.9 21.1-1.6 2.7 26.7-17.6zm-3.7 6.2l-26.7 17.6-2.1 3.4 24-12.9zm-4.9 8.1l-23.9 12.9-2.1 3.4 21.2-8.2zm-4.9 8.1l-21.1 8.2-2.1 3.4 18.4-3.6zm-4.9 8.1l-18.3 3.6-2.1 3.5 15.5 1zm-4.8 8.1l-15.5-1.1-2.1 3.5 12.7 5.7zm-7.4 12.5c1.6-2.9 2.5-4.3 2.6-4.5l-12.8-5.7c0 0-0.1 0.3-0.3 0.6-0.2 0.3-0.3 0.4-1.2 2.3-1.4 2.9-2.7 5.9-2.7 5.9l11.3 7.1c0 0 1.5-2.9 3.1-5.7zm-3.1 5.7l-11.3-7.1-5.6 11.6 10.7 6.7zm-6.2 11.3l-10.7-6.7-5.5 11.7 10 6.3zm-6.2 11.3l-10-6.3-5.5 11.7 9.3 5.8zm-6.2 11.3l-9.3-5.9-5.5 11.7 8.6 5.5zm-6.2 11.2l-8.6-5.4-5.6 11.7 8.1 5zm-6.2 11.3l-8.1-5-5.5 11.6 7.4 4.7zm-6.2 11.2l-7.4-4.6-0.5 1.1 7.3 4.6zm-0.6 1.1l-7.3-4.6q0 0-5 10.6l6.7 4.2q5.6-10.2 5.6-10.2zm-64.5-308.8l-6.2-2.8q-1.9 7.2-1.9 7.2l6.2 2.8q0 0 1.9-7.2zm-1.9 7.2l-6.2-2.8-1.1 4.2 6.1 2.8zm-1.1 4.1l-6.1-2.7-0.8 3 6 2.8zm-0.8 3l-6.1-2.8-1.8 7.3 5.9 2.6zm-2 7.2l-5.9-2.7-1.9 7.3 5.9 2.6zm-2 7.2l-5.9-2.7-1.8 7.3 5.7 2.6zm-2 7.1l-5.7-2.6-1.9 7.3 5.7 2.5zm-2 7.2l-5.7-2.5-1.8 7.2 5.5 2.5zm-2 7.2l-5.5-2.5-1.9 7.2 5.4 2.4zm-1.9 7.2l-5.5-2.4-1.8 7.2 5.3 2.4zm-2 7.2l-5.3-2.4-1.9 7.2 5.2 2.4zm-1.9 7.1l-5.2-2.3-1.9 7.2 5.1 2.3zm-2 7.2l-5.1-2.3-1.9 7.2 5 2.3zm-1.9 7.1l-5-2.2-1.9 7.2 4.9 2.2zm-2 7.2l-4.9-2.2-1.9 7.2 4.8 2.2zm-2 7.2l-4.7-2.2-1.9 7.2 4.7 2.1zm-2 7.2l-4.7-2.1-1.9 7.2 4.6 2.1zm-2 7.2l-4.5-2.1-2 7.5 4.5 2.1zm-2.1 7.4l-4.4-2-2 7.6 4.3 1.9zm-2 7.5l-4.4-2-1.9 7.6 4.2 1.9zm-2 7.4l-4.3-1.9-1.9 7.6 4.1 1.8zm-2 7.5l-4.2-1.9-2.3 9.2 4 1.8zm32.6 73.4c-4.3 0.3-9-0.1-13.5-1.2-23.8-6.1-38.4-30.8-32.4-55.2l2.7-11.4q0-0.1 0.1-0.1l-4-1.8q0 0.1-0.1 0.1l-3.1 13.7c-6 26.6 10.2 53.1 36.2 59.2 4.7 1.1 9.6 1.5 14.1 1.2q0.1 0 0.2 0v-4.5q-0.1 0-0.2 0zm0.2-8.9v4.5l9.3-0.6v-4.4zm9.3-0.5v4.4l12.2-0.7v-4.3zm12.3-0.7v4.4l12.2-0.8v-4.2zm12.3-0.6v4.2l12.2-0.7v-4.2zm12.3-0.6v4.2l12.3-0.8v-4.1zm12.2-0.6v4.1l12.3-0.7v-4.1zm12.2-0.6v4l12.3-0.7v-4zm12.2-0.6v4l12.3-0.7v-3.9zm18.4-1c-3.1 0.2-6.2 0.3-6.2 0.3v3.9c0 0 3.1-0.1 6.2-0.3 1.1-0.1 0.9 0 1.1 0l0.5-3.9c0 0-0.8 0-1.6 0zm1.6 0l-0.5 3.9 1.5 0.1 1.6-3.9zm2.5 0.1l-1.6 3.9 1.5 0.1 2.7-3.9zm2.6 0.1l-2.7 3.9 1.5 0.1 3.9-3.9zm2.8 0.1l-3.9 3.9 1.6 0.1 5.1-3.9zm2.7 0.1l-5 3.9 0.3 0.1 5.3-4zm0.6 0.1q0 0 0 0l-5.3 3.9q0 0 0 0 0 0 0 0l5.3-3.9q0 0 0 0zm0 0l-5.3 3.9-1.2 2 4.9-3.3zm-1.6 2.7l-4.9 3.2-1.5 2.6 4.4-2.4zm-2.1 3.5l-4.4 2.3-1.6 2.6 3.9-1.5zm-2 3.4l-3.9 1.6-1.6 2.5 3.4-0.6zm-2 3.4l-3.4 0.7-1.6 2.5 2.9 0.2zm-2.1 3.5l-2.8-0.2-1.6 2.5 2.4 1.1zm-3.6 6.3c0.9-1.9 1-2 1.2-2.3 0.2-0.4 0.3-0.6 0.3-0.6l-2.3-1c0 0-0.1 0.1-0.3 0.4-0.1 0.2-0.2 0.2-1 2.1-1.4 3-2.8 5.9-2.8 5.9l2.1 1.3c0 0 1.4-2.9 2.8-5.8zm-2.8 5.8l-2.1-1.3-5.4 11.8 2 1.2zm-5.5 11.7l-2-1.2-5.4 11.7 1.8 1.2zm-5.5 11.7l-1.8-1.2-5.4 11.8 1.7 1.1zm-5.6 11.7l-1.7-1.1-5.4 11.8 1.6 1zm-5.5 11.6l-1.6-1-5.4 11.8 1.5 0.9zm-5.6 11.7l-1.5-0.9-5.4 11.8 1.4 0.8zm-5.5 11.7l-1.4-0.9-0.5 1.2 1.3 0.8zm-0.5 1.1l-1.4-0.8q0 0-4.8 10.6l1.2 0.8q5-10.6 5-10.6zm-63.4-307l-6.3-2.8q-1.8 7.3-1.8 7.3l6.2 2.7q0 0 1.9-7.2zm-1.9 7.2l-6.2-2.7-1 4.2 6.1 2.7zm-1.1 4.2l-6.1-2.7-0.7 3 6 2.8zm-0.7 3l-6.1-2.7-1.8 7.2 6 2.7zm-1.9 7.2l-5.9-2.7-1.8 7.3 5.8 2.7zm-1.8 7.2l-5.9-2.6-1.7 7.2 5.7 2.6zm-1.9 7.2l-5.7-2.5-1.8 7.2 5.7 2.6zm-1.9 7.2l-5.7-2.5-1.7 7.2 5.5 2.5zm-1.9 7.3l-5.5-2.5-1.7 7.2 5.4 2.5zm-1.9 7.2l-5.4-2.4-1.8 7.2 5.3 2.4zm-1.8 7.3l-5.4-2.4-1.7 7.2 5.2 2.4zm-1.9 7.2l-5.2-2.3-1.8 7.2 5.1 2.3zm-1.8 7.3l-5.1-2.3-1.8 7.2 5 2.3zm-1.9 7.2l-5-2.2-1.7 7.3 4.9 2.2zm-1.9 7.2l-4.9-2.2-1.8 7.3 4.8 2.1zm-1.9 7.2l-4.7-2.1-1.8 7.3 4.7 2.1zm-1.9 7.2l-4.7-2.1-1.7 7.3 4.5 2zm-1.8 7.2l-4.6-2-1.8 7.6 4.4 2zm-1.9 7.5l-4.5-2-1.8 7.6 4.3 1.9zm-1.9 7.6l-4.4-2-1.8 7.6 4.2 1.9zm-1.9 7.5l-4.3-1.9-1.8 7.6 4.1 1.8zm-1.9 7.6l-4.2-1.9-2.2 9.2 4 1.8zm36.8 70.8c-4.1 0.3-8.5-0.1-12.7-1.3-21.7-5.9-34.7-28.6-28.9-50.8l2.4-9.4q0-0.1 0-0.1l-4-1.8q0 0 0 0.1l-2.8 11.4c-5.9 24.4 8.7 49.1 32.5 55.1 4.5 1.2 9.2 1.6 13.5 1.3q0.1 0 0.1 0v-4.5q0 0-0.1 0zm0.1 0v4.5l9.3-0.6v-4.4zm9.3-0.6v4.5l12.3-0.8v-4.4zm12.3-0.7v4.4l12.2-0.8v-4.3zm12.3-0.7v4.2l12.2-0.7v-4.2zm12.3-0.7v4.2l12.2-0.8v-4.2zm12.3-0.7v4.1l12.2-0.8v-4zm12.3-0.7v4l12.2-0.8v-3.9zm12.3-0.7v3.9l12.3-0.8v-3.9zm18.3-1c-3 0.2-6.1 0.3-6.1 0.3v3.9c0 0 3.1-0.2 6.1-0.4 1 0 0.5 0.1 0.7 0.1l0.5-3.9c-0.2 0 0-0.1-1.2 0zm1.2 0l-0.5 3.9 0.3 0.1 1.6-3.9zm1.5 0.1l-1.6 3.9 0.4 0.1 2.7-3.9zm1.4 0.1l-2.7 3.9 0.4 0.1 3.9-3.9zm1.6 0.2l-3.9 3.8 0.4 0.2 5.1-3.9zm1.6 0.1l-5.1 3.9h0.1l5.3-3.9zm0.3 0q0 0 0 0l-5.3 3.9q0 0.1 0 0.1l5.3-3.9q0 0 0-0.1zm0 0.1l-5.3 3.9-0.8 1.3 4.9-3.3zm-1.1 2l-5 3.3-1 1.7 4.4-2.4zm-1.5 2.6l-4.5 2.4-1 1.7 3.9-1.5zm-1.5 2.5l-3.9 1.6-1.1 1.7 3.4-0.7zm-1.5 2.6l-3.4 0.6-1 1.8 2.8 0.2zm-1.5 2.5l-2.9-0.2-1 1.8 2.3 1zm-2.8 5.1c0.9-1.9 0.9-1.9 1.1-2.1 0.1-0.3 0.2-0.4 0.2-0.4l-2.4-1.1q0 0-0.1 0.3c-0.1 0.2-0.1 0-1 2-1.3 3-2.6 5.9-2.6 5.9l2.1 1.3c0 0 1.3-2.9 2.7-5.9zm-2.7 5.9l-2.1-1.3-5.3 11.9 2 1.2zm-5.4 11.8l-2-1.3-5.3 11.9 1.9 1.1zm-5.4 11.8l-1.9-1.2-5.3 11.9 1.7 1.1zm-5.4 11.7l-1.7-1.1-5.3 11.9 1.6 1zm-5.4 11.8l-1.6-1.1-5.3 11.9 1.5 0.9zm-5.4 11.8l-1.5-0.9-5.3 11.8 1.4 0.8zm-5.4 11.8l-1.4-0.8-0.5 1.1 1.4 0.8zm-0.6 1.2l-1.3-0.9q0 0-4.8 10.7l1.2 0.8q4.9-10.6 4.9-10.6zm-68.3-309l-6.3-2.9q-1.7 7.4-1.7 7.4l6.2 2.7q0 0 1.8-7.2zm-1.8 7.2l-6.2-2.7-0.9 4.2 6.1 2.8zm-1 4.2l-6.1-2.8-0.7 3.1 6 2.7zm-0.7 3.1l-6.1-2.8-1.6 7.4 5.9 2.6zm-1.7 7.3l-6-2.7-1.7 7.4 5.9 2.6zm-1.8 7.3l-5.8-2.7-1.7 7.4 5.8 2.6zm-1.8 7.2l-5.7-2.6-1.7 7.4 5.6 2.5zm-1.7 7.3l-5.7-2.6-1.6 7.4 5.5 2.4zm-1.8 7.3l-5.5-2.5-1.7 7.3 5.5 2.5zm-1.8 7.3l-5.4-2.5-1.7 7.4 5.3 2.4zm-1.7 7.2l-5.3-2.4-1.7 7.4 5.2 2.3zm-1.7 7.3l-5.3-2.4-1.6 7.4 5.1 2.2zm-1.8 7.3l-5.1-2.3-1.6 7.3 5 2.3zm-1.8 7.3l-5-2.3-1.7 7.3 4.9 2.3zm-1.7 7.2l-4.9-2.2-1.7 7.4 4.8 2.1zm-1.8 7.3l-4.8-2.2-1.6 7.3 4.7 2.2zm-1.8 7.2l-4.7-2.1-1.6 7.4 4.5 2zm-1.7 7.3l-4.6-2.1-1.7 7.6 4.4 2.1zm-1.8 7.5l-4.5-2-1.7 7.7 4.4 1.9zm-1.9 7.6l-4.3-2-1.8 7.7 4.3 1.9zm-1.9 7.6l-4.2-2-1.7 7.7 4.1 1.8zm-1.8 7.6l-4.2-1.9-2.1 9.3 4 1.8zm41 68.2c-3.9 0.2-8-0.2-11.9-1.3-19.5-5.7-30.9-26.4-25.4-46.4l2.1-7.6q0 0 0-0.1l-4-1.8q0 0.1 0 0.2l-2.5 9.3c-5.7 22.2 7.2 45 29 50.9 4.2 1.1 8.6 1.5 12.7 1.3q0.1 0 0.1 0v-4.5q0 0-0.1 0zm0.1 9v4.4l9.3-0.6v-4.4zm9.3-0.6v4.4l12.3-0.9v-4.3zm12.2-0.8v4.3l12.3-0.9v-4.2zm12.2-0.8v4.3l12.3-0.9v-4.2zm12.2-0.8v4.2l12.3-0.8v-4.2zm12.3-0.7v4.1l12.2-0.9v-4zm12.3-0.8v4l12.2-0.8v-4zm12.3-0.8v4l12.2-0.9v-3.9zm18.4-1.2c-3.1 0.2-6.1 0.4-6.1 0.4v3.9c0 0 3-0.2 6.1-0.4 0.8 0-0.1 0 0.1 0l0.5-3.8c-0.2 0 0.4-0.1-0.6-0.1zm0.6 0.1l-0.5 3.8-0.7 0.2 1.6-3.9zm0.4 0.1l-1.6 3.9-0.8 0.1 2.7-3.9zm0.4 0.1l-2.7 3.9-0.8 0.2 3.9-3.9zm0.4 0.1l-3.9 3.9-0.8 0.1 5.1-3.9zm0.4 0.1l-5.1 3.9-0.2 0.1 5.4-3.9zm0.1 0l-5.4 3.9q0 0 0 0 0 0 0 0 0 0 0 0l5.3-3.9q0.1 0 0.1 0zm-0.1 0l-5.3 3.9-0.4 0.7 5-3.3zm-0.8 1.3l-5 3.3-0.5 0.8 4.4-2.3zm-1 1.7l-4.4 2.4-0.5 0.8 3.9-1.5zm-0.4 0.3c-3.1 0.2-6.2 0.4-6.2 0.4q0 0 0 3.9c0 0 3.1-0.2 6.2-0.5 0.6 0-0.7 0.1-0.4 0.1q0.5-3.9 0.5-3.9c-0.2 0 0.6-0.1-0.1 0zm-1.7 3.1l-3.4 0.7-0.5 0.9 2.9 0.2zm-1.1 1.7l-2.8-0.2-0.5 0.8 2.3 1.1zm-2.1 4c0.9-2 0.8-1.9 0.9-2q0.2-0.3 0.2-0.3l-2.4-1q0 0 0 0.1c-0.1 0.1 0-0.2-0.9 1.8-1.3 3-2.6 6-2.6 6l2.1 1.3c0 0 1.4-3 2.7-5.9zm-2.7 5.9l-2.1-1.3-5.1 11.9 2 1.2zm-5.3 11.9l-2-1.3-5.2 12 1.9 1.1zm-5.3 11.9l-1.9-1.2-5.1 11.9 1.7 1.1zm-5.3 11.8l-1.7-1.1-5.2 12 1.6 1zm-5.3 11.8l-1.6-1-5.1 11.9 1.5 1zm-5.3 11.8l-1.5-0.9-5.2 11.9 1.4 0.8zm-5.3 11.9l-1.4-0.9-0.5 1.2 1.4 0.8zm-0.5 1.2l-1.4-0.9q0 0-4.6 10.8l1.2 0.8q4.8-10.7 4.8-10.7zm-73.3-311q0 0-6.3-2.9-1.5 7.4-1.5 7.4 6.1 2.8 6.1 2.8 0 0 1.7-7.3zm-1.7 7.3q0 0-6.1-2.8l-0.9 4.3q6.1 2.7 6.1 2.7zm-1 4.3q0 0-6.1-2.8l-0.6 3.1q6 2.8 6 2.8zm-0.7 3q0 0-6-2.7l-1.6 7.4q6 2.7 6 2.7zm-1.7 7.3q0 0-5.9-2.7l-1.6 7.4q5.8 2.6 5.8 2.6zm-1.6 7.3q0 0-5.9-2.6l-1.5 7.4q5.7 2.6 5.7 2.6zm-1.6 7.3q0 0-5.8-2.6l-1.5 7.4q5.6 2.5 5.6 2.5zm-1.6 7.3q0 0-5.7-2.5l-1.5 7.4q5.5 2.5 5.5 2.4zm-1.7 7.4q0 0-5.5-2.5l-1.5 7.3q5.4 2.5 5.4 2.5zm-1.7 7.3q0 0-5.4-2.4l-1.6 7.3q5.4 2.4 5.4 2.4zm-1.7 7.4q0 0-5.3-2.4l-1.6 7.3q5.2 2.4 5.2 2.4zm-1.6 7.3q0 0-5.2-2.3l-1.6 7.3q5.1 2.3 5.1 2.3zm-1.6 7.4q0 0-5.1-2.3l-1.6 7.3q5 2.3 5 2.3zm-1.7 7.3q0.1 0-4.9-2.3l-1.6 7.4q4.9 2.2 4.9 2.2zm-1.7 7.3q0 0-4.9-2.2l-1.5 7.4q4.8 2.2 4.8 2.2zm-1.7 7.3q0 0-4.8-2.2l-1.5 7.4q4.7 2.1 4.7 2.1zm-1.7 7.3q0 0-4.7-2.1l-1.5 7.4q4.5 2.1 4.5 2.1zm-1.6 7.3q0 0-4.6-2.1l-1.6 7.7q4.5 2 4.5 2zm-1.8 7.6q0 0-4.4-2l-1.6 7.7q4.3 2 4.3 2zm-1.7 7.6q0 0-4.4-2l-1.6 7.7q4.2 1.9 4.2 1.9zm-1.7 7.6q0 0-4.2-1.9l-1.6 7.7q4.1 1.9 4.1 1.9zm-1.7 7.6q0 0-4.2-1.9l-1.9 9.4q4 1.8 4 1.8zm45.1 45.9c-1.8 0-3.7-0.3-5.5-1-7.6-2.9-11.4-11.5-8.6-19.3l0.4-1.1q0 0 0.1-0.1l-21.7-9.7q0 0 0 0.1l-2 7.5c-5.6 20 5.8 40.8 25.4 46.4 3.9 1.1 8 1.5 11.9 1.4q0 0 0.1-0.1v-24.1q-0.1 0-0.1 0zm0.1 37.5q0 0 0 4.5l9.3-0.7q0-4.4 0-4.4zm9.3-0.7q0 0 0 4.4l12.2-0.9q0-4.3 0-4.3zm12.3-0.9q0 0 0 4.3l12.2-0.9q0-4.3 0-4.3zm12.3-0.8q0 0 0 4.2l12.2-0.9q0-4.2 0-4.2zm12.3-0.8q0 0 0 4.1l12.3-0.9q0-4.1 0-4.1zm12.2-0.9q0 0 0 4.2l12.3-1q0-4 0-4zm12.2-0.9q0 0 0 4.1l12.3-1q0-3.9 0-3.9zm12.2-0.9q0 0 0 4l12.3-0.9q0-4 0-3.9zm17.7 0.1l-3.9 1.5-0.5 0.9 3.4-0.7zm0.8-1.4q0 0-0.6 3.9l-1.8 0.1q1.6-3.9 1.6-3.9zm-0.7 0.2q0 0-1.6 3.8l-1.8 0.2q2.7-3.9 2.7-3.9zm-0.8 0.1q0 0-2.7 3.9l-1.9 0.1q3.8-3.9 3.8-3.9zm-0.8 0.2q0.1 0-3.8 3.9l-2 0.1q5.1-3.9 5.1-3.9zm-0.8 0.2q0 0-5.1 3.9h-0.4q5.3-3.9 5.3-3.9zm-0.2 0q0 0 0 0 0 0 0 0 0 0-5.3 3.9 0 0 0 0 5.3-3.9 5.3-3.9 0 0 0 0zm0 0q0 0-5.3 3.9 4.9-3.2 4.9-3.2zm-0.4 0.7q0 0-4.9 3.2 4.4-2.4 4.4-2.4zm-0.5 0.9q0 0-4.4 2.4 3.9-1.6 3.9-1.6zm-0.5 0.9q0 0-3.9 1.5 3.4-0.7 3.4-0.7zm-0.6 0.9q0 0-3.3 0.7 2.8 0.2 2.8 0.2zm-0.5 0.8q0 0-2.9-0.2 2.4 1.1 2.4 1.1zm-1.4 2.8c0.9-2.1 0.8-1.7 0.8-1.8q0.1-0.2 0.1-0.2 0 0-2.4-1l-3.2 7.6q2.1 1.4 2.1 1.3c0 0 1.3-2.9 2.6-5.9zm-2.6 5.9q0 0.1-2.1-1.3l-5 12q1.9 1.3 1.9 1.3zm-5.1 11.9q0 0-2-1.2l-5 12q1.8 1.1 1.8 1.1zm-5.2 11.9q0 0-1.8-1.1l-5 12q1.7 1 1.7 1zm-5.2 12q0 0-1.7-1.1l-5.1 12q1.6 1 1.6 1zm-5.1 11.9q0 0-1.6-1l-5.1 12q1.5 0.9 1.5 0.9zm-5.1 11.9q0 0-1.5-0.9l-5.1 12q1.4 0.9 1.4 0.9zm-5.2 11.9q0 0-1.3-0.9l-0.5 1.2q1.3 0.8 1.3 0.8zm-0.5 1.2q0 0-1.3-0.9 0 0-4.6 10.9 1.3 0.7 1.3 0.7 4.6-10.7 4.6-10.7z"/>
					<g id="&lt;Clip Group&gt;" clip-path="url(#cp4)">
						<path id="&lt;Mesh&gt;" fill-rule="evenodd" class="s5" d="m377.9 647.1q-7.3-4.5-7.3-4.5l-6.8 9.4q0 0 6.7 4.2zm-7.4 9.1q-6.7-4.3-6.7-4.2l-44.3 61.5q0 0 2.8 1.8zm0.1-13.7l-7.3-4.6-6.2 9.8 6.7 4.3zm-6.8 9.4l-6.7-4.2-40.4 64 2.8 1.7zm-0.5-14l-7.3-4.5-5.6 10.1 6.7 4.2zm-6.2 9.8l-6.7-4.2-36.5 66.5 2.8 1.7zm-1.1-14.3l-7.3-4.6-5 10.5 6.7 4.2zm-5.6 10.2l-6.7-4.2-32.6 68.9 2.8 1.8zm-1.7-14.8l-1.3-0.8-4.9 10.6 1.2 0.8zm-5 10.5l-1.2-0.7-31.9 69.3 0.5 0.3zm3.7-11.4l-1.4-0.8-4.8 10.7 1.3 0.8zm-4.9 10.6l-1.2-0.8-31.2 69.8 0.5 0.3zm3.5-11.4l-1.3-0.9-4.7 10.8 1.3 0.8zm-4.8 10.7l-1.2-0.8-30.5 70.2 0.5 0.4zm3.5-11.6q0 0-1.4-0.8l-4.5 10.8q1.2 0.8 1.2 0.8zm-4.7 10.8q0 0-1.2-0.8l-29.7 70.7q0.5 0.3 0.5 0.3z"/>
					</g>
				</g>
			</g>
			<g id="&lt;Group&gt;">
				<path id="&lt;Path&gt;" fill-rule="evenodd" class="s6" d="m38.9-297c165.2 0 303.7 116.9 340.9 274.2 30-14.9 63.6-23.5 99.2-23.5 126.1 0 228.3 104.5 228.3 233.4 0 128.9-102.2 233.4-228.3 233.4h-440.1c-193.8 0-350.9-160.6-350.9-358.7 0-198.2 157.1-358.8 350.9-358.8z"/>
				<path id="&lt;Path&gt;" fill-rule="evenodd" class="s7" d="m-6.1 45.8c91.3-75.7 127.1-191.1 79.7-257.7-47.4-66.6-159.9-59.1-251.3 16.6-91.3 75.8-126.9 191.2-79.6 257.7 47.4 66.7 159.9 59.2 251.2-16.6z"/>
				<path id="&lt;Path&gt;" fill-rule="evenodd" class="s8" d="m453.7 144.3c50.1-41.7 69.8-105.1 43.7-141.7-26-36.6-87.8-32.5-138.1 9.1-50.2 41.7-69.8 105.1-43.8 141.7 26.1 36.6 87.9 32.5 138.2-9.1z"/>
				<path id="&lt;Path&gt;" fill-rule="evenodd" class="s9" d="m565 235c55.3-57.1 112.3-79.5 127.5-49.9 15.1 29.5-17.4 99.8-72.6 156.9-55.2 57.1-112.3 79.4-127.4 49.9-15.1-29.6 17.3-99.8 72.5-156.9z"/>
			</g>
		</g>
	</g>
</svg>