<svg version="1.2" xmlns="http://www.w3.org/2000/svg" viewBox="0 0 1024 1024" width="1024" height="1024">
	<title>New Project</title>
	<defs>
		<radialGradient id="g1" cx="0" cy="0" r="1" gradientUnits="userSpaceOnUse" gradientTransform="matrix(467.357,522.334,522.334,-467.357,380.566,148.5)">
			<stop offset="0" stop-color="#bad0d6"/>
			<stop offset=".198" stop-color="#9bbac2"/>
			<stop offset="1" stop-color="#5d8bb8"/>
		</radialGradient>
		<radialGradient id="g2" cx="0" cy="0" r="1" gradientUnits="userSpaceOnUse" gradientTransform="matrix(69.02,94.878,133.122,-107.955,381.21,245.879)">
			<stop offset="0" stop-color="#ffffff"/>
			<stop offset="1" stop-color="#ffffff" stop-opacity="0"/>
		</radialGradient>
		<radialGradient id="g3" cx="0" cy="0" r="1" gradientUnits="userSpaceOnUse" gradientTransform="matrix(37.935,52.147,73.167,-59.335,782.174,366.057)">
			<stop offset="0" stop-color="#ffffff"/>
			<stop offset="1" stop-color="#ffffff" stop-opacity="0"/>
		</radialGradient>
		<radialGradient id="g4" cx="0" cy="0" r="1" gradientUnits="userSpaceOnUse" gradientTransform="matrix(-33.348,-21.661,-66.129,86.542,931.826,531.699)">
			<stop offset="0" stop-color="#ffffff"/>
			<stop offset="1" stop-color="#ffffff" stop-opacity="0"/>
		</radialGradient>
		<radialGradient id="g5" cx="0" cy="0" r="1" gradientUnits="userSpaceOnUse" gradientTransform="matrix(467.35,522.326,522.326,-467.35,176.465,301.125)">
			<stop offset="0" stop-color="#ffffff"/>
			<stop offset=".198" stop-color="#d9f7ff"/>
			<stop offset="1" stop-color="#89c0f5"/>
		</radialGradient>
		<radialGradient id="g6" cx="0" cy="0" r="1" gradientUnits="userSpaceOnUse" gradientTransform="matrix(69.019,94.876,133.12,-107.953,177.12,398.501)">
			<stop offset="0" stop-color="#ffffff"/>
			<stop offset="1" stop-color="#ffffff" stop-opacity="0"/>
		</radialGradient>
		<radialGradient id="g7" cx="0" cy="0" r="1" gradientUnits="userSpaceOnUse" gradientTransform="matrix(37.93,52.14,73.157,-59.326,578.094,518.674)">
			<stop offset="0" stop-color="#ffffff"/>
			<stop offset="1" stop-color="#ffffff" stop-opacity="0"/>
		</radialGradient>
		<radialGradient id="g8" cx="0" cy="0" r="1" gradientUnits="userSpaceOnUse" gradientTransform="matrix(-33.348,-21.661,-66.128,86.541,727.729,684.316)">
			<stop offset="0" stop-color="#ffffff"/>
			<stop offset="1" stop-color="#ffffff" stop-opacity="0"/>
		</radialGradient>
		<radialGradient id="g9" cx="0" cy="0" r="1" gradientUnits="userSpaceOnUse" gradientTransform="matrix(66.664,-72.311,72.311,66.664,217.358,924.066)">
			<stop offset="0" stop-color="#d4f6ff"/>
			<stop offset=".198" stop-color="#d9f7ff"/>
			<stop offset="1" stop-color="#89c0f5"/>
		</radialGradient>
		<radialGradient id="g10" cx="0" cy="0" r="1" gradientUnits="userSpaceOnUse" gradientTransform="matrix(-20.085,8.927,-11.485,-29.983,222.551,917.651)">
			<stop offset="0" stop-color="#ffffff"/>
			<stop offset="1" stop-color="#ffffff" stop-opacity="0"/>
		</radialGradient>
		<radialGradient id="g11" cx="0" cy="0" r="1" gradientUnits="userSpaceOnUse" gradientTransform="matrix(66.664,-72.311,72.311,66.664,388.303,924.057)">
			<stop offset="0" stop-color="#d4f6ff"/>
			<stop offset=".198" stop-color="#d9f7ff"/>
			<stop offset="1" stop-color="#89c0f5"/>
		</radialGradient>
		<radialGradient id="g12" cx="0" cy="0" r="1" gradientUnits="userSpaceOnUse" gradientTransform="matrix(-20.08,8.925,-11.482,-29.975,393.5,917.651)">
			<stop offset="0" stop-color="#ffffff"/>
			<stop offset="1" stop-color="#ffffff" stop-opacity="0"/>
		</radialGradient>
		<radialGradient id="g13" cx="0" cy="0" r="1" gradientUnits="userSpaceOnUse" gradientTransform="matrix(66.663,-72.31,72.31,66.663,559.262,924.059)">
			<stop offset="0" stop-color="#d4f6ff"/>
			<stop offset=".198" stop-color="#d9f7ff"/>
			<stop offset="1" stop-color="#89c0f5"/>
		</radialGradient>
		<radialGradient id="g14" cx="0" cy="0" r="1" gradientUnits="userSpaceOnUse" gradientTransform="matrix(-20.08,8.925,-11.482,-29.975,564.46,917.651)">
			<stop offset="0" stop-color="#ffffff"/>
			<stop offset="1" stop-color="#ffffff" stop-opacity="0"/>
		</radialGradient>
	</defs>
	<style>
		.s0 { fill: url(#g1) } 
		.s1 { opacity: .5;mix-blend-mode: overlay;fill: url(#g2) } 
		.s2 { opacity: .3;mix-blend-mode: overlay;fill: url(#g3) } 
		.s3 { opacity: .2;mix-blend-mode: overlay;fill: url(#g4) } 
		.s4 { fill: url(#g5) } 
		.s5 { mix-blend-mode: overlay;fill: url(#g6) } 
		.s6 { opacity: .4;mix-blend-mode: overlay;fill: url(#g7) } 
		.s7 { opacity: .2;mix-blend-mode: overlay;fill: url(#g8) } 
		.s8 { fill: url(#g9) } 
		.s9 { mix-blend-mode: overlay;fill: url(#g10) } 
		.s10 { fill: url(#g11) } 
		.s11 { mix-blend-mode: overlay;fill: url(#g12) } 
		.s12 { fill: url(#g13) } 
		.s13 { mix-blend-mode: overlay;fill: url(#g14) } 
	</style>
	<g id="Layer 1">
		<g id="&lt;Group&gt;">
			<g id="&lt;Group&gt;">
				<g id="&lt;Group&gt;">
					<path id="&lt;Path&gt;" fill-rule="evenodd" class="s0" d="m486.4 71c133 0 244.4 92 274.3 215.7 24.2-11.7 51.2-18.4 79.8-18.4 101.5 0 183.7 82.2 183.7 183.6 0 101.5-82.2 183.7-183.7 183.7h-354.1c-155.9 0-282.3-126.4-282.3-282.3 0-155.9 126.4-282.3 282.3-282.3z"/>
					<path id="&lt;Path&gt;" fill-rule="evenodd" class="s1" d="m450.2 340.8c73.5-59.7 102.3-150.5 64.1-202.9-38.1-52.4-128.6-46.5-202.1 13.1-73.5 59.6-102.2 150.5-64.1 202.8 38.1 52.4 128.6 46.6 202.1-13z"/>
					<path id="&lt;Path&gt;" fill-rule="evenodd" class="s2" d="m820.1 418.2c40.4-32.8 56.2-82.7 35.2-111.5-20.9-28.8-70.6-25.5-111.1 7.2-40.3 32.8-56.1 82.7-35.2 111.5 21 28.8 70.7 25.6 111.1-7.2z"/>
					<path id="&lt;Path&gt;" fill-rule="evenodd" class="s3" d="m909.7 489.6c44.5-44.9 90.4-62.5 102.6-39.3 12.2 23.3-14 78.5-58.4 123.5-44.4 44.9-90.3 62.5-102.5 39.3-12.2-23.3 13.9-78.6 58.3-123.5z"/>
				</g>
				<g id="&lt;Group&gt;">
					<path id="&lt;Path&gt;" fill-rule="evenodd" class="s4" d="m282.3 223.6c133 0 244.4 92 274.3 215.8 24.2-11.7 51.2-18.5 79.9-18.5 101.4 0 183.6 82.2 183.6 183.7 0 101.4-82.2 183.6-183.6 183.6h-354.2c-155.9 0-282.3-126.4-282.3-282.3 0-155.9 126.4-282.3 282.3-282.3z"/>
					<path id="&lt;Path&gt;" fill-rule="evenodd" class="s5" d="m246.1 493.4c73.5-59.7 102.3-150.5 64.1-202.8-38.1-52.4-128.6-46.6-202.1 13-73.5 59.7-102.2 150.5-64.1 202.8 38.1 52.5 128.6 46.6 202.1-13z"/>
					<path id="&lt;Path&gt;" fill-rule="evenodd" class="s6" d="m616 570.8c40.4-32.8 56.2-82.7 35.3-111.4-21-28.9-70.7-25.6-111.1 7.1-40.4 32.8-56.2 82.7-35.3 111.5 21 28.8 70.7 25.6 111.1-7.2z"/>
					<path id="&lt;Path&gt;" fill-rule="evenodd" class="s7" d="m705.7 642.2c44.4-44.9 90.3-62.5 102.5-39.2 12.2 23.2-14 78.5-58.4 123.4-44.4 45-90.3 62.5-102.5 39.3-12.2-23.3 13.9-78.5 58.4-123.5z"/>
				</g>
			</g>
			<g id="&lt;Group&gt;">
				<g id="&lt;Group&gt;">
					<path id="&lt;Path&gt;" fill-rule="evenodd" class="s8" d="m272.1 933.4c-11.3 19.5-36.3 26.2-55.9 14.9-19.5-11.3-26.2-36.3-14.9-55.8 11.3-19.6 81.1-58.7 81.1-58.7 0 0 1 80-10.3 99.6z"/>
					<path id="&lt;Path&gt;" fill-rule="evenodd" class="s9" d="m202.5 926.6c-6.4-16.6-2.5-34 8.6-38.9 11.1-5 25.2 4.5 31.5 21 6.4 16.6 2.5 34-8.6 38.9-11.1 5-25.2-4.5-31.5-21z"/>
				</g>
				<g id="&lt;Group&gt;">
					<path id="&lt;Path&gt;" fill-rule="evenodd" class="s10" d="m443 933.4c-11.3 19.5-36.3 26.2-55.8 14.9-19.6-11.3-26.3-36.3-15-55.8 11.3-19.6 81.1-58.7 81.1-58.7 0 0 1 80-10.3 99.6z"/>
					<path id="&lt;Path&gt;" fill-rule="evenodd" class="s11" d="m373.4 926.6c-6.3-16.6-2.5-34 8.6-38.9 11.1-5 25.3 4.5 31.6 21 6.3 16.6 2.5 34-8.6 38.9-11.1 5-25.2-4.5-31.6-21z"/>
				</g>
				<g id="&lt;Group&gt;">
					<path id="&lt;Path&gt;" fill-rule="evenodd" class="s12" d="m614 933.4c-11.3 19.5-36.3 26.2-55.9 14.9-19.5-11.3-26.2-36.3-14.9-55.8 11.3-19.6 81.1-58.7 81.1-58.7 0 0 1 80-10.3 99.6z"/>
					<path id="&lt;Path&gt;" fill-rule="evenodd" class="s13" d="m544.4 926.6c-6.4-16.6-2.5-34 8.6-38.9 11.1-5 25.2 4.5 31.5 21 6.4 16.6 2.5 34-8.6 38.9-11.1 5-25.2-4.5-31.5-21z"/>
				</g>
			</g>
		</g>
	</g>
</svg>