<svg version="1.2" xmlns="http://www.w3.org/2000/svg" viewBox="-312 -303 1024 1024" width="1024" height="1024">
	<title>5544715</title>
	<defs>
		<radialGradient id="g1" cx="0" cy="0" r="1" gradientUnits="userSpaceOnUse" gradientTransform="matrix(-408.503,541.266,541.266,408.503,433.333,-113.755)">
			<stop offset="0" stop-color="#fcfcfc"/>
			<stop offset=".156" stop-color="#f1edf5"/>
			<stop offset="1" stop-color="#9fa1a6"/>
		</radialGradient>
		<radialGradient id="g2" cx="0" cy="0" r="1" gradientUnits="userSpaceOnUse" gradientTransform="matrix(-85.422,117.425,-164.757,-133.61,491.484,-43.962)">
			<stop offset="0" stop-color="#ffffff"/>
			<stop offset="1" stop-color="#ffffff" stop-opacity="0"/>
		</radialGradient>
		<radialGradient id="g3" cx="0" cy="0" r="1" gradientUnits="userSpaceOnUse" gradientTransform="matrix(-115.096,-108.121,21.807,-71.541,151.009,297.272)">
			<stop offset="0" stop-color="#ffffff"/>
			<stop offset="1" stop-color="#ffffff" stop-opacity="0"/>
		</radialGradient>
		<radialGradient id="g4" cx="0" cy="0" r="1" gradientUnits="userSpaceOnUse" gradientTransform="matrix(511.572,571.75,571.75,-511.572,-117.842,67.955)">
			<stop offset="0" stop-color="#bad0d6"/>
			<stop offset=".198" stop-color="#9bbac2"/>
			<stop offset="1" stop-color="#5d8bb8"/>
		</radialGradient>
		<radialGradient id="g5" cx="0" cy="0" r="1" gradientUnits="userSpaceOnUse" gradientTransform="matrix(75.547,103.85,145.71,-118.164,-117.134,174.541)">
			<stop offset="0" stop-color="#ffffff"/>
			<stop offset="1" stop-color="#ffffff" stop-opacity="0"/>
		</radialGradient>
		<radialGradient id="g6" cx="0" cy="0" r="1" gradientUnits="userSpaceOnUse" gradientTransform="matrix(41.523,57.079,80.086,-64.946,321.762,306.097)">
			<stop offset="0" stop-color="#ffffff"/>
			<stop offset="1" stop-color="#ffffff" stop-opacity="0"/>
		</radialGradient>
		<radialGradient id="g7" cx="0" cy="0" r="1" gradientUnits="userSpaceOnUse" gradientTransform="matrix(-36.503,-23.71,-72.385,94.729,485.574,487.406)">
			<stop offset="0" stop-color="#ffffff"/>
			<stop offset="1" stop-color="#ffffff" stop-opacity="0"/>
		</radialGradient>
		<radialGradient id="g8" cx="0" cy="0" r="1" gradientUnits="userSpaceOnUse" gradientTransform="matrix(87.43,-94.837,94.837,87.43,-72.785,625.264)">
			<stop offset="0" stop-color="#d4f6ff"/>
			<stop offset=".198" stop-color="#d9f7ff"/>
			<stop offset="1" stop-color="#89c0f5"/>
		</radialGradient>
		<radialGradient id="g9" cx="0" cy="0" r="1" gradientUnits="userSpaceOnUse" gradientTransform="matrix(-26.342,11.708,-15.062,-39.323,-65.975,616.851)">
			<stop offset="0" stop-color="#ffffff"/>
			<stop offset="1" stop-color="#ffffff" stop-opacity="0"/>
		</radialGradient>
		<radialGradient id="g10" cx="0" cy="0" r="1" gradientUnits="userSpaceOnUse" gradientTransform="matrix(87.429,-94.836,94.836,87.429,152.762,625.253)">
			<stop offset="0" stop-color="#d4f6ff"/>
			<stop offset=".198" stop-color="#d9f7ff"/>
			<stop offset="1" stop-color="#89c0f5"/>
		</radialGradient>
		<radialGradient id="g11" cx="0" cy="0" r="1" gradientUnits="userSpaceOnUse" gradientTransform="matrix(-26.335,11.705,-15.058,-39.313,159.577,616.851)">
			<stop offset="0" stop-color="#ffffff"/>
			<stop offset="1" stop-color="#ffffff" stop-opacity="0"/>
		</radialGradient>
		<radialGradient id="g12" cx="0" cy="0" r="1" gradientUnits="userSpaceOnUse" gradientTransform="matrix(87.429,-94.835,94.835,87.429,378.326,625.254)">
			<stop offset="0" stop-color="#d4f6ff"/>
			<stop offset=".198" stop-color="#d9f7ff"/>
			<stop offset="1" stop-color="#89c0f5"/>
		</radialGradient>
		<radialGradient id="g13" cx="0" cy="0" r="1" gradientUnits="userSpaceOnUse" gradientTransform="matrix(-26.335,11.705,-15.058,-39.312,385.143,616.851)">
			<stop offset="0" stop-color="#ffffff"/>
			<stop offset="1" stop-color="#ffffff" stop-opacity="0"/>
		</radialGradient>
	</defs>
	<style>
		.s0 { fill: url(#g1) } 
		.s1 { fill: #b0b1b6 } 
		.s2 { mix-blend-mode: overlay;fill: url(#g2) } 
		.s3 { opacity: .4;mix-blend-mode: overlay;fill: url(#g3) } 
		.s4 { fill: url(#g4) } 
		.s5 { opacity: .5;mix-blend-mode: overlay;fill: url(#g5) } 
		.s6 { opacity: .3;mix-blend-mode: overlay;fill: url(#g6) } 
		.s7 { opacity: .2;mix-blend-mode: overlay;fill: url(#g7) } 
		.s8 { fill: url(#g8) } 
		.s9 { mix-blend-mode: overlay;fill: url(#g9) } 
		.s10 { fill: url(#g10) } 
		.s11 { mix-blend-mode: overlay;fill: url(#g11) } 
		.s12 { fill: url(#g12) } 
		.s13 { mix-blend-mode: overlay;fill: url(#g13) } 
	</style>
	<g id="OBJECTS">
		<g id="&lt;Group&gt;">
			<g id="&lt;Group&gt;">
				<g id="&lt;Group&gt;">
					<path id="&lt;Path&gt;" fill-rule="evenodd" class="s0" d="m351.6 467.4c-197.5 0-357.2-159.7-357.2-357.2 0-197.5 159.7-357.2 357.2-357.2 197.6 0 357.3 159.7 357.3 357.2 0 197.5-159.7 357.2-357.3 357.2z"/>
					<g id="&lt;Group&gt;">
						<path id="&lt;Path&gt;" fill-rule="evenodd" class="s1" d="m102 173.4c33.6-3 57.6-41.1 53.6-85-3.9-44-34.3-77.2-67.9-74.2-33.5 3.1-57.5 41.2-53.6 85.1 4 43.9 34.4 77.1 67.9 74.1z"/>
						<path id="&lt;Path&gt;" fill-rule="evenodd" class="s1" d="m72.9 205.4c-20.1 10.5-25.1 40.4-11.3 66.7 13.8 26.4 41.3 39.1 61.4 28.6 20.1-10.5 25.2-40.5 11.4-66.8-13.8-26.3-41.4-39.1-61.5-28.5z"/>
						<path id="&lt;Path&gt;" fill-rule="evenodd" class="s1" d="m152.6 173.6c-11.9 6.3-14.9 23.9-6.7 39.5 8.1 15.5 24.4 23.1 36.3 16.9 11.8-6.3 14.8-23.9 6.7-39.5-8.2-15.5-24.4-23.1-36.3-16.9z"/>
						<path id="&lt;Path&gt;" fill-rule="evenodd" class="s1" d="m681.6 123.1c-6.2-43.7-38.3-75.2-71.6-70.5-33.4 4.7-55.4 43.9-49.3 87.6 6.2 43.7 38.3 75.3 71.6 70.6 33.4-4.7 55.4-44 49.3-87.7z"/>
						<path id="&lt;Path&gt;" fill-rule="evenodd" class="s1" d="m637.4 19.2c19.6-11.6 23.1-41.7 8-67.3-15.1-25.6-43.2-37-62.8-25.4-19.5 11.5-23.1 41.6-8 67.2 15.2 25.6 43.3 37 62.8 25.5z"/>
						<path id="&lt;Path&gt;" fill-rule="evenodd" class="s1" d="m564.1 15.1c-8.9-15.1-25.5-21.8-37-15-11.6 6.8-13.7 24.6-4.7 39.8 8.9 15.1 25.5 21.8 37.1 15 11.5-6.9 13.6-24.6 4.6-39.8z"/>
					</g>
					<g id="&lt;Group&gt;">
						<path id="&lt;Path&gt;" fill-rule="evenodd" class="s2" d="m406.1 73.5c-91-73.9-126.5-186.2-79.4-251 47.2-64.9 159.2-57.6 250.2 16.1 91 73.8 126.5 186.2 79.3 251-47.2 65-159.2 57.7-250.1-16.1z"/>
						<path id="&lt;Path&gt;" fill-rule="evenodd" class="s3" d="m35.9 189.2c12.1-39.6 73.3-23.2 136.9 36.5 63.6 59.8 105.3 140.2 93.3 179.7-12 39.5-73.3 23.1-136.9-36.6-63.5-59.7-105.3-140.2-93.3-179.6z"/>
					</g>
				</g>
				<g id="&lt;Group&gt;">
					<path id="&lt;Path&gt;" fill-rule="evenodd" class="s4" d="m-2-16.9c145.5 0 267.5 100.7 300.3 236.2 26.4-12.8 56-20.2 87.4-20.2 111 0 201 90 201 201 0 111-90 201-201 201h-387.7c-170.7 0-309-138.3-309-309 0-170.6 138.3-309 309-309z"/>
					<path id="&lt;Path&gt;" fill-rule="evenodd" class="s5" d="m-41.6 278.4c80.5-65.3 111.9-164.7 70.2-222-41.7-57.4-140.8-50.9-221.3 14.3-80.4 65.3-111.8 164.7-70.1 222 41.7 57.4 140.8 50.9 221.2-14.3z"/>
					<path id="&lt;Path&gt;" fill-rule="evenodd" class="s6" d="m363.3 363.2c44.2-35.9 61.5-90.5 38.6-122-23-31.6-77.4-28-121.7 7.8-44.1 35.9-61.4 90.5-38.5 122 22.9 31.6 77.4 28 121.6-7.8z"/>
					<path id="&lt;Path&gt;" fill-rule="evenodd" class="s7" d="m461.4 441.3c48.6-49.2 98.9-68.4 112.2-43 13.4 25.4-15.2 86-63.9 135.2-48.6 49.2-98.8 68.4-112.2 43-13.3-25.5 15.3-86 63.9-135.2z"/>
				</g>
			</g>
			<g id="&lt;Group&gt;">
				<g id="&lt;Group&gt;">
					<path id="&lt;Path&gt;" fill-rule="evenodd" class="s8" d="m-1 637.5c-14.8 25.6-47.6 34.4-73.3 19.6-25.6-14.8-34.4-47.6-19.6-73.2 14.8-25.7 106.4-77.1 106.4-77.1 0 0 1.3 105-13.5 130.7z"/>
					<path id="&lt;Path&gt;" fill-rule="evenodd" class="s9" d="m-92.3 628.6c-8.3-21.7-3.3-44.6 11.3-51.1 14.5-6.4 33 5.9 41.4 27.6 8.3 21.8 3.2 44.6-11.3 51.1-14.6 6.4-33.1-5.9-41.4-27.6z"/>
				</g>
				<g id="&lt;Group&gt;">
					<path id="&lt;Path&gt;" fill-rule="evenodd" class="s10" d="m224.5 637.5c-14.8 25.6-47.6 34.4-73.2 19.6-25.6-14.8-34.4-47.6-19.6-73.2 14.8-25.7 106.4-77.1 106.4-77.1 0 0 1.3 105-13.6 130.7z"/>
					<path id="&lt;Path&gt;" fill-rule="evenodd" class="s11" d="m133.2 628.6c-8.3-21.7-3.2-44.6 11.3-51.1 14.6-6.4 33.1 5.9 41.4 27.6 8.3 21.8 3.3 44.6-11.3 51.1-14.5 6.4-33.1-5.9-41.4-27.6z"/>
				</g>
				<g id="&lt;Group&gt;">
					<path id="&lt;Path&gt;" fill-rule="evenodd" class="s12" d="m450.1 637.5c-14.8 25.6-47.6 34.4-73.2 19.6-25.7-14.8-34.5-47.6-19.7-73.2 14.9-25.7 106.4-77.1 106.4-77.1 0 0 1.3 105-13.5 130.7z"/>
					<path id="&lt;Path&gt;" fill-rule="evenodd" class="s13" d="m358.8 628.6c-8.3-21.7-3.3-44.6 11.3-51.1 14.5-6.4 33.1 5.9 41.4 27.6 8.3 21.8 3.2 44.6-11.3 51.1-14.5 6.4-33.1-5.9-41.4-27.6z"/>
				</g>
			</g>
		</g>
	</g>
</svg>