<svg version="1.2" xmlns="http://www.w3.org/2000/svg" viewBox="-312 -303 1024 1024" width="1024" height="1024">
	<title>5544715</title>
	<defs>
		<radialGradient id="g1" cx="0" cy="0" r="1" gradientUnits="userSpaceOnUse" gradientTransform="matrix(-285.204,377.894,377.894,285.204,141.347,52.934)">
			<stop offset="0" stop-color="#fff8c7"/>
			<stop offset=".156" stop-color="#ffe436"/>
			<stop offset="1" stop-color="#fe761c"/>
		</radialGradient>
		<radialGradient id="g2" cx="0" cy="0" r="1" gradientUnits="userSpaceOnUse" gradientTransform="matrix(-59.64,81.983,-115.029,-93.283,181.94,101.648)">
			<stop offset="0" stop-color="#ffffff"/>
			<stop offset="1" stop-color="#ffffff" stop-opacity="0"/>
		</radialGradient>
		<radialGradient id="g3" cx="0" cy="0" r="1" gradientUnits="userSpaceOnUse" gradientTransform="matrix(-80.349,-75.48,15.224,-49.943,-55.76,339.898)">
			<stop offset="0" stop-color="#ffffff"/>
			<stop offset="1" stop-color="#ffffff" stop-opacity="0"/>
		</radialGradient>
		<radialGradient id="g4" cx="0" cy="0" r="1" gradientUnits="userSpaceOnUse" gradientTransform="matrix(-19.979,79.918,-79.918,-19.979,89.816,-171.718)">
			<stop offset="0" stop-color="#fff8c7"/>
			<stop offset=".156" stop-color="#ffe436"/>
			<stop offset="1" stop-color="#fe761c"/>
		</radialGradient>
		<radialGradient id="g5" cx="0" cy="0" r="1" gradientUnits="userSpaceOnUse" gradientTransform="matrix(42.384,70.64,-70.64,42.384,-181.221,-64.011)">
			<stop offset="0" stop-color="#fff8c7"/>
			<stop offset=".156" stop-color="#ffe436"/>
			<stop offset="1" stop-color="#fe761c"/>
		</radialGradient>
		<radialGradient id="g6" cx="0" cy="0" r="1" gradientUnits="userSpaceOnUse" gradientTransform="matrix(79.918,19.979,-19.979,79.918,-296.718,203.808)">
			<stop offset="0" stop-color="#fff8c7"/>
			<stop offset=".156" stop-color="#ffe436"/>
			<stop offset="1" stop-color="#fe761c"/>
		</radialGradient>
		<radialGradient id="g7" cx="0" cy="0" r="1" gradientUnits="userSpaceOnUse" gradientTransform="matrix(70.641,-42.385,42.385,70.641,-189.009,474.849)">
			<stop offset="0" stop-color="#fff8c7"/>
			<stop offset=".156" stop-color="#ffe436"/>
			<stop offset="1" stop-color="#fe761c"/>
		</radialGradient>
		<radialGradient id="g8" cx="0" cy="0" r="1" gradientUnits="userSpaceOnUse" gradientTransform="matrix(19.98,-79.92,79.92,19.98,78.807,590.343)">
			<stop offset="0" stop-color="#fff8c7"/>
			<stop offset=".156" stop-color="#ffe436"/>
			<stop offset="1" stop-color="#fe761c"/>
		</radialGradient>
		<radialGradient id="g9" cx="0" cy="0" r="1" gradientUnits="userSpaceOnUse" gradientTransform="matrix(-42.385,-70.641,70.641,-42.385,349.859,482.632)">
			<stop offset="0" stop-color="#fff8c7"/>
			<stop offset=".156" stop-color="#ffe436"/>
			<stop offset="1" stop-color="#fe761c"/>
		</radialGradient>
		<radialGradient id="g10" cx="0" cy="0" r="1" gradientUnits="userSpaceOnUse" gradientTransform="matrix(-79.918,-19.979,19.979,-79.918,465.352,214.807)">
			<stop offset="0" stop-color="#fff8c7"/>
			<stop offset=".156" stop-color="#ffe436"/>
			<stop offset="1" stop-color="#fe761c"/>
		</radialGradient>
		<radialGradient id="g11" cx="0" cy="0" r="1" gradientUnits="userSpaceOnUse" gradientTransform="matrix(-70.64,42.384,-42.384,-70.64,357.636,-56.239)">
			<stop offset="0" stop-color="#fff8c7"/>
			<stop offset=".156" stop-color="#ffe436"/>
			<stop offset="1" stop-color="#fe761c"/>
		</radialGradient>
		<clipPath clipPathUnits="userSpaceOnUse" id="cp1">
			<path d="m17.04 245.4l-5.05-0.25-3.85-0.2c-21.81-1.09-38.6-19.66-37.51-41.47 1.1-21.81 19.55-38.62 41.36-37.52l12.19 0.57z"/>
		</clipPath>
		<linearGradient id="g12" x2="1" gradientUnits="userSpaceOnUse" gradientTransform="matrix(0,15.587,-30.586,0,-146.387,158.478)">
			<stop offset="0" stop-color="#000000"/>
			<stop offset="1" stop-color="#ffffff"/>
		</linearGradient>
		<linearGradient id="g13" x2="1" gradientUnits="userSpaceOnUse" gradientTransform="matrix(0,15.681,-70.701,0,11.992,165.958)">
			<stop offset="0" stop-color="#000000"/>
			<stop offset="1" stop-color="#ffffff"/>
		</linearGradient>
		<clipPath clipPathUnits="userSpaceOnUse" id="cp2">
			<path d="m548.07 206.54l5.05 0.25 3.85 0.19c21.81 1.1 38.61 19.67 37.51 41.48-1.09 21.81-19.55 38.61-41.36 37.52l-12.18-0.58z"/>
		</clipPath>
		<linearGradient id="g14" x2="1" gradientUnits="userSpaceOnUse" gradientTransform="matrix(-1.413,15.617,-31.069,-2.811,548.073,206.537)">
			<stop offset="0" stop-color="#000000"/>
			<stop offset="1" stop-color="#ffffff"/>
		</linearGradient>
		<clipPath clipPathUnits="userSpaceOnUse" id="cp3">
			<path d="m17.04 386.87l-5.05-0.25-3.85-0.2c-21.81-1.09-38.6-19.66-37.51-41.47 1.1-21.82 19.55-38.62 41.36-37.52l12.19 0.57z"/>
		</clipPath>
		<linearGradient id="g15" x2="1" gradientUnits="userSpaceOnUse" gradientTransform="matrix(0,15.587,-30.586,0,-146.387,299.947)">
			<stop offset="0" stop-color="#000000"/>
			<stop offset="1" stop-color="#ffffff"/>
		</linearGradient>
		<linearGradient id="g16" x2="1" gradientUnits="userSpaceOnUse" gradientTransform="matrix(0,15.682,-70.704,0,11.992,307.427)">
			<stop offset="0" stop-color="#000000"/>
			<stop offset="1" stop-color="#ffffff"/>
		</linearGradient>
		<clipPath clipPathUnits="userSpaceOnUse" id="cp4">
			<path d="m548.07 348.01l5.05 0.25 3.85 0.19c21.81 1.1 38.61 19.67 37.51 41.48-1.09 21.81-19.55 38.61-41.36 37.52l-12.18-0.58z"/>
		</clipPath>
		<linearGradient id="g17" x2="1" gradientUnits="userSpaceOnUse" gradientTransform="matrix(-1.413,15.617,-31.069,-2.811,548.073,348.006)">
			<stop offset="0" stop-color="#000000"/>
			<stop offset="1" stop-color="#ffffff"/>
		</linearGradient>
	</defs>
	<style>
		.s0 { fill: url(#g1) } 
		.s1 { mix-blend-mode: overlay;fill: url(#g2) } 
		.s2 { opacity: .4;mix-blend-mode: overlay;fill: url(#g3) } 
		.s3 { fill: url(#g4) } 
		.s4 { fill: url(#g5) } 
		.s5 { fill: url(#g6) } 
		.s6 { fill: url(#g7) } 
		.s7 { fill: url(#g8) } 
		.s8 { fill: url(#g9) } 
		.s9 { fill: url(#g10) } 
		.s10 { fill: url(#g11) } 
		.s11 { fill: url(#g12) } 
		.s12 { fill: url(#g13) } 
		.s13 { fill: url(#g14) } 
		.s14 { fill: url(#g15) } 
		.s15 { fill: url(#g16) } 
		.s16 { fill: url(#g17) } 
	</style>
	<g id="OBJECTS">
		<g id="&lt;Group&gt;">
			<g id="&lt;Group&gt;">
				<path id="&lt;Path&gt;" fill-rule="evenodd" class="s0" d="m84.3 458.7c-137.9 0-249.4-111.5-249.4-249.4 0-137.9 111.5-249.4 249.4-249.4 137.9 0 249.4 111.5 249.4 249.4 0 137.9-111.5 249.4-249.4 249.4z"/>
				<g id="&lt;Group&gt;">
					<path id="&lt;Path&gt;" fill-rule="evenodd" class="s1" d="m122.3 183.6c-63.5-51.5-88.3-129.9-55.4-175.2 33-45.3 111.2-40.2 174.7 11.3 63.5 51.5 88.3 130 55.4 175.2-33 45.3-111.2 40.2-174.7-11.3z"/>
					<path id="&lt;Path&gt;" fill-rule="evenodd" class="s2" d="m-136.1 264.4c8.4-27.6 51.2-16.1 95.5 25.5 44.4 41.7 73.6 97.9 65.2 125.5-8.4 27.5-51.2 16.1-95.6-25.6-44.3-41.7-73.5-97.8-65.1-125.4z"/>
				</g>
				<path id="&lt;Path&gt;" fill-rule="evenodd" class="s3" d="m114.6-113.8c0 16.7-13.6 30.2-30.3 30.2-16.7 0-30.2-13.5-30.2-30.2v-42.9c0-16.8 13.5-30.3 30.2-30.3 16.7 0 30.3 13.5 30.3 30.3z"/>
				<path id="&lt;Path&gt;" fill-rule="evenodd" class="s4" d="m-122.8-40.6c11.8 11.8 11.8 31 0 42.8-11.8 11.8-31 11.8-42.8 0l-30.3-30.3c-11.8-11.9-11.8-31 0-42.8 11.8-11.8 30.9-11.8 42.8 0z"/>
				<path id="&lt;Path&gt;" fill-rule="evenodd" class="s5" d="m-238.8 179.1c16.7 0 30.2 13.5 30.2 30.2 0 16.7-13.5 30.3-30.2 30.3h-42.9c-16.8 0-30.3-13.6-30.3-30.3 0-16.7 13.5-30.2 30.3-30.2z"/>
				<path id="&lt;Path&gt;" fill-rule="evenodd" class="s6" d="m-165.6 416.4c11.9-11.8 31-11.8 42.8 0 11.8 11.8 11.8 31 0 42.8l-30.3 30.3c-11.9 11.9-31 11.9-42.8 0.1-11.8-11.9-11.8-31 0-42.8z"/>
				<path id="&lt;Path&gt;" fill-rule="evenodd" class="s7" d="m54.1 532.5c0-16.8 13.5-30.3 30.2-30.3 16.7 0 30.3 13.5 30.3 30.3v42.9c0 16.7-13.6 30.2-30.3 30.2-16.7 0-30.2-13.5-30.2-30.2z"/>
				<path id="&lt;Path&gt;" fill-rule="evenodd" class="s8" d="m291.4 459.2c-11.8-11.8-11.8-31 0-42.8 11.8-11.8 31-11.8 42.8 0l30.3 30.3c11.9 11.9 11.9 31 0.1 42.8-11.9 11.9-31 11.8-42.8 0z"/>
				<path id="&lt;Path&gt;" fill-rule="evenodd" class="s9" d="m407.5 239.5c-16.8 0-30.3-13.5-30.3-30.2 0-16.7 13.5-30.2 30.3-30.2h42.9c16.7 0 30.2 13.5 30.2 30.2 0 16.7-13.5 30.2-30.2 30.2z"/>
				<path id="&lt;Path&gt;" fill-rule="evenodd" class="s10" d="m334.2 2.2c-11.8 11.8-31 11.8-42.8 0-11.8-11.8-11.8-31 0-42.8l30.4-30.3c11.8-11.8 30.9-11.8 42.7 0 11.9 11.8 11.9 30.9 0 42.8z"/>
			</g>
			<g id="&lt;Group&gt;">
				<g id="&lt;Group&gt;">
					<g id="&lt;Clip Group&gt;" clip-path="url(#cp1)">
						<path id="&lt;Mesh&gt;" fill-rule="evenodd" class="s11" d="m-146.4 158.5q0 3.9 0 3.9l158.4 7.5q0 0 0-3.9zm158.4 7.4q0 4 0 4l11.8 0.5q0 0 0.4-3.9zm-158.4-3.6v3.9l158.4 7.6v-4zm158.3 7.5v4l11.5 0.5 0.4-3.9zm-158.4-3.6v3.9l158.4 7.5v-3.9zm158.3 7.5v4l11.2 0.5 0.3-3.9zm-158.4-3.6v3.9l158.4 7.5v-3.9zm158.4 7.6v3.9l10.8 0.5 0.3-3.9zm-158.4-3.7v15.8l158.4 7.7v-15.9zm158.4 7.6v15.9l9.3 0.4 1.5-15.8zm-158.4 8.2v15.8l158.4 7.7v-15.8zm158.4 7.6v15.9l7.9 0.4 1.4-15.8zm-158.4 8.1v15.8l158.4 7.8v-15.8zm158.4 7.7v15.9l6.5 0.3 1.4-15.8zm-158.4 8q0 0 0 15.8l158.4 8q0-15.9 0-15.9zm158.4 7.8q0 0 0 15.9l5 0.3q1.4-15.9 1.4-15.9z"/>
					</g>
					<path id="&lt;Mesh&gt;" fill-rule="evenodd" class="s12" d="m12 166q0 3.9 0 3.9 11.8 0.5 11.8 0.5 0 0 0.4-3.9 0 0-12.2-0.5zm105.4 40.6c-0.9-0.1-2 0-3.1-0.1q-1.6-0.3-3.5-0.6c-5-1.1-8-2.1-17.8-9.2-4.6-3.4-11.2-8.7-19-13.5-7.6-4.9-16.6-8.9-24.2-11.5-3.9-1.1-7.5-2.1-10.7-2.9-3.1-0.7-5.8-1-8-1.4-4.5-0.7-6.9-0.9-6.9-0.9q-0.4 3.9-0.4 3.9c0 0 2.4 0.2 6.7 0.9 2.2 0.4 4.8 0.7 7.8 1.3 3 0.9 6.5 1.8 10.2 2.8 7.4 2.6 16 6.4 23.4 11.1 7.6 4.7 14.1 9.9 18.8 13.3 9.8 7.3 13.8 8.8 19.4 10q2.1 0.2 3.8 0.6c1.1 0.1 2.4 0.1 3.3 0.1 1.9 0.1 2.9 0.2 2.9 0.2q0 0 0-3.9c0 0-1-0.1-2.7-0.2zm103.7-40.3c-4.4 0-11.3 0.9-19.5 2.4-8.3 2-18.5 5.1-27.8 10.2-9.3 4.9-17.5 11-23.4 15.5-11.7 8.9-15.2 10.1-20.2 11.4-5.1 1-10.2 0.8-10 1q0 3.9 0 3.9c-0.2-0.2 5.2 0.1 10.8-1 5.7-1.5 10.1-3.2 21.8-12.2 5.9-4.5 13.9-10.4 22.9-15.1 8.9-4.9 18.7-7.9 26.7-9.8 8-1.6 14.6-2.4 18.9-2.4 4.5-0.2 7-0.3 7-0.3q0 0 0-3.9c0 0-2.6 0.1-7.2 0.3zm0.2 3.9c-4.3 0-10.9 0.8-18.9 2.4-8 1.9-17.8 4.9-26.7 9.8-9 4.7-17 10.6-22.9 15.1-11.7 9-16.1 10.7-21.8 12.2-5.6 1.1-11 0.8-10.8 1v3.9c-0.1-0.1 5.4 0.1 11.6-1.1 6.3-1.5 11.7-3.8 23.4-12.9 5.9-4.5 13.6-10.2 22.3-14.7 8.6-4.8 18-7.6 25.7-9.5 7.7-1.5 14.1-2.3 18.3-2.3 4.3-0.2 6.8-0.3 6.8-0.3v-3.9c0 0-2.5 0.1-7 0.3zm7-4.2q0 3.9 0 3.9h0.2q0 0 0-3.9zm98.4 39.8c-5.1-1.3-8.6-2.5-20.3-11.4-5.9-4.5-14.1-10.6-23.4-15.5-9.2-5.1-19.4-8.2-27.7-10.2-8.2-1.5-15.1-2.4-19.6-2.4-4.5-0.2-7.1-0.3-7.1-0.3q0 3.9 0 3.9c0 0 2.5 0.1 6.9 0.3 4.3 0 11 0.8 19 2.4 8 1.9 17.8 4.9 26.7 9.8 9 4.7 17 10.6 22.9 15.1 11.7 9 16.1 10.7 21.8 12.2 5.6 1.1 10.9 0.8 10.7 1q0 0 0-3.9c0.2-0.2-4.9 0-9.9-1zm110.9-39.5c-4.4 0-11.3 0.9-19.5 2.4-8.3 2-18.5 5.1-27.7 10.2-9.4 4.9-17.5 11-23.4 15.5-11.8 8.9-15.2 10.1-20.3 11.4-5.1 1-10.2 0.8-10 1q0 3.9 0 3.9c-0.2-0.2 5.2 0.1 10.8-1 5.7-1.5 10.1-3.2 21.8-12.2 5.9-4.5 13.9-10.4 22.9-15.1 8.9-4.9 18.7-7.9 26.7-9.8 8-1.6 14.6-2.4 18.9-2.4 4.5-0.2 7-0.3 7-0.3q0 0 0-3.9c0 0-2.6 0.1-7.2 0.3zm-111.7 43.4c-5.7-1.5-10.1-3.2-21.8-12.2-5.9-4.5-13.9-10.4-22.9-15.1-8.9-4.9-18.7-7.9-26.7-9.8-8-1.6-14.7-2.4-19-2.4-4.4-0.2-6.9-0.3-6.9-0.3v3.9c0 0 2.4 0.1 6.7 0.3 4.2 0 10.6 0.8 18.3 2.3 7.8 1.9 17.2 4.7 25.8 9.5 8.6 4.5 16.4 10.2 22.3 14.7 11.7 9.1 17.1 11.4 23.3 12.9 6.2 1.2 11.8 1 11.6 1.1v-3.9c0.2-0.2-5.1 0.1-10.7-1zm118.9-43.7q0 3.9 0 3.9h0.2q0 0 0.1-3.9zm100.9 40.2c-0.7-0.2-1.7-0.2-2.6-0.4q-1.3-0.4-3-0.8c-4.1-1.4-8.3-3.7-21-13.4-6.3-4.6-14.1-10.2-23.3-14.5-4.4-2.3-9.2-3.9-13.5-5.5-4.4-1.3-8.7-2.5-12.6-3.3-3.8-0.5-7.3-1.1-10.4-1.6-3-0.3-5.5-0.3-7.6-0.5-4.3-0.1-6.7-0.2-6.7-0.2q0 3.9 0 3.9c0 0 2.3 0.1 6.5 0.3 2 0.1 4.5 0.1 7.4 0.4 3 0.5 6.4 1 10.1 1.6 3.7 0.7 7.8 1.9 12.1 3.1 4.1 1.5 8.7 3.1 13 5.3 8.9 4.1 16.5 9.6 22.7 14.1 12.5 9.6 17.4 12.5 22.1 14.1q1.9 0.3 3.3 0.8c1.1 0.3 2.1 0.3 2.9 0.5 1.6 0.3 2.6 0.4 2.6 0.3q0 0 0.4-3.9c-0.1 0.1-1 0-2.4-0.3zm2.4 0.3q-0.4 3.9-0.4 3.9c0 0 1.8 0 5.4 0.3q0 0 0-3.9c-3.3-0.3-5-0.3-5-0.3zm-536.1-36.6v3.9q11.5 0.5 11.5 0.5l0.3-3.9q0 0-11.8-0.5zm105.2 40.6c-0.9 0-2.2 0-3.3-0.1q-1.7-0.4-3.8-0.6c-5.6-1.2-9.6-2.7-19.4-10-4.7-3.4-11.2-8.6-18.8-13.3-7.4-4.7-16-8.5-23.4-11.1-3.7-1-7.2-1.9-10.2-2.8-3-0.6-5.6-0.9-7.8-1.3-4.3-0.7-6.7-0.9-6.7-0.9l-0.3 3.9c0 0 2.3 0.2 6.4 0.9 4.2 0.4 10.2 1.8 17.4 3.9 7.1 2.5 15.4 6.1 22.6 10.8 7.3 4.5 13.7 9.5 18.5 13.1 9.9 7.4 14.8 9.4 20.9 10.6q2.3 0.3 4.1 0.7c1.3 0.1 2.6 0.1 3.6 0.1 2 0.2 3.1 0.2 3.1 0.2v-3.9c0 0-1-0.1-2.9-0.2zm104.3-36.4c-4.2 0-10.6 0.8-18.3 2.3-7.7 1.9-17.1 4.7-25.7 9.5-8.7 4.5-16.4 10.2-22.3 14.7-11.7 9.1-17.1 11.4-23.4 12.9-6.2 1.2-11.7 1-11.6 1.1v3.9c0 0 1.4 0 3.6-0.2 2.4 0.1 5.4-0.4 8.9-1 6.8-1.5 13.2-4.5 24.8-13.6 5.9-4.4 13.5-10 21.8-14.4 8.3-4.6 17.3-7.3 24.8-9.1 7.4-1.4 13.6-2.2 17.6-2.2 4.2-0.2 6.6-0.3 6.6-0.3v-3.9c0 0-2.5 0.1-6.8 0.3zm-101.4 32.7q0 3.9 0 3.9h0.1q0 0 0-3.9zm108.2-36.9v3.9h0.2v-3.9zm209.5 0.3c-4.3 0-10.9 0.8-18.9 2.4-8 1.9-17.8 4.9-26.7 9.8-9 4.7-17 10.6-22.9 15.1-11.7 9-16.1 10.7-21.8 12.2-5.6 1.1-11 0.8-10.8 1v3.9c-0.1-0.1 5.4 0.1 11.6-1.1 6.3-1.5 11.7-3.8 23.4-12.9 5.9-4.5 13.6-10.2 22.3-14.7 8.6-4.8 18-7.6 25.7-9.5 7.7-1.5 14.2-2.3 18.4-2.3 4.2-0.2 6.7-0.3 6.7-0.3v-3.9c0 0-2.5 0.1-7 0.3zm-112.8 43.3c-6.2-1.5-11.6-3.8-23.3-12.9-5.9-4.5-13.7-10.2-22.3-14.7-8.7-4.8-18.1-7.6-25.8-9.5-7.7-1.5-14.1-2.3-18.3-2.3-4.3-0.2-6.7-0.3-6.7-0.3v3.9c0 0 2.3 0.1 6.5 0.3 4.1 0 10.3 0.8 17.7 2.2 7.4 1.8 16.4 4.5 24.7 9.1 8.4 4.4 15.9 10 21.8 14.5 11.7 9 18.1 12 24.9 13.5 3.5 0.6 6.4 1.1 8.8 1 2.3 0.2 3.6 0.2 3.6 0.2v-3.9c0.2-0.1-5.4 0.1-11.6-1.1zm113.1-39.4c-4.2 0-10.7 0.8-18.4 2.3-7.7 1.9-17.1 4.7-25.7 9.5-8.7 4.5-16.4 10.2-22.3 14.7-11.7 9.1-17.1 11.4-23.4 12.9-6.2 1.2-11.7 1-11.6 1.1v3.9c0 0 1.3 0 3.6-0.2 2.4 0.1 5.4-0.4 8.9-1 6.8-1.5 13.2-4.5 24.8-13.6 5.9-4.4 13.5-10 21.8-14.4 8.3-4.6 17.3-7.3 24.8-9.1 7.4-1.4 13.6-2.2 17.7-2.2 4.1-0.2 6.5-0.3 6.5-0.3v-3.9c0 0-2.5 0.1-6.7 0.3zm6.7-4.2v3.9h0.2v-3.9zm100.4 40.2c-0.8-0.2-1.9-0.2-2.9-0.5q-1.5-0.5-3.3-0.8c-4.7-1.6-9.6-4.5-22.1-14.1-6.2-4.5-13.9-10-22.8-14.1-4.2-2.2-8.8-3.8-13-5.3-4.2-1.2-8.3-2.4-12-3.1-3.7-0.6-7.1-1.1-10.1-1.6-3-0.3-5.4-0.3-7.5-0.4-4.1-0.2-6.4-0.3-6.4-0.3v3.9c0 0 2.3 0.1 6.2 0.3 2.1 0.1 4.4 0.1 7.3 0.4 2.9 0.5 6.1 1 9.7 1.5 3.6 0.7 7.5 1.9 11.6 3 4 1.5 8.5 3.1 12.5 5.1 8.6 4 16 9.3 22.1 13.8 12.3 9.5 18 12.8 23.3 14.6 2.6 0.7 4.9 1.3 6.8 1.4 1.7 0.4 2.8 0.5 2.8 0.4l0.4-3.9c0 0.1-1 0-2.6-0.3zm2.6 0.3l-0.4 3.9q0 0 5.8 0.3v-3.9c-3.6-0.3-5.4-0.3-5.4-0.3zm-535.7-36.6v3.9q11.1 0.5 11.1 0.5l0.4-3.9q0 0-11.5-0.5zm105 40.6c-1 0-2.3 0-3.6-0.1q-1.8-0.4-4.1-0.7c-6.1-1.2-11-3.2-20.9-10.6-4.8-3.6-11.2-8.6-18.6-13.1-7.1-4.7-15.5-8.3-22.5-10.8-7.2-2.1-13.3-3.5-17.4-3.9-4.2-0.7-6.4-0.9-6.4-0.9l-0.4 3.9c0 0 2.2 0.2 6.3 0.9 3.9 0.4 9.7 1.7 16.7 3.8 6.7 2.4 14.7 5.8 21.7 10.3 7.1 4.4 13.3 9.3 18.2 12.9 10.1 7.6 16 10.1 22.5 11.4 3.2 0.5 6 0.9 8.3 0.9 2.1 0.1 3.3 0.1 3.3 0.1v-3.9c0 0-1.1 0-3.1-0.2zm3.1 0.2v3.9h0.1v-3.9zm0-3.9v3.9h0.1v-3.9zm108.2-36.9v3.9h0.2v-3.9zm108.3 36.9v3.9h0.1v-3.9zm0 3.9v3.9h0.1v-3.9zm0.1-7.8q0 3.9 0 3.9h0.1q0 0 0-3.9zm108.1-33v3.9h0.3v-3.9zm99.7 40.1c-1.8-0.1-4.1-0.7-6.8-1.4-5.3-1.8-10.9-5.1-23.2-14.6-6.2-4.5-13.6-9.8-22.1-13.8-4.1-2-8.5-3.6-12.5-5.1-4.1-1.1-8.1-2.3-11.7-3-3.5-0.5-6.8-1-9.7-1.5-2.9-0.3-5.2-0.3-7.2-0.4-4-0.2-6.3-0.3-6.3-0.3v3.9c0 0 2.2 0.1 6.1 0.3 3.8 0 9.4 0.6 16.4 1.9 3.4 0.6 7.2 1.8 11.1 2.9 3.9 1.4 8.1 2.9 12.1 4.8 8.2 3.9 15.4 9 21.4 13.4 12.1 9.4 18.5 13.3 24.4 15.2 2.9 0.8 5.4 1.5 7.5 1.6 1.8 0.4 3 0.5 3 0.4l0.4-3.9c-0.1 0.1-1.1 0-2.9-0.4zm2.9 0.4l-0.4 3.9q0 0 6.1 0.3v-3.9q-5.7-0.3-5.7-0.3zm-535.4-36.6v3.9q10.8 0.5 10.8 0.6l0.3-4q0 0-11.1-0.5zm104.8 40.7c-2.2 0-5-0.4-8.3-0.9-6.5-1.3-12.4-3.8-22.4-11.4-4.9-3.6-11.2-8.5-18.3-12.9-6.9-4.5-14.9-7.9-21.7-10.3-6.9-2.1-12.7-3.4-16.7-3.8-4-0.7-6.3-0.9-6.3-0.9l-0.3 4c0 0 2.1 0.1 6 0.7 3.8 0.5 9.4 1.7 16.1 3.7 13.4 3.9 29.2 15.1 38.8 22.7 10.2 7.6 17 10.7 24.1 12 3.5 0.6 6.5 1 8.8 1 2.2 0.1 3.5 0.2 3.5 0.2v-4c0 0-1.2 0-3.3-0.1zm3.3 0.1v4h0.2v-4zm101.6-40.5c-4.1 0-10.3 0.8-17.7 2.2-7.4 1.8-16.4 4.5-24.7 9.1-8.4 4.4-15.9 10-21.8 14.4-11.7 9.1-18.1 12.1-24.9 13.6-3.5 0.6-6.4 1.1-8.8 1-2.3 0.2-3.6 0.2-3.6 0.2v4c0 0 1.4-0.1 3.8-0.2 2.5 0 5.7-0.6 9.4-1.2 7.5-1.6 14.8-5.1 26.4-14.2 5.9-4.5 13.2-9.9 21.3-14.1 8-4.4 16.6-7 23.7-8.7 7.2-1.4 13.1-2.1 17.1-2.2 4-0.2 6.3-0.3 6.3-0.3v-3.9c0 0-2.3 0.1-6.5 0.3zm6.5-0.3v3.9h0.3v-3.9zm104.6 40.6c-2.4 0.1-5.3-0.4-8.8-1-6.8-1.5-13.2-4.5-24.9-13.5-5.8-4.5-13.4-10.1-21.7-14.5-8.3-4.6-17.4-7.3-24.8-9.1-7.4-1.4-13.6-2.2-17.7-2.2-4.1-0.2-6.5-0.3-6.5-0.3v3.9c0 0 2.3 0.1 6.3 0.3 4 0.1 9.9 0.8 17.1 2.2 7.1 1.7 15.7 4.3 23.7 8.7 8.1 4.2 15.4 9.6 21.3 14.1 11.6 9.1 18.9 12.6 26.4 14.2 3.7 0.6 6.9 1.2 9.4 1.2 2.4 0.1 3.8 0.2 3.8 0.2v-4c0 0-1.3 0-3.6-0.2zm3.6 0.2v4h0.2v-4zm101.6-40.5c-4.1 0-10.3 0.8-17.7 2.2-7.4 1.8-16.4 4.5-24.7 9.1-8.4 4.4-15.9 10-21.8 14.4-11.7 9.1-18.1 12.1-24.9 13.6-3.5 0.6-6.4 1.1-8.8 1-2.3 0.2-3.6 0.2-3.6 0.2v4c0 0 1.4-0.1 3.8-0.2 2.5 0 5.7-0.6 9.4-1.2 7.5-1.6 14.8-5.1 26.4-14.2 5.9-4.5 13.3-9.9 21.3-14.1 8-4.4 16.6-7 23.7-8.7 7.2-1.4 13.2-2.1 17.1-2.2 4-0.2 6.4-0.3 6.4-0.3v-3.9c0 0-2.4 0.1-6.6 0.3zm6.6-0.3v3.9h0.2v-3.9zm99.2 40.1c-2.1-0.1-4.6-0.8-7.5-1.6-5.9-1.9-12.3-5.8-24.4-15.2-6-4.4-13.2-9.5-21.4-13.4-4-1.9-8.2-3.4-12.1-4.8-3.9-1.1-7.7-2.3-11.2-2.9-6.9-1.3-12.5-1.9-16.3-1.9-3.9-0.2-6.1-0.3-6.1-0.3v3.9c0 0 2.1 0.1 5.9 0.3 3.7 0 9.1 0.6 15.8 1.8 3.3 0.7 6.9 1.8 10.7 2.8 3.7 1.4 7.8 2.8 11.6 4.7 7.9 3.6 14.8 8.6 20.8 13 11.9 9.2 19 13.7 25.4 15.7 3.3 0.9 6 1.6 8.2 1.8 2 0.4 3.3 0.4 3.3 0.5l0.3-4c0 0.1-1.2 0-3-0.4zm3 0.4l-0.3 4q0 0 6.4 0.3v-4q-6.1-0.3-6.1-0.3zm-535-36.6v15.9q9.3 0.5 9.3 0.5l1.5-15.8q0-0.1-10.8-0.6zm104.6 40.7c-2.3 0-5.3-0.4-8.8-1-7.1-1.3-13.9-4.4-24.1-12-9.6-7.6-25.4-18.8-38.9-22.7-6.6-2-12.2-3.2-16-3.7-3.9-0.6-6-0.7-6-0.7l-1.5 15.8c0 0 1.9 0.1 5.2 0.6 3.2 0.4 7.9 1.4 13.4 3.1 11.1 3.3 24 12.2 34.4 20.4 10.6 8.1 21.2 13.3 30.4 14.8 4.5 0.8 8.3 1.2 11.1 1.2 2.7 0.2 4.3 0.2 4.3 0.2v-15.8c0 0-1.3-0.1-3.5-0.2zm3.5 0.2v15.8h0.2v-15.8zm101.8-40.6c-4 0.1-9.9 0.8-17.1 2.2-7.1 1.7-15.7 4.3-23.7 8.7-8.1 4.2-15.4 9.6-21.3 14.1-11.6 9.1-18.9 12.6-26.4 14.2-3.7 0.6-6.9 1.2-9.4 1.2-2.4 0.1-3.8 0.2-3.8 0.2v15.8c0 0 1.7 0 4.6-0.2 3 0 7.1-0.6 12-1.4 9.8-2 21-8 32.6-17.1 5.9-4.5 12.3-9.2 19.1-12.7 6.7-3.8 13.8-5.8 19.7-7.3 6-1.1 11.1-1.8 14.6-1.8 3.4-0.2 5.4-0.3 5.4-0.3v-15.9c0 0-2.3 0.1-6.3 0.3zm6.3-0.3v15.9h0.2l0.1-15.9zm104.4 40.7c-2.5 0-5.7-0.6-9.4-1.2-7.5-1.6-14.8-5.1-26.4-14.2-5.9-4.5-13.2-9.9-21.3-14.1-8-4.4-16.6-7-23.7-8.7-7.2-1.4-13.1-2.1-17.1-2.2-4-0.2-6.3-0.3-6.3-0.3v15.9c0 0 2 0.1 5.5 0.3 3.4 0 8.5 0.7 14.5 1.8 5.9 1.5 13 3.5 19.7 7.3 6.8 3.5 13.2 8.2 19.1 12.7 11.6 9.1 22.8 15.1 32.6 17.1 4.9 0.8 9 1.4 12 1.4 2.9 0.2 4.6 0.2 4.6 0.2v-15.8c0 0-1.4-0.1-3.8-0.2zm3.8 0.2v15.8h0.2v-15.8zm101.8-40.6c-3.9 0.1-9.9 0.8-17 2.2-7.2 1.7-15.8 4.3-23.8 8.7-8 4.2-15.4 9.6-21.3 14.1-11.6 9.1-18.9 12.6-26.4 14.2-3.7 0.6-6.9 1.2-9.4 1.2-2.4 0.1-3.8 0.2-3.8 0.2v15.8c0 0 1.7 0 4.6-0.2 3 0 7.1-0.6 12-1.4 9.8-2 21.1-8 32.6-17.1 5.9-4.5 12.3-9.2 19.1-12.7 6.7-3.8 13.8-5.8 19.7-7.3 6.1-1.1 11.1-1.8 14.6-1.8 3.5-0.2 5.5-0.3 5.5-0.3v-15.9c0 0-2.3 0.1-6.4 0.3zm6.4-0.3v15.9h0.2v-15.9zm98.6 40.1c-2.2-0.2-4.9-0.9-8.2-1.8-6.4-2-13.5-6.5-25.4-15.7-6-4.4-12.9-9.4-20.8-13-3.8-1.9-7.9-3.3-11.6-4.7-3.8-1-7.4-2.1-10.7-2.8-6.7-1.2-12.1-1.8-15.8-1.8-3.8-0.2-5.9-0.3-5.9-0.3v15.9c0 0 1.8 0.1 5.1 0.3 3.2 0 7.9 0.5 13.5 1.5 11.2 1.7 25.7 9 36.8 17.6 11.1 8.7 21.1 15.4 29.9 18.1 4.3 1.3 8 2.1 10.7 2.4 2.7 0.5 4.2 0.6 4.2 0.6l1.5-15.8c0-0.1-1.3-0.1-3.3-0.5zm3.3 0.5l-1.5 15.8q0 0 7.9 0.3v-15.8q-6.4-0.3-6.4-0.3zm-534.7-24.7v15.9q7.9 0.4 7.9 0.4l1.4-15.8q0 0-9.3-0.5zm103.8 40.6c-2.8 0-6.6-0.4-11.1-1.2-9.2-1.5-19.8-6.7-30.4-14.8-10.4-8.2-23.3-17.1-34.4-20.4-5.5-1.7-10.2-2.7-13.4-3.1-3.3-0.5-5.2-0.6-5.2-0.6l-1.4 15.8c0 0 1.6 0.1 4.2 0.5 2.7 0.3 6.4 1.2 10.8 2.4 8.8 2.7 18.8 9.5 30 18.1 11 8.7 25.4 15.9 36.7 17.7 5.5 0.9 10.2 1.5 13.4 1.5 3.2 0.1 5.1 0.2 5.1 0.2v-15.9c0 0-1.6 0-4.3-0.2zm4.3 0.2v15.9h0.2v-15.9zm102.7-40.5c-3.5 0-8.5 0.7-14.5 1.8-6 1.5-13.1 3.5-19.8 7.3-6.7 3.5-13.2 8.2-19.1 12.7-11.5 9.1-22.8 15.1-32.5 17.1-4.9 0.8-9 1.4-12 1.4-3 0.2-4.7 0.2-4.7 0.2l0.1 15.9c0 0 1.9-0.1 5.4-0.2 3.5 0 8.5-0.7 14.5-1.8 6-1.5 13-3.5 19.7-7.3 6.8-3.5 13.2-8.2 19.1-12.7 11.5-9.2 22.8-15.2 32.6-17.1 4.9-0.9 9-1.5 12-1.5 3-0.1 4.7-0.2 4.7-0.2v-15.9c0 0-2 0.1-5.5 0.3zm5.5-0.3v15.9h0.2v-15.9zm103.6 40.6c-3 0-7.1-0.6-12-1.4-9.8-2-21-8-32.6-17.1-5.9-4.5-12.3-9.2-19.1-12.7-6.7-3.8-13.8-5.8-19.7-7.3-6-1.1-11.1-1.8-14.5-1.8-3.5-0.2-5.5-0.3-5.5-0.3v15.9c0 0 1.6 0.1 4.6 0.2 3 0 7.1 0.6 12 1.5 9.8 1.9 21.1 7.9 32.7 17.1 5.8 4.5 12.3 9.2 19 12.7 6.7 3.8 13.8 5.8 19.7 7.3 6 1.1 11 1.8 14.5 1.8 3.5 0.1 5.5 0.2 5.5 0.2v-15.9c0 0-1.7 0-4.6-0.2zm4.6 0.2v15.9h0.2v-15.9zm102.7-40.5c-3.5 0-8.5 0.7-14.5 1.8-6 1.5-13 3.5-19.7 7.3-6.8 3.5-13.3 8.2-19.2 12.7-11.5 9.1-22.7 15.1-32.5 17.1-4.9 0.8-9 1.4-12 1.4-3 0.2-4.7 0.2-4.7 0.2l0.1 15.9c0 0 1.9-0.1 5.4-0.2 3.5 0 8.5-0.7 14.5-1.8 6-1.5 13-3.5 19.7-7.3 6.8-3.5 13.2-8.2 19.1-12.7 11.6-9.2 22.8-15.2 32.7-17.1 4.9-0.9 9-1.5 12-1.5 2.9-0.1 4.6-0.2 4.6-0.2v-15.9c0 0-2 0.1-5.5 0.3zm5.5-0.3v15.9h0.2v-15.9zm96.2 39.9c-2.7-0.3-6.4-1.1-10.7-2.4-8.8-2.7-18.8-9.4-29.9-18.1-11.1-8.6-25.6-15.9-36.8-17.6-5.6-1-10.3-1.5-13.5-1.5-3.3-0.2-5.1-0.3-5.1-0.3v15.9c0 0 1.5 0.1 4.3 0.2 2.8 0 6.6 0.5 11.2 1.3 9.2 1.5 19.8 6.7 30.4 14.8 10.4 8.2 23.3 17.1 34.4 20.4 5.5 1.6 10.1 2.7 13.4 3 3.3 0.5 5.1 0.7 5.1 0.7l1.4-15.8c0 0-1.5-0.1-4.2-0.6zm4.2 0.6l-1.4 15.8q0 0 9.3 0.4v-15.9q-7.9-0.3-7.9-0.3zm-533.2-24.6v15.9q6.5 0.3 6.5 0.3l1.4-15.8q0 0-7.9-0.4zm103 40.6c-3.2 0-7.9-0.6-13.4-1.5-11.3-1.8-25.7-9-36.7-17.7-11.2-8.6-21.2-15.4-30-18.1-4.4-1.2-8.1-2.1-10.8-2.4-2.6-0.4-4.2-0.5-4.2-0.5l-1.4 15.8c0 0 1.2 0.1 3.3 0.4 2.1 0.2 4.9 0.9 8.1 1.8 6.5 2.1 13.6 6.6 25.5 15.8 6 4.3 12.9 9.3 20.8 13 3.8 1.9 7.8 3.3 11.5 4.7 3.8 1 7.4 2.1 10.8 2.7 6.6 1.2 12 1.8 15.7 1.8 3.8 0.2 5.9 0.3 5.9 0.3v-15.9c0 0-1.8-0.1-5.1-0.2zm5.1 0.2v15.9h0.2v-15.9zm103.6-40.6c-3 0-7.1 0.6-12 1.5-9.8 1.9-21.1 7.9-32.7 17.1-5.9 4.5-12.3 9.2-19.1 12.7-6.6 3.8-13.7 5.8-19.6 7.3-6 1.1-11.1 1.8-14.5 1.8-3.5 0.1-5.5 0.2-5.5 0.2v15.9c0 0 2.3-0.1 6.3-0.3 4 0 9.9-0.8 17.1-2.1 7.1-1.7 15.7-4.3 23.7-8.7 8-4.3 15.3-9.6 21.2-14.1 11.6-9.1 19-12.7 26.5-14.3 3.7-0.6 6.9-1.2 9.4-1.1 2.5-0.1 3.8-0.2 3.8-0.2v-15.9c0 0-1.7 0.1-4.6 0.2zm4.6-0.2v15.9h0.2v-15.9zm102.7 40.6c-3.5 0-8.5-0.7-14.5-1.8-5.9-1.5-13-3.5-19.7-7.3-6.7-3.5-13.2-8.2-19-12.7-11.6-9.2-22.9-15.2-32.7-17.1-4.9-0.9-9-1.5-12-1.5-3-0.1-4.6-0.2-4.6-0.2l-0.1 15.9c0 0 1.4 0.1 3.8 0.2 2.6-0.1 5.8 0.5 9.5 1.1 7.5 1.6 14.9 5.2 26.5 14.3 5.9 4.5 13.2 9.8 21.2 14.1 8 4.4 16.6 7 23.7 8.7 7.2 1.3 13.1 2.1 17.1 2.1 4 0.2 6.3 0.3 6.3 0.3v-15.9c0 0-2-0.1-5.5-0.2zm5.5 0.2v15.9h0.2v-15.9zm103.6-40.6c-3 0-7.1 0.6-12 1.5-9.8 1.9-21.1 7.9-32.7 17.1-5.8 4.5-12.3 9.2-19.1 12.7-6.6 3.8-13.7 5.8-19.6 7.3-6 1.1-11.1 1.8-14.5 1.8-3.5 0.1-5.5 0.2-5.5 0.2v15.9c0 0 2.3-0.1 6.3-0.3 4 0 9.9-0.8 17.1-2.1 7.1-1.7 15.7-4.3 23.7-8.7 8-4.3 15.3-9.6 21.2-14.1 11.6-9.1 19-12.7 26.5-14.3 3.7-0.6 6.9-1.2 9.5-1.1 2.4-0.1 3.8-0.2 3.8-0.2v-15.9c0 0-1.7 0.1-4.7 0.2zm4.7-0.2v15.9h0.1v-15.9zm93.9 39.7c-3.3-0.3-7.9-1.4-13.4-3-11.1-3.3-24-12.2-34.4-20.4-10.6-8.1-21.2-13.3-30.4-14.8-4.6-0.8-8.4-1.3-11.2-1.3-2.7-0.1-4.3-0.2-4.3-0.2v15.9c0 0 1.3 0 3.5 0.2 2.3-0.1 5.4 0.4 8.9 0.9 7.1 1.4 13.9 4.4 24.1 12.1 9.6 7.6 25.5 18.7 38.8 22.7 6.7 2 12.2 3.2 16.1 3.6 3.8 0.6 6 0.8 6 0.8l1.4-15.8c0 0-1.8-0.2-5.1-0.7zm5.1 0.7l-1.4 15.8q0 0 10.7 0.5v-15.9q-9.3-0.4-9.3-0.4zm-531.8-24.5q0 0 0 15.8c3.4 0.3 5.1 0.3 5.1 0.3q1.4-15.8 1.4-15.8 0 0-6.5-0.3zm102.2 40.5c-3.6 0-9.1-0.6-15.7-1.8-3.4-0.6-7-1.7-10.8-2.7-3.6-1.4-7.7-2.8-11.5-4.7-7.9-3.7-14.8-8.7-20.8-13-11.9-9.2-19-13.7-25.5-15.8-3.2-0.9-6-1.6-8.1-1.8-2-0.3-3.3-0.4-3.3-0.4q0 0-1.4 15.8c0 0 0.9 0.1 2.4 0.3 0.7 0.2 1.6 0.2 2.6 0.4q1.2 0.5 2.9 0.8c4.1 1.4 8.3 3.7 21 13.5 6.3 4.5 14.1 10.2 23.3 14.5 4.4 2.2 9.2 3.9 13.5 5.5 4.4 1.2 8.7 2.5 12.5 3.2 3.9 0.6 7.4 1.1 10.5 1.6 3 0.3 5.5 0.4 7.6 0.5 4.3 0.2 6.7 0.3 6.7 0.3q0-15.9 0-15.9c0 0-2.1-0.1-5.9-0.3zm5.9 0.3q0 0 0 15.9h0.2q0-15.9 0-15.9zm104.5-40.6c-2.6-0.1-5.7 0.5-9.5 1.1-7.5 1.6-14.8 5.2-26.5 14.3-5.9 4.5-13.2 9.8-21.2 14.1-8 4.4-16.6 7-23.7 8.7-7.1 1.3-13.1 2.1-17 2.1-4.1 0.2-6.4 0.3-6.4 0.3q0 0 0.1 15.9c0 0 2.6-0.1 7.1-0.3 4.4-0.1 11.3-0.9 19.6-2.5 8.3-2 18.4-5.1 27.7-10.2 9.3-4.9 17.5-10.9 23.4-15.4 11.7-9 15.2-10.1 20.3-11.5 5-1 10.1-0.8 9.9-0.9q0-15.9 0-15.9c0 0-1.4 0.1-3.8 0.2zm105.6 40.3c-3.9 0-9.9-0.8-17-2.1-7.1-1.7-15.7-4.3-23.7-8.7-8-4.3-15.3-9.6-21.2-14.1-11.7-9.1-19-12.7-26.5-14.3-3.8-0.6-6.9-1.2-9.5-1.1-2.4-0.1-3.8-0.2-3.8-0.2q0 0 0 15.9c-0.2 0.1 4.9-0.1 9.9 0.9 5.1 1.4 8.6 2.5 20.3 11.5 5.9 4.5 14.1 10.5 23.4 15.4 9.3 5.1 19.4 8.2 27.7 10.2 8.3 1.6 15.2 2.4 19.6 2.5 4.5 0.2 7.1 0.3 7.1 0.3q0.1-15.9 0.1-15.9c0 0-2.3-0.1-6.4-0.3zm-101.8-40.5q0 0 0 15.9h0.1q0-15.9 0-15.9zm108.2 40.8q0 0 0 15.9h0.2q0-15.9 0-15.9zm104.5-40.6c-2.5-0.1-5.7 0.5-9.5 1.1-7.4 1.6-14.8 5.2-26.5 14.3-5.9 4.5-13.2 9.8-21.2 14.1-8 4.4-16.6 7-23.7 8.7-7.1 1.3-13.1 2.1-17 2.1-4.1 0.2-6.4 0.3-6.4 0.3q0 0 0.1 15.9c0 0 2.6-0.1 7.1-0.3 4.5-0.1 11.3-0.9 19.6-2.5 8.3-2 18.4-5.1 27.7-10.2 9.3-4.9 17.5-10.9 23.4-15.4 11.7-9 15.2-10.1 20.3-11.5 5-1 10.1-0.8 9.9-0.9q0-15.9 0-15.9c0 0-1.4 0.1-3.8 0.2zm3.8-0.2q0 0 0 15.9h0.1q0-15.9 0-15.9zm91.6 39.5c-3.9-0.4-9.4-1.6-16-3.6-13.4-4-29.3-15.1-38.9-22.7-10.1-7.7-17-10.7-24.1-12.1-3.5-0.5-6.5-1-8.9-0.9-2.2-0.2-3.5-0.2-3.5-0.2q0 0 0 15.9c0 0 1 0 2.7 0.1 0.9 0.1 2 0 3.1 0.2q1.5 0.3 3.5 0.5c5 1.1 8.1 2.1 17.8 9.3 4.6 3.4 11.2 8.6 19 13.4 7.6 5 16.7 8.9 24.3 11.5 3.8 1.2 7.4 2.1 10.6 2.9 3.1 0.7 5.8 1 8 1.4 4.5 0.7 7 0.9 7 0.9q1.4-15.8 1.4-15.8c0 0-2.2-0.2-6-0.8zm6 0.8q0 0-1.4 15.8 0 0 12.1 0.6 0-15.9 0-15.9-10.7-0.5-10.7-0.5z"/>
					<g id="&lt;Clip Group&gt;" clip-path="url(#cp2)">
						<path id="&lt;Mesh&gt;" fill-rule="evenodd" class="s13" d="m548.1 206.5q-0.4 3.9-0.4 3.9c0 0 5.4 0.3 5.4 0.3q0 0 0-3.9zm5.1 0.2q0 4 0 4l158.3 7.9q0 0 0-3.9zm-5.4 3.6l-0.3 3.9 5.7 0.3v-3.9c0 0-5.4-0.3-5.4-0.3zm5.4 0.3v3.9l158.4 7.9v-3.9zm-5.7 3.7l-0.4 3.9 6.1 0.3v-3.9zm5.8 0.2v4l158.4 7.8v-3.9zm-6.1 3.7l-0.4 3.9 6.5 0.3v-3.9zm6.1 0.3v3.9l158.4 7.8v-3.9zm-6.5 3.6l-1.4 15.8 7.9 0.4v-15.8zm6.4 0.3v15.8l158.4 7.8v-15.8zm-7.9 15.5l-1.4 15.8 9.3 0.5v-15.9zm7.9 0.4v15.9l158.4 7.6v-15.8zm-9.4 15.5l-1.4 15.8 10.8 0.5v-15.9zm9.3 0.5v15.8l158.4 7.6v-15.8zm-10.8 15.4q0 0-1.4 15.8l12.2 0.6q0-15.9 0-15.9zm10.7 0.5q0 0 0 15.9l158.4 7.5q0-15.8 0-15.8z"/>
					</g>
				</g>
			</g>
			<g id="&lt;Group&gt;">
				<g id="&lt;Group&gt;">
					<g id="&lt;Clip Group&gt;" clip-path="url(#cp3)">
						<path id="&lt;Mesh&gt;" fill-rule="evenodd" class="s14" d="m-146.4 299.9q0 3.9 0 3.9l158.4 7.5q0 0 0-3.9zm158.4 7.5q0 3.9 0 3.9l11.8 0.6q0 0 0.4-3.9zm-158.4-3.6v3.9l158.4 7.5v-3.9zm158.3 7.5v3.9l11.5 0.6 0.4-3.9zm-158.4-3.6v3.9l158.4 7.5v-3.9zm158.3 7.5v3.9l11.2 0.6 0.3-3.9zm-158.4-3.7v3.9l158.4 7.6v-3.9zm158.4 7.5v3.9l10.8 0.6 0.3-3.9zm-158.4-3.7v15.8l158.4 7.6v-15.8zm158.4 7.5v15.9l9.3 0.5 1.5-15.8zm-158.4 8.2v15.8l158.4 7.7v-15.9zm158.4 7.7v15.9l7.9 0.4 1.4-15.9zm-158.4 8.2v15.7l158.4 7.9v-15.9zm158.4 7.8v15.9l6.5 0.3 1.4-15.8zm-158.4 8q0 0 0 15.8l158.4 7.9q0-15.9 0-15.9zm158.4 7.9q0 0 0 15.9l5 0.2q1.4-15.8 1.4-15.8z"/>
					</g>
					<path id="&lt;Mesh&gt;" fill-rule="evenodd" class="s15" d="m12 307.4q0 3.9 0 3.9 11.8 0.6 11.8 0.6 0 0 0.4-3.9 0 0-12.2-0.6zm105.4 40.7c-0.9-0.1-2 0-3.1-0.2q-1.6-0.3-3.5-0.5c-5-1.1-8-2.1-17.8-9.2-4.6-3.5-11.2-8.7-19-13.5-7.6-4.9-16.6-8.9-24.2-11.5-3.9-1.2-7.5-2.1-10.7-2.9-3.1-0.7-5.8-1-8-1.4-4.5-0.7-6.9-0.9-6.9-0.9q-0.4 3.9-0.4 3.9c0 0 2.4 0.2 6.7 0.9 2.2 0.3 4.8 0.6 7.8 1.3 3 0.8 6.5 1.8 10.2 2.8 7.4 2.6 16 6.3 23.4 11.1 7.6 4.7 14.1 9.8 18.8 13.3 9.8 7.3 13.8 8.8 19.4 9.9q2.1 0.3 3.8 0.6c1.1 0.2 2.4 0.1 3.3 0.2 1.9 0.1 2.9 0.2 2.9 0.2q0 0 0-3.9c0 0-1-0.1-2.7-0.2zm103.7-40.4c-4.4 0.1-11.3 0.9-19.5 2.5-8.3 2-18.5 5.1-27.8 10.2-9.3 4.9-17.5 10.9-23.4 15.4-11.7 9-15.2 10.2-20.2 11.5-5.1 1-10.2 0.8-10 1q0 3.9 0 3.9c-0.2-0.2 5.2 0 10.8-1.1 5.7-1.4 10.1-3.1 21.8-12.1 5.9-4.5 13.9-10.4 22.9-15.1 8.9-5 18.7-7.9 26.7-9.9 8-1.5 14.6-2.3 18.9-2.4 4.5-0.1 7-0.3 7-0.3q0 0 0-3.9c0 0-2.6 0.1-7.2 0.3zm0.2 3.9c-4.3 0.1-10.9 0.9-18.9 2.4-8 2-17.8 4.9-26.7 9.9-9 4.7-17 10.6-22.9 15.1-11.7 9-16.1 10.7-21.8 12.1-5.6 1.1-11 0.9-10.8 1.1v3.9c-0.1-0.2 5.4 0.1 11.6-1.1 6.3-1.5 11.7-3.9 23.4-12.9 5.9-4.5 13.6-10.2 22.3-14.8 8.6-4.7 18-7.6 25.7-9.4 7.7-1.5 14.1-2.3 18.3-2.3 4.3-0.2 6.8-0.3 6.8-0.3v-4c0 0-2.5 0.2-7 0.3zm7-4.2q0 3.9 0 3.9h0.2q0 0 0-3.9zm98.4 39.9c-5.1-1.3-8.6-2.5-20.3-11.5-5.9-4.4-14.1-10.5-23.4-15.4-9.2-5.1-19.4-8.2-27.7-10.2-8.2-1.6-15.1-2.4-19.6-2.5-4.5-0.2-7.1-0.3-7.1-0.3q0 3.9 0 3.9c0 0 2.5 0.2 6.9 0.3 4.3 0.1 11 0.9 19 2.4 8 2 17.8 4.9 26.7 9.9 9 4.7 17 10.6 22.9 15.1 11.7 9 16.1 10.7 21.8 12.1 5.6 1.1 10.9 0.9 10.7 1.1q0 0 0-3.9c0.2-0.2-4.9 0-9.9-1zm110.9-39.6c-4.4 0.1-11.3 0.9-19.5 2.5-8.3 2-18.5 5.1-27.7 10.2-9.4 4.9-17.5 10.9-23.4 15.4-11.8 9-15.2 10.2-20.3 11.5-5.1 1-10.2 0.8-10 1q0 3.9 0 3.9c-0.2-0.2 5.2 0 10.8-1.1 5.7-1.4 10.1-3.1 21.8-12.1 5.9-4.5 13.9-10.4 22.9-15.1 8.9-5 18.7-7.9 26.7-9.9 8-1.5 14.6-2.3 18.9-2.4 4.5-0.1 7-0.3 7-0.3q0 0 0-3.9c0 0-2.6 0.1-7.2 0.3zm-111.7 43.4c-5.7-1.4-10.1-3.1-21.8-12.1-5.9-4.5-13.9-10.4-22.9-15.1-8.9-5-18.7-7.9-26.7-9.9-8-1.5-14.7-2.3-19-2.4-4.4-0.1-6.9-0.3-6.9-0.3v4c0 0 2.4 0.1 6.7 0.3 4.2 0 10.6 0.8 18.3 2.3 7.8 1.8 17.2 4.7 25.8 9.4 8.6 4.6 16.4 10.3 22.3 14.8 11.7 9 17.1 11.4 23.3 12.9 6.2 1.2 11.8 0.9 11.6 1.1v-3.9c0.2-0.2-5.1 0-10.7-1.1zm118.9-43.7q0 3.9 0 3.9h0.2q0 0 0.1-3.9zm100.9 40.3c-0.7-0.2-1.7-0.2-2.6-0.4q-1.3-0.5-3-0.8c-4.1-1.4-8.3-3.7-21-13.5-6.3-4.5-14.1-10.2-23.3-14.5-4.4-2.2-9.2-3.9-13.5-5.4-4.4-1.3-8.7-2.5-12.6-3.3-3.8-0.6-7.3-1.1-10.4-1.6-3-0.3-5.5-0.4-7.6-0.5-4.3-0.2-6.7-0.3-6.7-0.3q0 3.9 0 3.9c0 0 2.3 0.1 6.5 0.3 2 0.2 4.5 0.2 7.4 0.5 3 0.5 6.4 1 10.1 1.6 3.7 0.7 7.8 1.9 12.1 3.1 4.1 1.5 8.7 3.1 13 5.3 8.9 4.1 16.5 9.6 22.7 14.1 12.5 9.6 17.4 12.4 22.1 14q1.9 0.4 3.3 0.9c1.1 0.2 2.1 0.3 2.9 0.4 1.6 0.3 2.6 0.5 2.6 0.4q0 0 0.4-3.9c-0.1 0.1-1-0.1-2.4-0.3zm2.4 0.3q-0.4 3.9-0.4 3.9c0 0 1.8 0 5.4 0.3q0 0 0-3.9c-3.3-0.3-5-0.3-5-0.3zm-536.1-36.7v4q11.5 0.5 11.5 0.5l0.3-3.9q0 0-11.8-0.6zm105.2 40.7c-0.9-0.1-2.2 0-3.3-0.2q-1.7-0.3-3.8-0.6c-5.6-1.1-9.6-2.6-19.4-9.9-4.7-3.5-11.2-8.6-18.8-13.3-7.4-4.8-16-8.5-23.4-11.1-3.7-1-7.2-2-10.2-2.8-3-0.7-5.6-1-7.8-1.3-4.3-0.7-6.7-0.9-6.7-0.9l-0.3 3.9c0 0 2.3 0.2 6.4 0.8 4.2 0.5 10.2 1.8 17.4 4 7.1 2.5 15.4 6.1 22.6 10.7 7.3 4.6 13.7 9.6 18.5 13.2 9.9 7.3 14.8 9.4 20.9 10.6q2.3 0.3 4.1 0.6c1.3 0.2 2.6 0.1 3.6 0.2 2 0.1 3.1 0.2 3.1 0.2v-3.9c0 0-1-0.1-2.9-0.2zm104.3-36.4c-4.2 0-10.6 0.8-18.3 2.3-7.7 1.8-17.1 4.7-25.7 9.4-8.7 4.6-16.4 10.3-22.3 14.8-11.7 9-17.1 11.4-23.4 12.9-6.2 1.2-11.7 0.9-11.6 1.1v3.9c0 0 1.4-0.1 3.6-0.2 2.4 0.1 5.4-0.5 8.9-1 6.8-1.6 13.2-4.5 24.8-13.6 5.9-4.5 13.5-10 21.8-14.4 8.3-4.6 17.3-7.3 24.8-9.1 7.4-1.4 13.6-2.2 17.6-2.2 4.2-0.2 6.6-0.3 6.6-0.3v-3.9c0 0-2.5 0.1-6.8 0.3zm-101.4 32.7q0 3.9 0 3.9h0.1q0 0 0-3.9zm108.2-37v4h0.2v-4zm209.5 0.3c-4.3 0.1-10.9 0.9-18.9 2.4-8 2-17.8 4.9-26.7 9.9-9 4.7-17 10.6-22.9 15.1-11.7 9-16.1 10.7-21.8 12.1-5.6 1.1-11 0.9-10.8 1.1v3.9c-0.1-0.2 5.4 0.1 11.6-1.1 6.3-1.5 11.7-3.9 23.4-12.9 5.9-4.5 13.6-10.2 22.3-14.8 8.6-4.7 18-7.6 25.7-9.4 7.7-1.5 14.2-2.3 18.4-2.3 4.2-0.2 6.7-0.3 6.7-0.3v-4c0 0-2.5 0.2-7 0.3zm-112.8 43.4c-6.2-1.5-11.6-3.9-23.3-12.9-5.9-4.5-13.7-10.2-22.3-14.8-8.7-4.7-18.1-7.6-25.8-9.4-7.7-1.5-14.1-2.3-18.3-2.3-4.3-0.2-6.7-0.3-6.7-0.3v3.9c0 0 2.3 0.1 6.5 0.3 4.1 0 10.3 0.8 17.7 2.2 7.4 1.8 16.4 4.5 24.7 9.1 8.4 4.4 15.9 9.9 21.8 14.4 11.7 9.1 18.1 12 24.9 13.6 3.5 0.5 6.4 1.1 8.8 1 2.3 0.1 3.6 0.2 3.6 0.2v-3.9c0.2-0.2-5.4 0.1-11.6-1.1zm113.1-39.4c-4.2 0-10.7 0.8-18.4 2.3-7.7 1.8-17.1 4.7-25.7 9.4-8.7 4.6-16.4 10.3-22.3 14.8-11.7 9-17.1 11.4-23.4 12.9-6.2 1.2-11.7 0.9-11.6 1.1v3.9c0 0 1.3-0.1 3.6-0.2 2.4 0.1 5.4-0.5 8.9-1 6.8-1.6 13.2-4.5 24.8-13.6 5.9-4.5 13.5-10 21.8-14.4 8.3-4.6 17.3-7.3 24.8-9.1 7.4-1.4 13.6-2.2 17.7-2.2 4.1-0.2 6.5-0.3 6.5-0.3v-3.9c0 0-2.5 0.1-6.7 0.3zm6.7-4.3v4h0.2v-4zm100.4 40.2c-0.8-0.1-1.9-0.2-2.9-0.4q-1.5-0.5-3.3-0.9c-4.7-1.6-9.6-4.4-22.1-14-6.2-4.5-13.9-10-22.8-14.1-4.2-2.2-8.8-3.8-13-5.3-4.2-1.2-8.3-2.4-12-3.1-3.7-0.6-7.1-1.1-10.1-1.6-3-0.3-5.4-0.3-7.5-0.5-4.1-0.2-6.4-0.3-6.4-0.3v4c0 0 2.3 0.1 6.2 0.2 2.1 0.2 4.4 0.2 7.3 0.5 2.9 0.5 6.1 1 9.7 1.5 3.6 0.7 7.5 1.9 11.6 3 4 1.5 8.5 3 12.5 5.1 8.6 4 16 9.3 22.1 13.7 12.3 9.5 18 12.9 23.3 14.6 2.6 0.7 4.9 1.4 6.8 1.5 1.7 0.3 2.8 0.5 2.8 0.4l0.4-3.9c0 0.1-1-0.1-2.6-0.4zm2.6 0.4l-0.4 3.9q0 0 5.8 0.3v-3.9c-3.6-0.3-5.4-0.3-5.4-0.3zm-535.7-36.6v3.9q11.1 0.5 11.1 0.5l0.4-3.9q0 0-11.5-0.5zm105 40.6c-1-0.1-2.3 0-3.6-0.2q-1.8-0.3-4.1-0.6c-6.1-1.2-11-3.3-20.9-10.6-4.8-3.6-11.2-8.6-18.6-13.2-7.1-4.6-15.5-8.2-22.5-10.7-7.2-2.2-13.3-3.5-17.4-4-4.2-0.6-6.4-0.8-6.4-0.8l-0.4 3.9c0 0 2.2 0.2 6.3 0.8 3.9 0.5 9.7 1.7 16.7 3.8 6.7 2.4 14.7 5.9 21.7 10.4 7.1 4.3 13.3 9.3 18.2 12.9 10.1 7.5 16 10.1 22.5 11.3 3.2 0.5 6 1 8.3 0.9 2.1 0.1 3.3 0.2 3.3 0.2v-3.9c0 0-1.1-0.1-3.1-0.2zm3.1 0.2v3.9h0.1v-3.9zm0-3.9v3.9h0.1v-3.9zm108.2-36.9v3.9h0.2v-3.9zm108.3 36.9v3.9h0.1v-3.9zm0 3.9v3.9h0.1v-3.9zm0.1-7.8q0 3.9 0 3.9h0.1q0 0 0-3.9zm108.1-33v3.9h0.3v-3.9zm99.7 40.1c-1.8-0.1-4.1-0.8-6.8-1.5-5.3-1.7-10.9-5.1-23.2-14.6-6.2-4.4-13.6-9.7-22.1-13.7-4.1-2.1-8.5-3.6-12.5-5.1-4.1-1.1-8.1-2.3-11.7-3-3.5-0.5-6.8-1-9.7-1.5-2.9-0.3-5.2-0.3-7.2-0.5-4-0.1-6.3-0.2-6.3-0.2v3.9c0 0 2.2 0.1 6.1 0.3 3.8 0 9.4 0.6 16.4 1.8 3.4 0.7 7.2 1.9 11.1 2.9 3.9 1.5 8.1 2.9 12.1 4.9 8.2 3.8 15.4 9 21.4 13.4 12.1 9.4 18.5 13.3 24.4 15.2 2.9 0.8 5.4 1.4 7.5 1.6 1.8 0.3 3 0.5 3 0.4l0.4-3.9c-0.1 0.1-1.1-0.1-2.9-0.4zm2.9 0.4l-0.4 3.9q0 0 6.1 0.3v-3.9q-5.7-0.3-5.7-0.3zm-535.4-36.6v3.9q10.8 0.5 10.8 0.5l0.3-3.9q0 0-11.1-0.5zm104.8 40.6c-2.2 0.1-5-0.4-8.3-0.9-6.5-1.2-12.4-3.8-22.4-11.3-4.9-3.6-11.2-8.6-18.3-12.9-6.9-4.5-14.9-8-21.7-10.4-6.9-2.1-12.7-3.3-16.7-3.8-4-0.6-6.3-0.8-6.3-0.8l-0.3 3.9c0 0 2.1 0.2 6 0.8 3.8 0.4 9.4 1.7 16.1 3.7 13.4 3.9 29.2 15.1 38.8 22.7 10.2 7.6 17 10.7 24.1 12 3.5 0.5 6.5 1 8.8 0.9 2.2 0.2 3.5 0.2 3.5 0.2v-3.9c0 0-1.2-0.1-3.3-0.2zm3.3 0.2v3.9h0.2v-3.9zm101.6-40.5c-4.1 0-10.3 0.8-17.7 2.2-7.4 1.8-16.4 4.5-24.7 9.1-8.4 4.4-15.9 9.9-21.8 14.4-11.7 9.1-18.1 12-24.9 13.6-3.5 0.5-6.4 1.1-8.8 1-2.3 0.1-3.6 0.2-3.6 0.2v3.9c0 0 1.4 0 3.8-0.2 2.5 0.1 5.7-0.5 9.4-1.1 7.5-1.6 14.8-5.2 26.4-14.3 5.9-4.4 13.2-9.8 21.3-14 8-4.5 16.6-7 23.7-8.8 7.2-1.3 13.1-2.1 17.1-2.1 4-0.2 6.3-0.3 6.3-0.3v-3.9c0 0-2.3 0.1-6.5 0.3zm6.5-0.3v3.9h0.3v-3.9zm104.6 40.6c-2.4 0.1-5.3-0.5-8.8-1-6.8-1.6-13.2-4.5-24.9-13.6-5.8-4.5-13.4-10-21.7-14.4-8.3-4.6-17.4-7.3-24.8-9.1-7.4-1.4-13.6-2.2-17.7-2.2-4.1-0.2-6.5-0.3-6.5-0.3v3.9c0 0 2.3 0.1 6.3 0.3 4 0 9.9 0.8 17.1 2.1 7.1 1.8 15.7 4.3 23.7 8.8 8.1 4.2 15.4 9.6 21.3 14 11.6 9.1 18.9 12.7 26.4 14.3 3.7 0.6 6.9 1.2 9.4 1.1 2.4 0.2 3.8 0.2 3.8 0.2v-3.9c0 0-1.3-0.1-3.6-0.2zm3.6 0.2v3.9h0.2v-3.9zm101.6-40.5c-4.1 0-10.3 0.8-17.7 2.2-7.4 1.8-16.4 4.5-24.7 9.1-8.4 4.4-15.9 9.9-21.8 14.4-11.7 9.1-18.1 12-24.9 13.6-3.5 0.5-6.4 1.1-8.8 1-2.3 0.1-3.6 0.2-3.6 0.2v3.9c0 0 1.4 0 3.8-0.2 2.5 0.1 5.7-0.5 9.4-1.1 7.5-1.6 14.8-5.2 26.4-14.3 5.9-4.4 13.3-9.8 21.3-14 8-4.5 16.6-7 23.7-8.8 7.2-1.3 13.2-2.1 17.1-2.1 4-0.2 6.4-0.3 6.4-0.3v-3.9c0 0-2.4 0.1-6.6 0.3zm6.6-0.3v3.9h0.2v-3.9zm99.2 40.1c-2.1-0.2-4.6-0.8-7.5-1.6-5.9-1.9-12.3-5.8-24.4-15.2-6-4.4-13.2-9.6-21.4-13.4-4-2-8.2-3.4-12.1-4.9-3.9-1-7.7-2.2-11.2-2.9-6.9-1.2-12.5-1.8-16.3-1.8-3.9-0.2-6.1-0.3-6.1-0.3v3.9c0 0 2.1 0.1 5.9 0.3 3.7 0 9.1 0.6 15.8 1.8 3.3 0.6 6.9 1.7 10.7 2.8 3.7 1.3 7.8 2.7 11.6 4.7 7.9 3.6 14.8 8.6 20.8 12.9 11.9 9.3 19 13.7 25.4 15.8 3.3 0.9 6 1.6 8.2 1.8 2 0.3 3.3 0.4 3.3 0.4l0.3-3.9c0 0.1-1.2-0.1-3-0.4zm3 0.4l-0.3 3.9q0 0 6.4 0.3v-3.9q-6.1-0.3-6.1-0.3zm-535-36.6v15.9q9.3 0.4 9.3 0.4l1.5-15.8q0 0-10.8-0.5zm104.6 40.6c-2.3 0.1-5.3-0.4-8.8-0.9-7.1-1.3-13.9-4.4-24.1-12-9.6-7.6-25.4-18.8-38.9-22.7-6.6-2-12.2-3.3-16-3.7-3.9-0.6-6-0.8-6-0.8l-1.5 15.8c0 0 1.9 0.2 5.2 0.7 3.2 0.3 7.9 1.4 13.4 3 11.1 3.4 24 12.3 34.4 20.4 10.6 8.2 21.2 13.3 30.4 14.9 4.5 0.7 8.3 1.2 11.1 1.2 2.7 0.1 4.3 0.2 4.3 0.2v-15.9c0 0-1.3 0-3.5-0.2zm3.5 0.2v15.9h0.2v-15.9zm101.8-40.5c-4 0-9.9 0.8-17.1 2.1-7.1 1.8-15.7 4.3-23.7 8.8-8.1 4.2-15.4 9.6-21.3 14-11.6 9.1-18.9 12.7-26.4 14.3-3.7 0.6-6.9 1.2-9.4 1.1-2.4 0.2-3.8 0.2-3.8 0.2v15.9c0 0 1.7-0.1 4.6-0.2 3 0 7.1-0.6 12-1.5 9.8-1.9 21-7.9 32.6-17.1 5.9-4.5 12.3-9.1 19.1-12.7 6.7-3.7 13.8-5.8 19.7-7.3 6-1.1 11.1-1.7 14.6-1.8 3.4-0.1 5.4-0.2 5.4-0.2v-15.9c0 0-2.3 0.1-6.3 0.3zm6.3-0.3v15.9h0.2l0.1-15.9zm104.4 40.6c-2.5 0.1-5.7-0.5-9.4-1.1-7.5-1.6-14.8-5.2-26.4-14.3-5.9-4.4-13.2-9.8-21.3-14-8-4.5-16.6-7-23.7-8.8-7.2-1.3-13.1-2.1-17.1-2.1-4-0.2-6.3-0.3-6.3-0.3v15.9c0 0 2 0.1 5.5 0.2 3.4 0.1 8.5 0.7 14.5 1.8 5.9 1.5 13 3.6 19.7 7.3 6.8 3.6 13.2 8.3 19.1 12.7 11.6 9.2 22.8 15.2 32.6 17.1 4.9 0.9 9 1.5 12 1.5 2.9 0.1 4.6 0.2 4.6 0.2v-15.9c0 0-1.4 0-3.8-0.2zm3.8 0.2v15.9h0.2v-15.9zm101.8-40.5c-3.9 0-9.9 0.8-17 2.1-7.2 1.8-15.8 4.3-23.8 8.8-8 4.2-15.4 9.6-21.3 14-11.6 9.1-18.9 12.7-26.4 14.3-3.7 0.6-6.9 1.2-9.4 1.1-2.4 0.2-3.8 0.2-3.8 0.2v15.9c0 0 1.7-0.1 4.6-0.2 3 0 7.1-0.6 12-1.5 9.8-1.9 21.1-7.9 32.6-17.1 5.9-4.4 12.3-9.1 19.1-12.7 6.7-3.7 13.8-5.8 19.7-7.3 6.1-1.1 11.1-1.7 14.6-1.8 3.5-0.1 5.5-0.2 5.5-0.2v-15.9c0 0-2.3 0.1-6.4 0.3zm6.4-0.3v15.9h0.2v-15.9zm98.6 40.1c-2.2-0.2-4.9-0.9-8.2-1.8-6.4-2.1-13.5-6.5-25.4-15.8-6-4.3-12.9-9.3-20.8-12.9-3.8-2-7.9-3.4-11.6-4.7-3.8-1.1-7.4-2.2-10.7-2.8-6.7-1.2-12.1-1.8-15.8-1.8-3.8-0.2-5.9-0.3-5.9-0.3v15.9c0 0 1.8 0.1 5.1 0.2 3.2 0 7.9 0.6 13.5 1.6 11.2 1.7 25.7 9 36.8 17.6 11.1 8.7 21.1 15.4 29.9 18.1 4.3 1.2 8 2.1 10.7 2.4 2.7 0.4 4.2 0.5 4.2 0.5l1.5-15.8c0 0-1.3-0.1-3.3-0.4zm3.3 0.4l-1.5 15.8q0 0 7.9 0.4v-15.9q-6.4-0.3-6.4-0.3zm-534.7-24.6v15.9q7.9 0.3 7.9 0.3l1.4-15.8q0 0-9.3-0.4zm103.8 40.6c-2.8 0-6.6-0.5-11.1-1.2-9.2-1.6-19.8-6.7-30.4-14.9-10.4-8.1-23.3-17-34.4-20.4-5.5-1.6-10.2-2.7-13.4-3-3.3-0.5-5.2-0.7-5.2-0.7l-1.4 15.8c0 0 1.6 0.2 4.2 0.6 2.7 0.3 6.4 1.2 10.8 2.4 8.8 2.7 18.8 9.4 30 18.1 11 8.7 25.4 15.9 36.7 17.6 5.5 1 10.2 1.5 13.4 1.6 3.2 0.1 5.1 0.2 5.1 0.2v-15.9c0 0-1.6-0.1-4.3-0.2zm4.3 0.2v15.9h0.2v-15.9zm102.7-40.6c-3.5 0.1-8.5 0.7-14.5 1.8-6 1.5-13.1 3.6-19.8 7.3-6.7 3.6-13.2 8.2-19.1 12.7-11.5 9.2-22.8 15.2-32.5 17.1-4.9 0.9-9 1.5-12 1.5-3 0.1-4.7 0.2-4.7 0.2l0.1 15.9c0 0 1.9-0.1 5.4-0.3 3.5 0 8.5-0.7 14.5-1.8 6-1.5 13-3.5 19.7-7.2 6.8-3.6 13.2-8.2 19.1-12.7 11.5-9.2 22.8-15.2 32.6-17.1 4.9-0.9 9-1.5 12-1.5 3-0.2 4.7-0.2 4.7-0.2v-15.9c0 0-2 0.1-5.5 0.2zm5.5-0.2v15.9h0.2v-15.9zm103.6 40.6c-3 0-7.1-0.6-12-1.5-9.8-1.9-21-7.9-32.6-17.1-5.9-4.4-12.3-9.1-19.1-12.7-6.7-3.7-13.8-5.8-19.7-7.3-6-1.1-11.1-1.7-14.5-1.8-3.5-0.1-5.5-0.2-5.5-0.2v15.9c0 0 1.6 0 4.6 0.2 3 0 7.1 0.6 12 1.5 9.8 1.9 21.1 7.9 32.7 17.1 5.8 4.5 12.3 9.1 19 12.7 6.7 3.7 13.8 5.8 19.7 7.2 6 1.1 11 1.8 14.5 1.8 3.5 0.2 5.5 0.3 5.5 0.3v-15.9c0 0-1.7-0.1-4.6-0.2zm4.6 0.2v15.9h0.2v-15.9zm102.7-40.6c-3.5 0.1-8.5 0.7-14.5 1.8-6 1.5-13 3.6-19.7 7.3-6.8 3.6-13.3 8.3-19.2 12.7-11.5 9.2-22.7 15.2-32.5 17.1-4.9 0.9-9 1.5-12 1.5-3 0.1-4.7 0.2-4.7 0.2l0.1 15.9c0 0 1.9-0.1 5.4-0.3 3.5 0 8.5-0.7 14.5-1.8 6-1.5 13-3.5 19.7-7.2 6.8-3.6 13.2-8.2 19.1-12.7 11.6-9.2 22.8-15.2 32.7-17.1 4.9-0.9 9-1.5 12-1.5 2.9-0.2 4.6-0.2 4.6-0.2v-15.9c0 0-2 0.1-5.5 0.2zm5.5-0.2v15.9h0.2v-15.9zm96.2 39.9c-2.7-0.3-6.4-1.2-10.7-2.4-8.8-2.7-18.8-9.4-29.9-18.1-11.1-8.6-25.6-15.9-36.8-17.6-5.6-1-10.3-1.6-13.5-1.6-3.3-0.1-5.1-0.2-5.1-0.2v15.9c0 0 1.5 0 4.3 0.2 2.8 0 6.6 0.5 11.2 1.2 9.2 1.6 19.8 6.7 30.4 14.9 10.4 8.1 23.3 17 34.4 20.4 5.5 1.6 10.1 2.6 13.4 3 3.3 0.5 5.1 0.6 5.1 0.6l1.4-15.8c0 0-1.5-0.1-4.2-0.5zm4.2 0.5l-1.4 15.8q0 0 9.3 0.5v-15.9q-7.9-0.4-7.9-0.4zm-533.2-24.5v15.8q6.5 0.4 6.5 0.4l1.4-15.9q0 0-7.9-0.3zm103 40.6c-3.2-0.1-7.9-0.6-13.4-1.6-11.3-1.7-25.7-8.9-36.7-17.6-11.2-8.7-21.2-15.4-30-18.1-4.4-1.2-8.1-2.1-10.8-2.4-2.6-0.4-4.2-0.6-4.2-0.6l-1.4 15.9c0 0 1.2 0 3.3 0.4 2.1 0.2 4.9 0.9 8.1 1.8 6.5 2.1 13.6 6.5 25.5 15.8 6 4.3 12.9 9.3 20.8 12.9 3.8 2 7.8 3.3 11.5 4.7 3.8 1.1 7.4 2.2 10.8 2.8 6.6 1.2 12 1.8 15.7 1.8 3.8 0.2 5.9 0.3 5.9 0.3v-15.9c0 0-1.8-0.1-5.1-0.2zm5.1 0.2v15.9h0.2v-15.9zm103.6-40.6c-3 0-7.1 0.6-12 1.5-9.8 1.9-21.1 7.9-32.7 17.1-5.9 4.5-12.3 9.1-19.1 12.7-6.6 3.7-13.7 5.7-19.6 7.2-6 1.1-11.1 1.8-14.5 1.8-3.5 0.2-5.5 0.3-5.5 0.3v15.9c0 0 2.3-0.1 6.3-0.3 4 0 9.9-0.8 17.1-2.1 7.1-1.8 15.7-4.3 23.7-8.8 8-4.2 15.3-9.6 21.2-14 11.6-9.1 19-12.7 26.5-14.3 3.7-0.6 6.9-1.2 9.4-1.1 2.5-0.2 3.8-0.3 3.8-0.3v-15.8c0 0-1.7 0-4.6 0.2zm4.6-0.2v15.8h0.2v-15.8zm102.7 40.5c-3.5 0-8.5-0.7-14.5-1.8-5.9-1.4-13-3.5-19.7-7.2-6.7-3.6-13.2-8.2-19-12.7-11.6-9.2-22.9-15.2-32.7-17.1-4.9-0.9-9-1.5-12-1.5-3-0.2-4.6-0.2-4.6-0.2l-0.1 15.8c0 0 1.4 0.1 3.8 0.3 2.6-0.1 5.8 0.5 9.5 1.1 7.5 1.6 14.9 5.2 26.5 14.3 5.9 4.4 13.2 9.8 21.2 14 8 4.5 16.6 7 23.7 8.8 7.2 1.3 13.1 2.1 17.1 2.1 4 0.2 6.3 0.3 6.3 0.3v-15.9c0 0-2-0.1-5.5-0.3zm5.5 0.3v15.9h0.2v-15.9zm103.6-40.6c-3 0-7.1 0.6-12 1.5-9.8 1.9-21.1 7.9-32.7 17.1-5.8 4.5-12.3 9.1-19.1 12.7-6.6 3.7-13.7 5.7-19.6 7.2-6 1.1-11.1 1.8-14.5 1.8-3.5 0.2-5.5 0.3-5.5 0.3v15.9c0 0 2.3-0.1 6.3-0.3 4 0 9.9-0.8 17.1-2.1 7.1-1.8 15.7-4.3 23.7-8.8 8-4.2 15.3-9.6 21.2-14 11.6-9.1 19-12.7 26.5-14.3 3.7-0.6 6.9-1.2 9.5-1.1 2.4-0.2 3.8-0.3 3.8-0.3v-15.8c0 0-1.7 0-4.7 0.2zm4.7-0.2v15.8h0.1v-15.8zm93.9 39.7c-3.3-0.4-7.9-1.4-13.4-3-11.1-3.4-24-12.3-34.4-20.4-10.6-8.2-21.2-13.3-30.4-14.9-4.6-0.7-8.4-1.2-11.2-1.2-2.7-0.2-4.3-0.2-4.3-0.2v15.8c0 0 1.3 0.1 3.5 0.2 2.3 0 5.4 0.4 8.9 1 7.1 1.3 13.9 4.4 24.1 12.1 9.6 7.6 25.5 18.7 38.8 22.6 6.7 2 12.2 3.3 16.1 3.7 3.8 0.6 6 0.8 6 0.8l1.4-15.9c0 0-1.8-0.1-5.1-0.6zm5.1 0.6l-1.4 15.9q0 0 10.7 0.5v-15.9q-9.3-0.5-9.3-0.5zm-531.8-24.5q0 0 0 15.9c3.4 0.3 5.1 0.3 5.1 0.3q1.4-15.8 1.4-15.8 0 0-6.5-0.4zm102.2 40.6c-3.6 0-9.1-0.6-15.7-1.8-3.4-0.6-7-1.7-10.8-2.8-3.6-1.4-7.7-2.7-11.5-4.7-7.9-3.6-14.8-8.6-20.8-12.9-11.9-9.3-19-13.7-25.5-15.8-3.2-0.9-6-1.6-8.1-1.8-2-0.4-3.3-0.4-3.3-0.4q0 0-1.4 15.8c0-0.1 0.9 0 2.4 0.3 0.7 0.2 1.6 0.2 2.6 0.4q1.2 0.4 2.9 0.8c4.1 1.4 8.3 3.7 21 13.4 6.3 4.6 14.1 10.2 23.3 14.5 4.4 2.3 9.2 3.9 13.5 5.5 4.4 1.3 8.7 2.5 12.5 3.3 3.9 0.5 7.4 1.1 10.5 1.6 3 0.3 5.5 0.3 7.6 0.5 4.3 0.1 6.7 0.2 6.7 0.2q0-15.8 0-15.8c0 0-2.1-0.1-5.9-0.3zm5.9 0.3q0 0 0 15.8h0.2q0-15.8 0-15.8zm104.5-40.6c-2.6-0.1-5.7 0.5-9.5 1.1-7.5 1.6-14.8 5.2-26.5 14.3-5.9 4.4-13.2 9.8-21.2 14-8 4.5-16.6 7-23.7 8.8-7.1 1.3-13.1 2.1-17 2.1-4.1 0.2-6.4 0.3-6.4 0.3q0 0 0.1 15.8c0 0 2.6-0.1 7.1-0.3 4.4 0 11.3-0.8 19.6-2.4 8.3-2 18.4-5.1 27.7-10.2 9.3-4.9 17.5-11 23.4-15.5 11.7-8.9 15.2-10.1 20.3-11.4 5-1 10.1-0.8 9.9-1q0-15.9 0-15.9c0 0-1.4 0.1-3.8 0.3zm105.6 40.3c-3.9 0-9.9-0.8-17-2.1-7.1-1.8-15.7-4.3-23.7-8.8-8-4.2-15.3-9.6-21.2-14-11.7-9.1-19-12.7-26.5-14.3-3.8-0.6-6.9-1.2-9.5-1.1-2.4-0.2-3.8-0.3-3.8-0.3q0 0 0 15.9c-0.2 0.2 4.9 0 9.9 1 5.1 1.3 8.6 2.5 20.3 11.4 5.9 4.5 14.1 10.6 23.4 15.5 9.3 5.1 19.4 8.2 27.7 10.2 8.3 1.6 15.2 2.4 19.6 2.4 4.5 0.2 7.1 0.3 7.1 0.3q0.1-15.8 0.1-15.8c0 0-2.3-0.1-6.4-0.3zm-101.8-40.6q0 0 0 15.9h0.1q0-15.9 0-15.9zm108.2 40.9q0 0 0 15.8h0.2q0-15.8 0-15.8zm104.5-40.6c-2.5-0.1-5.7 0.5-9.5 1.1-7.4 1.6-14.8 5.2-26.5 14.3-5.9 4.4-13.2 9.8-21.2 14-8 4.5-16.6 7-23.7 8.8-7.1 1.3-13.1 2.1-17 2.1-4.1 0.2-6.4 0.3-6.4 0.3q0 0 0.1 15.8c0 0 2.6-0.1 7.1-0.3 4.5 0 11.3-0.8 19.6-2.4 8.3-2 18.4-5.1 27.7-10.2 9.3-4.9 17.5-11 23.4-15.5 11.7-8.9 15.2-10.1 20.3-11.4 5-1 10.1-0.8 9.9-1q0-15.9 0-15.9c0 0-1.4 0.1-3.8 0.3zm3.8-0.3q0 0 0 15.9h0.1q0-15.9 0-15.9zm91.6 39.6c-3.9-0.4-9.4-1.7-16-3.7-13.4-3.9-29.3-15-38.9-22.6-10.1-7.7-17-10.8-24.1-12.1-3.5-0.6-6.5-1-8.9-1-2.2-0.1-3.5-0.2-3.5-0.2q0 0 0 15.9c0 0 1 0.1 2.7 0.2 0.9 0.1 2 0 3.1 0.1q1.5 0.4 3.5 0.6c5 1.1 8.1 2.1 17.8 9.2 4.6 3.4 11.2 8.7 19 13.5 7.6 4.9 16.7 8.9 24.3 11.5 3.8 1.1 7.4 2.1 10.6 2.9 3.1 0.7 5.8 1 8 1.4 4.5 0.7 7 0.9 7 0.9q1.4-15.8 1.4-15.8c0 0-2.2-0.2-6-0.8zm6 0.8q0 0-1.4 15.8 0 0 12.1 0.5 0-15.8 0-15.8-10.7-0.5-10.7-0.5z"/>
					<g id="&lt;Clip Group&gt;" clip-path="url(#cp4)">
						<path id="&lt;Mesh&gt;" fill-rule="evenodd" class="s16" d="m548.1 348q-0.4 3.9-0.4 3.9c0 0 5.4 0.3 5.4 0.3q0 0 0-3.9zm5.1 0.2q0 3.9 0 3.9l158.3 8q0 0 0-3.9zm-5.4 3.6l-0.3 3.9 5.7 0.3v-3.9c0 0-5.4-0.3-5.4-0.3zm5.4 0.3v3.9l158.4 7.9v-3.9zm-5.7 3.6l-0.4 3.9 6.1 0.3v-3.9zm5.8 0.3v3.9l158.4 7.9v-3.9zm-6.1 3.6l-0.4 3.9 6.5 0.3v-3.9zm6.1 0.3v3.9l158.4 7.9v-3.9zm-6.5 3.6l-1.4 15.8 7.9 0.4v-15.9zm6.4 0.3v15.9l158.4 7.8v-15.8zm-7.9 15.5l-1.4 15.8 9.3 0.4v-15.8zm7.9 0.3v15.9l158.4 7.7v-15.8zm-9.4 15.4l-1.4 15.9 10.8 0.5v-15.9zm9.3 0.4v15.9l158.4 7.6v-15.8zm-10.8 15.4q0 0-1.4 15.8l12.2 0.5q0-15.8 0-15.8zm10.7 0.5q0 0 0 15.9l158.4 7.4q0-15.8 0-15.8z"/>
					</g>
				</g>
			</g>
		</g>
	</g>
</svg>