<svg version="1.2" xmlns="http://www.w3.org/2000/svg" viewBox="0 0 1024 1024" width="1024" height="1024">
	<title>New Project</title>
	<defs>
		<radialGradient id="g1" cx="0" cy="0" r="1" gradientUnits="userSpaceOnUse" gradientTransform="matrix(467.356,522.333,522.333,-467.356,380.566,230.499)">
			<stop offset="0" stop-color="#bad0d6"/>
			<stop offset=".198" stop-color="#9bbac2"/>
			<stop offset="1" stop-color="#5d8bb8"/>
		</radialGradient>
		<radialGradient id="g2" cx="0" cy="0" r="1" gradientUnits="userSpaceOnUse" gradientTransform="matrix(69.02,94.878,133.122,-107.955,381.211,327.879)">
			<stop offset="0" stop-color="#ffffff"/>
			<stop offset="1" stop-color="#ffffff" stop-opacity="0"/>
		</radialGradient>
		<radialGradient id="g3" cx="0" cy="0" r="1" gradientUnits="userSpaceOnUse" gradientTransform="matrix(37.935,52.147,73.167,-59.335,782.174,448.057)">
			<stop offset="0" stop-color="#ffffff"/>
			<stop offset="1" stop-color="#ffffff" stop-opacity="0"/>
		</radialGradient>
		<radialGradient id="g4" cx="0" cy="0" r="1" gradientUnits="userSpaceOnUse" gradientTransform="matrix(-33.348,-21.661,-66.129,86.542,931.826,613.698)">
			<stop offset="0" stop-color="#ffffff"/>
			<stop offset="1" stop-color="#ffffff" stop-opacity="0"/>
		</radialGradient>
		<radialGradient id="g5" cx="0" cy="0" r="1" gradientUnits="userSpaceOnUse" gradientTransform="matrix(467.35,522.326,522.326,-467.35,176.465,383.125)">
			<stop offset="0" stop-color="#ffffff"/>
			<stop offset=".198" stop-color="#d9f7ff"/>
			<stop offset="1" stop-color="#89c0f5"/>
		</radialGradient>
		<radialGradient id="g6" cx="0" cy="0" r="1" gradientUnits="userSpaceOnUse" gradientTransform="matrix(69.019,94.876,133.12,-107.953,177.12,480.501)">
			<stop offset="0" stop-color="#ffffff"/>
			<stop offset="1" stop-color="#ffffff" stop-opacity="0"/>
		</radialGradient>
		<radialGradient id="g7" cx="0" cy="0" r="1" gradientUnits="userSpaceOnUse" gradientTransform="matrix(37.93,52.14,73.157,-59.326,578.095,600.674)">
			<stop offset="0" stop-color="#ffffff"/>
			<stop offset="1" stop-color="#ffffff" stop-opacity="0"/>
		</radialGradient>
		<radialGradient id="g8" cx="0" cy="0" r="1" gradientUnits="userSpaceOnUse" gradientTransform="matrix(-33.348,-21.661,-66.128,86.541,727.729,766.315)">
			<stop offset="0" stop-color="#ffffff"/>
			<stop offset="1" stop-color="#ffffff" stop-opacity="0"/>
		</radialGradient>
	</defs>
	<style>
		.s0 { fill: url(#g1) } 
		.s1 { opacity: .5;mix-blend-mode: overlay;fill: url(#g2) } 
		.s2 { opacity: .3;mix-blend-mode: overlay;fill: url(#g3) } 
		.s3 { opacity: .2;mix-blend-mode: overlay;fill: url(#g4) } 
		.s4 { fill: url(#g5) } 
		.s5 { mix-blend-mode: overlay;fill: url(#g6) } 
		.s6 { opacity: .4;mix-blend-mode: overlay;fill: url(#g7) } 
		.s7 { opacity: .2;mix-blend-mode: overlay;fill: url(#g8) } 
	</style>
	<g id="Layer 1">
	</g>
	<g id="&lt;Group&gt;">
		<g id="&lt;Group&gt;">
			<path id="&lt;Path&gt;" fill-rule="evenodd" class="s0" d="m486.4 153c133 0 244.4 92 274.3 215.7 24.2-11.7 51.2-18.4 79.8-18.4 101.5 0 183.7 82.2 183.7 183.6 0 101.5-82.2 183.7-183.7 183.7h-354.1c-155.9 0-282.3-126.4-282.3-282.3 0-155.9 126.4-282.3 282.3-282.3z"/>
			<path id="&lt;Path&gt;" fill-rule="evenodd" class="s1" d="m450.2 422.8c73.5-59.7 102.3-150.5 64.1-202.9-38.1-52.4-128.6-46.5-202.1 13.1-73.5 59.6-102.2 150.5-64.1 202.8 38.1 52.4 128.6 46.6 202.1-13z"/>
			<path id="&lt;Path&gt;" fill-rule="evenodd" class="s2" d="m820.1 500.2c40.4-32.8 56.2-82.7 35.2-111.5-20.9-28.8-70.6-25.5-111.1 7.2-40.3 32.8-56.1 82.7-35.2 111.5 21 28.8 70.7 25.6 111.1-7.2z"/>
			<path id="&lt;Path&gt;" fill-rule="evenodd" class="s3" d="m909.7 571.6c44.5-44.9 90.4-62.5 102.6-39.3 12.2 23.2-14 78.5-58.4 123.5-44.4 44.9-90.3 62.5-102.5 39.3-12.2-23.3 13.9-78.6 58.3-123.5z"/>
		</g>
		<g id="&lt;Group&gt;">
			<path id="&lt;Path&gt;" fill-rule="evenodd" class="s4" d="m282.3 305.6c133 0 244.4 92 274.3 215.8 24.2-11.7 51.2-18.5 79.9-18.5 101.4 0 183.6 82.2 183.6 183.7 0 101.4-82.2 183.6-183.6 183.6h-354.2c-155.9 0-282.3-126.4-282.3-282.3 0-155.9 126.4-282.3 282.3-282.3z"/>
			<path id="&lt;Path&gt;" fill-rule="evenodd" class="s5" d="m246.1 575.4c73.5-59.7 102.3-150.5 64.1-202.8-38.1-52.4-128.6-46.6-202.1 13-73.5 59.7-102.2 150.5-64.1 202.8 38.1 52.5 128.6 46.6 202.1-13z"/>
			<path id="&lt;Path&gt;" fill-rule="evenodd" class="s6" d="m616 652.8c40.4-32.8 56.2-82.7 35.3-111.4-21-28.9-70.7-25.6-111.1 7.1-40.4 32.8-56.2 82.7-35.3 111.5 21 28.8 70.7 25.6 111.1-7.2z"/>
			<path id="&lt;Path&gt;" fill-rule="evenodd" class="s7" d="m705.7 724.2c44.4-44.9 90.3-62.5 102.5-39.3 12.2 23.3-14 78.6-58.4 123.5-44.4 45-90.3 62.5-102.5 39.3-12.2-23.3 13.9-78.5 58.4-123.5z"/>
		</g>
	</g>
</svg>