<svg version="1.2" xmlns="http://www.w3.org/2000/svg" viewBox="0 0 1024 1024" width="1024" height="1024">
	<title>New Project</title>
	<defs>
		<radialGradient id="g1" cx="0" cy="0" r="1" gradientUnits="userSpaceOnUse" gradientTransform="matrix(467.073,522.017,522.017,-467.073,380.772,148.453)">
			<stop offset="0" stop-color="#bad0d6"/>
			<stop offset=".198" stop-color="#9bbac2"/>
			<stop offset="1" stop-color="#5d8bb8"/>
		</radialGradient>
		<radialGradient id="g2" cx="0" cy="0" r="1" gradientUnits="userSpaceOnUse" gradientTransform="matrix(68.978,94.821,133.041,-107.89,381.416,245.773)">
			<stop offset="0" stop-color="#ffffff"/>
			<stop offset="1" stop-color="#ffffff" stop-opacity="0"/>
		</radialGradient>
		<radialGradient id="g3" cx="0" cy="0" r="1" gradientUnits="userSpaceOnUse" gradientTransform="matrix(37.912,52.116,73.123,-59.299,782.138,365.878)">
			<stop offset="0" stop-color="#ffffff"/>
			<stop offset="1" stop-color="#ffffff" stop-opacity="0"/>
		</radialGradient>
		<radialGradient id="g4" cx="0" cy="0" r="1" gradientUnits="userSpaceOnUse" gradientTransform="matrix(-33.328,-21.648,-66.089,86.49,931.697,531.419)">
			<stop offset="0" stop-color="#ffffff"/>
			<stop offset="1" stop-color="#ffffff" stop-opacity="0"/>
		</radialGradient>
		<radialGradient id="g5" cx="0" cy="0" r="1" gradientUnits="userSpaceOnUse" gradientTransform="matrix(467.066,522.009,522.009,-467.066,176.796,300.985)">
			<stop offset="0" stop-color="#ffffff"/>
			<stop offset=".198" stop-color="#d9f7ff"/>
			<stop offset="1" stop-color="#89c0f5"/>
		</radialGradient>
		<radialGradient id="g6" cx="0" cy="0" r="1" gradientUnits="userSpaceOnUse" gradientTransform="matrix(68.977,94.819,133.039,-107.887,177.45,398.303)">
			<stop offset="0" stop-color="#ffffff"/>
			<stop offset="1" stop-color="#ffffff" stop-opacity="0"/>
		</radialGradient>
		<radialGradient id="g7" cx="0" cy="0" r="1" gradientUnits="userSpaceOnUse" gradientTransform="matrix(37.907,52.108,73.113,-59.29,578.181,518.402)">
			<stop offset="0" stop-color="#ffffff"/>
			<stop offset="1" stop-color="#ffffff" stop-opacity="0"/>
		</radialGradient>
		<radialGradient id="g8" cx="0" cy="0" r="1" gradientUnits="userSpaceOnUse" gradientTransform="matrix(-33.328,-21.648,-66.088,86.488,727.725,683.944)">
			<stop offset="0" stop-color="#ffffff"/>
			<stop offset="1" stop-color="#ffffff" stop-opacity="0"/>
		</radialGradient>
		<radialGradient id="g9" cx="0" cy="0" r="1" gradientUnits="userSpaceOnUse" gradientTransform="matrix(66.623,-72.267,72.267,66.623,205.495,923.548)">
			<stop offset="0" stop-color="#d4f6ff"/>
			<stop offset=".198" stop-color="#d9f7ff"/>
			<stop offset="1" stop-color="#89c0f5"/>
		</radialGradient>
		<radialGradient id="g10" cx="0" cy="0" r="1" gradientUnits="userSpaceOnUse" gradientTransform="matrix(-20.073,8.922,-11.478,-29.965,210.684,917.137)">
			<stop offset="0" stop-color="#ffffff"/>
			<stop offset="1" stop-color="#ffffff" stop-opacity="0"/>
		</radialGradient>
		<radialGradient id="g11" cx="0" cy="0" r="1" gradientUnits="userSpaceOnUse" gradientTransform="matrix(66.623,-72.267,72.267,66.623,430.565,923.539)">
			<stop offset="0" stop-color="#d4f6ff"/>
			<stop offset=".198" stop-color="#d9f7ff"/>
			<stop offset="1" stop-color="#89c0f5"/>
		</radialGradient>
		<radialGradient id="g12" cx="0" cy="0" r="1" gradientUnits="userSpaceOnUse" gradientTransform="matrix(-20.067,8.919,-11.475,-29.956,435.758,917.137)">
			<stop offset="0" stop-color="#ffffff"/>
			<stop offset="1" stop-color="#ffffff" stop-opacity="0"/>
		</radialGradient>
		<radialGradient id="g13" cx="0" cy="0" r="1" gradientUnits="userSpaceOnUse" gradientTransform="matrix(66.623,-72.267,72.267,66.623,655.648,923.541)">
			<stop offset="0" stop-color="#d4f6ff"/>
			<stop offset=".198" stop-color="#d9f7ff"/>
			<stop offset="1" stop-color="#89c0f5"/>
		</radialGradient>
		<radialGradient id="g14" cx="0" cy="0" r="1" gradientUnits="userSpaceOnUse" gradientTransform="matrix(-20.067,8.919,-11.475,-29.956,660.842,917.137)">
			<stop offset="0" stop-color="#ffffff"/>
			<stop offset="1" stop-color="#ffffff" stop-opacity="0"/>
		</radialGradient>
		<radialGradient id="g15" cx="0" cy="0" r="1" gradientUnits="userSpaceOnUse" gradientTransform="matrix(94.715,-102.739,102.739,94.715,329.484,802.222)">
			<stop offset="0" stop-color="#d4f6ff"/>
			<stop offset=".198" stop-color="#d9f7ff"/>
			<stop offset="1" stop-color="#89c0f5"/>
		</radialGradient>
		<radialGradient id="g16" cx="0" cy="0" r="1" gradientUnits="userSpaceOnUse" gradientTransform="matrix(-28.533,12.682,-16.315,-42.593,336.861,793.105)">
			<stop offset="0" stop-color="#ffffff"/>
			<stop offset="1" stop-color="#ffffff" stop-opacity="0"/>
		</radialGradient>
		<radialGradient id="g17" cx="0" cy="0" r="1" gradientUnits="userSpaceOnUse" gradientTransform="matrix(94.71,-102.733,102.733,94.71,572.351,802.208)">
			<stop offset="0" stop-color="#d4f6ff"/>
			<stop offset=".198" stop-color="#d9f7ff"/>
			<stop offset="1" stop-color="#89c0f5"/>
		</radialGradient>
		<radialGradient id="g18" cx="0" cy="0" r="1" gradientUnits="userSpaceOnUse" gradientTransform="matrix(-28.527,12.679,-16.312,-42.584,579.734,793.107)">
			<stop offset="0" stop-color="#ffffff"/>
			<stop offset="1" stop-color="#ffffff" stop-opacity="0"/>
		</radialGradient>
	</defs>
	<style>
		.s0 { fill: url(#g1) } 
		.s1 { opacity: .5;mix-blend-mode: overlay;fill: url(#g2) } 
		.s2 { opacity: .3;mix-blend-mode: overlay;fill: url(#g3) } 
		.s3 { opacity: .2;mix-blend-mode: overlay;fill: url(#g4) } 
		.s4 { fill: url(#g5) } 
		.s5 { mix-blend-mode: overlay;fill: url(#g6) } 
		.s6 { opacity: .4;mix-blend-mode: overlay;fill: url(#g7) } 
		.s7 { opacity: .2;mix-blend-mode: overlay;fill: url(#g8) } 
		.s8 { fill: url(#g9) } 
		.s9 { mix-blend-mode: overlay;fill: url(#g10) } 
		.s10 { fill: url(#g11) } 
		.s11 { mix-blend-mode: overlay;fill: url(#g12) } 
		.s12 { fill: url(#g13) } 
		.s13 { mix-blend-mode: overlay;fill: url(#g14) } 
		.s14 { fill: url(#g15) } 
		.s15 { mix-blend-mode: overlay;fill: url(#g16) } 
		.s16 { fill: url(#g17) } 
		.s17 { mix-blend-mode: overlay;fill: url(#g18) } 
	</style>
	<g id="Layer 1">
	</g>
	<g id="&lt;Group&gt;">
		<g id="&lt;Group&gt;">
			<g id="&lt;Group&gt;">
				<path id="&lt;Path&gt;" fill-rule="evenodd" class="s0" d="m486.5 71c132.9 0 244.3 91.9 274.2 215.6 24.1-11.7 51.1-18.4 79.8-18.4 101.3 0 183.5 82.1 183.5 183.5 0 101.4-82.2 183.5-183.5 183.5h-354c-155.8 0-282.1-126.3-282.1-282.1 0-155.8 126.3-282.1 282.1-282.1z"/>
				<path id="&lt;Path&gt;" fill-rule="evenodd" class="s1" d="m450.4 340.6c73.4-59.6 102.2-150.4 64.1-202.7-38.1-52.4-128.6-46.5-202.1 13.1-73.4 59.6-102.1 150.3-64 202.7 38.1 52.3 128.5 46.5 202-13.1z"/>
				<path id="&lt;Path&gt;" fill-rule="evenodd" class="s2" d="m820.1 418c40.3-32.8 56.1-82.6 35.2-111.4-21-28.8-70.7-25.6-111.1 7.2-40.3 32.7-56.1 82.6-35.2 111.4 21 28.8 70.7 25.5 111.1-7.2z"/>
				<path id="&lt;Path&gt;" fill-rule="evenodd" class="s3" d="m909.6 489.3c44.4-44.9 90.3-62.4 102.5-39.2 12.2 23.2-13.9 78.5-58.3 123.4-44.5 44.9-90.3 62.5-102.5 39.2-12.2-23.2 13.9-78.4 58.3-123.4z"/>
			</g>
			<g id="&lt;Group&gt;">
				<path id="&lt;Path&gt;" fill-rule="evenodd" class="s4" d="m282.6 223.5c132.9 0 244.2 91.9 274.1 215.6 24.2-11.6 51.2-18.4 79.8-18.4 101.4 0 183.5 82.2 183.5 183.5 0 101.4-82.1 183.6-183.5 183.6h-353.9c-155.8 0-282.2-126.3-282.2-282.1 0-155.9 126.4-282.2 282.2-282.2z"/>
				<path id="&lt;Path&gt;" fill-rule="evenodd" class="s5" d="m246.4 493.1c73.5-59.6 102.2-150.3 64.1-202.7-38.1-52.3-128.5-46.5-202 13.1-73.5 59.6-102.1 150.4-64.1 202.7 38.1 52.4 128.6 46.5 202-13.1z"/>
				<path id="&lt;Path&gt;" fill-rule="evenodd" class="s6" d="m616.1 570.5c40.3-32.7 56.1-82.6 35.2-111.4-20.9-28.8-70.6-25.5-111 7.2-40.4 32.8-56.1 82.6-35.2 111.4 20.9 28.8 70.6 25.6 111-7.2z"/>
				<path id="&lt;Path&gt;" fill-rule="evenodd" class="s7" d="m705.7 641.9c44.4-44.9 90.2-62.5 102.4-39.3 12.2 23.2-13.9 78.5-58.3 123.4-44.4 44.9-90.3 62.5-102.5 39.3-12.1-23.3 13.9-78.5 58.4-123.4z"/>
			</g>
		</g>
		<g id="&lt;Group&gt;">
			<g id="&lt;Group&gt;">
				<path id="&lt;Path&gt;" fill-rule="evenodd" class="s8" d="m260.2 932.8c-11.3 19.6-36.3 26.3-55.8 15-19.6-11.3-26.3-36.3-15-55.8 11.3-19.6 81.1-58.7 81.1-58.7 0 0 1 80-10.3 99.5z"/>
				<path id="&lt;Path&gt;" fill-rule="evenodd" class="s9" d="m190.6 926.1c-6.3-16.6-2.5-34 8.6-38.9 11.1-5 25.2 4.5 31.6 21 6.3 16.6 2.4 34-8.6 38.9-11.1 4.9-25.2-4.5-31.6-21z"/>
			</g>
			<g id="&lt;Group&gt;">
				<path id="&lt;Path&gt;" fill-rule="evenodd" class="s10" d="m485.3 932.8c-11.3 19.6-36.3 26.3-55.8 15-19.6-11.3-26.3-36.3-15-55.8 11.3-19.6 81.1-58.7 81.1-58.7 0 0 0.9 80-10.3 99.5z"/>
				<path id="&lt;Path&gt;" fill-rule="evenodd" class="s11" d="m415.7 926.1c-6.3-16.6-2.5-34 8.6-38.9 11.1-5 25.2 4.5 31.5 21 6.4 16.6 2.5 34-8.6 38.9-11.1 4.9-25.2-4.5-31.5-21z"/>
			</g>
			<g id="&lt;Group&gt;">
				<path id="&lt;Path&gt;" fill-rule="evenodd" class="s12" d="m710.3 932.8c-11.2 19.6-36.2 26.3-55.8 15-19.5-11.3-26.2-36.3-14.9-55.8 11.3-19.6 81-58.7 81-58.7 0 0 1 80-10.3 99.5z"/>
				<path id="&lt;Path&gt;" fill-rule="evenodd" class="s13" d="m640.8 926.1c-6.4-16.6-2.5-34 8.6-38.9 11.1-5 25.2 4.5 31.5 21 6.4 16.6 2.5 34-8.6 38.9-11.1 4.9-25.2-4.5-31.5-21z"/>
			</g>
		</g>
		<g id="&lt;Group&gt;">
			<g id="&lt;Group&gt;">
				<path id="&lt;Path&gt;" fill-rule="evenodd" class="s14" d="m407.2 815.4c-16 27.8-51.5 37.3-79.3 21.3-27.8-16-37.3-51.6-21.3-79.3 16.1-27.8 115.3-83.5 115.3-83.5 0 0 1.4 113.8-14.7 141.5z"/>
				<path id="&lt;Path&gt;" fill-rule="evenodd" class="s15" d="m308.3 805.8c-9-23.5-3.5-48.3 12.2-55.3 15.8-7 35.9 6.4 44.9 29.9 9 23.6 3.5 48.3-12.2 55.3-15.8 7-35.9-6.4-44.9-29.9z"/>
			</g>
			<g id="&lt;Group&gt;">
				<path id="&lt;Path&gt;" fill-rule="evenodd" class="s16" d="m650.1 815.4c-16 27.8-51.5 37.3-79.3 21.3-27.8-16-37.3-51.6-21.3-79.3 16.1-27.8 115.2-83.5 115.2-83.5 0 0 1.5 113.8-14.6 141.5z"/>
				<path id="&lt;Path&gt;" fill-rule="evenodd" class="s17" d="m551.2 805.8c-9-23.5-3.5-48.3 12.2-55.3 15.8-7 35.9 6.4 44.9 29.9 9 23.6 3.5 48.3-12.3 55.3-15.7 7-35.8-6.4-44.8-29.9z"/>
			</g>
		</g>
	</g>
</svg>